<?xml version="1.0" standalone="no"?>
<!DOCTYPE svg PUBLIC "-//W3C//DTD SVG 1.1//EN" "http://www.w3.org/Graphics/SVG/1.1/DTD/svg11.dtd" >
<svg xmlns="http://www.w3.org/2000/svg">
<metadata>
This is a custom SVG webfont generated by Font Squirrel.
Copyright   : Converted by ALLTYPE
</metadata>
<defs>
<font id="webfonttjkZDPO8" horiz-adv-x="565" >
<font-face units-per-em="2048" ascent="1638" descent="-410" />
<missing-glyph horiz-adv-x="500" />
<glyph unicode=" " />
<glyph unicode="!" horiz-adv-x="677" d="M225 113q4 29 15.5 52t29.5 38q16 16 35 24.5t39 10.5h4h4q25 0 47.5 -9.5t42.5 -25.5q20 -18 30.5 -42t10.5 -52q0 -33 -10 -57.5t-31 -41.5q-20 -12 -41.5 -20t-44.5 -8q-25 0 -47 7t-43 21q-20 16 -30.5 41t-10.5 58v4zM338 354l-80 936v4v3v3v2v3q-2 33 6 57t23 43 q16 18 32.5 27.5t34.5 9.5h2h4q18 -2 37 -14.5t35 -36.5q16 -25 25.5 -63t9.5 -91l-80 -883h-49z" />
<glyph unicode="&#x22;" horiz-adv-x="677" d="M96 870v469q0 18 5 35t18 29q12 12 24.5 19.5t26.5 7.5t26.5 -7.5t22.5 -19.5t16.5 -33.5t6.5 -50.5v-481q0 -14 -6.5 -24.5t-16.5 -20.5q-12 -8 -24.5 -13.5t-24.5 -7.5h-3h-3h-3q-13 -2 -24.5 2t-21.5 12q-10 10 -15.5 24.5t-5.5 35.5v1v3v2q0 2 2 4v4v3v3v4zM420 903 v420q0 20 6 38.5t18 33.5q12 16 27.5 23t30.5 9q10 0 21.5 -4t19.5 -14q10 -8 15 -23.5t7 -35.5v-480q0 -23 -6 -41t-18 -30t-25.5 -18.5t-28.5 -6.5q-14 0 -26 5t-23 18q-10 12 -15 31.5t-5 45.5v2v3v4q0 2 2 4v1v3v1v3v1v3v4z" />
<glyph unicode="#" horiz-adv-x="1144" d="M209 0l65 436h-225v113h242l47 274h-225v113h241l66 418h129l-66 -418h258l66 418h129l-66 -418h195v-113h-211l-47 -274h209v-113h-225l-66 -436h-129l66 436h-259l-65 -436h-129zM420 549h258l47 274h-258z" />
<glyph unicode="$" horiz-adv-x="1144" d="M225 258q4 -10 12 -20l15 -23q4 -6 9 -12l11 -13q6 -8 13 -14l12 -12q20 -20 46 -37.5t56 -34.5q31 -16 68 -24.5t82 -8.5v570q-94 16 -163 53t-112 90q-45 53 -67.5 109.5t-22.5 115.5q0 66 23.5 125.5t71.5 116.5q47 55 114.5 92t155.5 51v166l3 -6q1 -2 3 -2 q2 -2 4 -2h4q2 -2 4 -3t4 -1q0 -2 2 -2h5h4h4h2h4h11q5 0 9 2l9.5 5t7.5 5v-158q16 -4 34.5 -5t38.5 -5q23 -2 44 -7l47 -11q23 -6 44 -13.5t42 -17.5q23 -8 41 -19.5t32 -21.5q-12 -18 -22 -39.5t-17 -44.5q-8 -23 -14 -46l-12 -48l-17 4q-12 27 -33.5 55.5t-52.5 55.5 q-31 29 -69.5 48t-85.5 32v-512q4 -4 8 -6.5t10 -4.5l8 -4l9 -4q8 -2 16 -5t16 -7q66 -27 120 -56.5t97 -64.5q43 -33 64.5 -85t21.5 -122v-5v-7v-5v-7q0 -70 -16 -126.5t-49 -103.5q-33 -45 -68 -81t-75 -60q-23 -14 -44.5 -25.5t-44.5 -13.5q-20 -6 -38.5 -10t-34.5 -4 v-226l-8 4q-4 2 -9 2q-2 0 -4 2l-2 1h-4h-4h-8h-8q-2 0 -5.5 -1.5t-7.5 -3.5h-3q-1 0 -3 -2h-3h-3h-3q-1 0 -1 -2h-3l-1 226h-12q-6 0 -11 -2h-11h-11h-11q-5 0 -10 -2h-11h-11q-53 0 -99.5 7t-82.5 17q-37 14 -71 35.5t-63 52.5l12 20q5 9 9 19t9 20.5t9 22.5l4 16l5 17 q4 8 7 16t5 17v2v4q0 2 1 4t3 4zM629 80q41 8 72.5 23.5t52.5 35.5q23 23 39 44.5t24 43.5q6 14 10 27.5t7 28.5q2 14 3 26.5t1 24.5q0 41 -16.5 80t-47.5 73q-31 35 -67.5 60.5t-77.5 44.5v-512zM549 823v467q-43 -16 -77 -38.5t-62 -55.5q-27 -33 -41.5 -66.5t-14.5 -68.5 q6 -43 21.5 -80t40.5 -72q25 -33 57.5 -56.5t75.5 -33.5v4z" />
<glyph unicode="%" horiz-adv-x="1822" d="M451 -63l774 1499h114l-774 -1499q-2 2 -4 3t-4 1h-3q-3 2 -4 2q-5 2 -9 3t-9 1h-7h-9h-15q-7 0 -16 -2q-4 0 -8 -1t-8 -1q-6 -2 -10 -3t-8 -3zM1065 322q0 78 26.5 140t79.5 107q53 43 114 68t124 27h3h3h3h3q59 0 114.5 -19.5t104.5 -60.5q49 -39 75 -101.5t26 -146.5 v-3v-4v-3v-4v-5q-4 -82 -28.5 -142t-70.5 -101q-45 -39 -94 -61.5t-102 -28.5h-11h-10h-4q-2 0 -4 -2h-6h-4h-9h-9h-5h-4q-4 2 -6 2h-4q-66 6 -121 30.5t-98 69.5t-64.5 103.5t-21.5 129.5v5zM1225 322v-15v-10v-9q0 -5 2 -9q4 -45 15 -86t32 -78q23 -39 54.5 -60.5 t74.5 -25.5h2h4q35 0 63.5 22.5t51.5 67.5q23 47 36 96t17 104v5q0 2 2 6v5v5v9v11q0 49 -8 92.5t-27 79.5q-18 37 -48 56.5t-71 21.5h-3h-3h-3h-1q-2 -2 -4 -2h-2h-3h-3q-37 0 -64.5 -15t-48.5 -46q-20 -31 -33.5 -63.5t-21.5 -69.5q-2 -12 -5 -24.5t-3 -24.5 q-2 -12 -2 -25v-23v5zM96 1065q0 70 23.5 125t68.5 96q47 41 98.5 64.5t108.5 29.5h9h12h4q2 0 6 2h5h5q70 0 122 -17t87 -52q35 -33 59.5 -71t36.5 -79q4 -14 7.5 -29.5t5.5 -31.5q2 -14 3 -29.5t1 -28.5v-8v-8q-2 -6 -2 -10v-8q-2 -8 -3 -16.5t-1 -16.5 q-10 -55 -35 -104.5t-66 -94.5q-39 -45 -93 -66.5t-122 -21.5q-86 0 -147.5 26.5t-102.5 78.5q-39 53 -61.5 109.5t-26.5 119.5q-2 4 -2 8v8v10v11v4zM242 1049q0 -70 12 -123.5t39 -94.5q27 -39 58.5 -58t68.5 -19q43 0 76.5 22.5t58.5 67.5t39 94t16 104v4v3v4v7v5 q0 49 -10 93t-33 83q-20 39 -53 58.5t-78 19.5t-78.5 -15.5t-56.5 -43.5q-20 -31 -33.5 -64t-19.5 -68q-2 -12 -4 -22t-2 -21v-20v-21v5z" />
<glyph unicode="&#x26;" horiz-adv-x="1482" d="M500 758q-35 47 -59.5 92t-41.5 86q-14 41 -22 80t-8 74q0 59 17 108t54 86q35 37 75 61.5t83 38.5q6 2 12 3.5t13 3.5q6 0 12 1t12 3q6 0 12.5 1t12.5 1q4 2 10 2h12q72 -6 126 -24.5t87 -49.5q35 -31 52.5 -67.5t19.5 -79.5q0 -20 -4 -43t-12 -45q-8 -23 -18.5 -45.5 t-24.5 -45.5q-18 -27 -42 -54t-53 -56q-27 -27 -60.5 -53.5t-70.5 -49.5l355 -432q18 20 35 45l34 50l17 24q8 12 16 27q6 12 14 25l17 28l13 25l15 26q6 12 13.5 24.5t13.5 24.5t13 24.5t14 27.5q8 12 14 24l12 25l80 -76q4 -8 -4 -26.5t-29 -53.5q-20 -33 -46 -69l-54 -74 l-12 -17l-13 -16q-2 -4 -6 -8t-6 -8q-4 -4 -7 -8.5t-7 -8.5q-6 -8 -12.5 -15t-10.5 -14q-6 -8 -12 -14l-12 -12l-23 -26l-20 -21l258 -287h-242l-145 162q-2 -6 -5.5 -11.5t-5.5 -9.5q-4 -6 -8 -11t-8 -9q-8 -10 -19 -21l-24 -20q-27 -23 -62.5 -43.5t-78.5 -36.5 q-43 -14 -90.5 -23.5t-100.5 -9.5h-9h-9h-8h-9q-80 0 -142 15.5t-105 46.5q-43 33 -73 68.5t-46 74.5l-4 12q-2 6 -4 15q-2 6 -3 12t-3 12t-3.5 12.5t-1.5 12.5v10v12v3v3q-2 2 -2 4v3v7v5v5v5v7v5q0 61 16.5 112.5t49.5 92.5q35 41 71.5 77t75.5 65l19.5 12l19.5 12 q8 6 18.5 12.5t18.5 12.5q18 10 35.5 21l32.5 20v4zM920 209l-371 485q-10 -10 -22 -18l-23 -17l-24.5 -17t-24.5 -19q-27 -23 -52.5 -50.5t-48.5 -58.5t-34 -67.5t-11 -77.5v-10v-9q0 -6 1 -11t1 -9q2 -10 5 -21.5t6 -21.5q23 -57 53.5 -99.5t68.5 -66.5q41 -25 83 -38 t87 -13h8h5h4h4l2 1q2 1 4 1q41 4 79 14t75 29q37 18 68.5 40.5t56.5 49.5v4zM645 854q2 -2 4 -2t4 2q2 0 4 1t5 3q29 14 54 37t52 53q25 31 43 65t31 68q2 4 3 9.5t3 11.5q0 4 1 9t3 11q2 10 3 20.5t1 20.5q0 27 -7 50.5t-24 43.5q-14 23 -39.5 38.5t-60.5 23.5q-6 2 -12 3 t-11 1h-11h-9q-39 0 -67.5 -12.5t-47.5 -38.5q-18 -27 -27.5 -59.5t-9.5 -71.5q0 -16 2 -34l5 -34l8 -36q4 -17 10 -33q6 -20 15.5 -40t21.5 -40q10 -20 24.5 -39t28.5 -35v4z" />
<glyph unicode="'" d="M96 854l162 500q6 14 14.5 27.5t18.5 23.5t22.5 16t24.5 9h1q1 0 3 2h1h3h4h4q14 0 26.5 -6.5t25.5 -16.5q12 -10 18 -24.5t6 -32.5q0 -8 -1 -18.5t-5 -20.5q-2 -10 -8 -22l-13 -21l-258 -432z" />
<glyph unicode="(" d="M451 -225l-39 45t-35 45l-33 47l-31 45q-29 45 -53 91t-45 93l-27 66l-24 65q-10 31 -18.5 64t-14.5 65q-12 66 -18.5 129.5t-6.5 124.5q0 133 23 254t68 232t94 196.5t102 149.5q6 8 14 15l15 16l7 7l7 7l6 6q4 4 9 6l49 -45q-27 -37 -49.5 -72.5t-40.5 -72.5l-35 -73 q-16 -36 -29 -71q-27 -76 -45 -147.5t-27 -142.5q-8 -70 -12 -131.5t-4 -114.5q4 -119 14.5 -216.5t28.5 -174.5q18 -78 38.5 -141.5t41.5 -110.5q18 -41 36.5 -74t35.5 -55l28 -39l19 -25z" />
<glyph unicode=")" d="M113 -209l-50 47q63 90 107.5 171t69.5 155t40 146.5t21 142.5q2 23 3 45t1 47v23q0 11 2 24v24v25q0 135 -16.5 256t-48.5 227q-33 106 -69 187.5t-75 138.5q-2 4 -4 6t-4 6q-4 2 -6 5l-4 6q-2 4 -4 6t-4 6q-2 2 -4 5t-5 5l50 53q59 -57 105 -119.5t79 -132.5 q35 -70 60.5 -139.5t43.5 -140.5q14 -55 23.5 -110.5t15.5 -110.5l7.5 -105.5t3.5 -97.5v-8v-9q-2 -4 -2 -8v-8v-16v-15q-6 -94 -28 -185t-59 -177q-37 -88 -76.5 -157.5t-82.5 -125.5l-12.5 -13t-10.5 -13l-12 -13l-12 -12l-23 -22q-10 -11 -20 -19z" />
<glyph unicode="*" horiz-adv-x="903" d="M387 1049l-291 129v-2h2v2q0 2 1 3l3 3q2 4 5.5 9t5.5 9q4 4 8 10l8 13q4 6 9 12t9 14l5 9l4 8q0 4 2 9t4 9l258 -174l-33 307q6 -6 13.5 -9t15.5 -5t17 -2h18h8h10q4 0 8 1t8 1q10 2 17.5 5t13.5 5l-33 -319l242 194l7 -17q3 -7 7 -13q4 -8 9.5 -15.5t11.5 -13.5 q4 -8 10 -16.5t12 -14.5q6 -8 13 -14l12 -12l-291 -125l275 -113q-6 -23 -12.5 -41l-12.5 -35q-6 -18 -12 -32.5t-13 -24.5l-258 180l33 -305q-18 -4 -37 -4h-35h-30h-27l33 309l-242 -176l-82 113z" />
<glyph unicode="+" horiz-adv-x="1241" d="M96 596h469v469h129v-469h451v-129h-451v-467h-129v467h-469v129z" />
<glyph unicode="," d="M129 -354l-49 16l162 500q6 20 15 35.5t19 25.5t22.5 17.5t25.5 9.5l2 2h1h5h4q16 0 31.5 -7t29.5 -22q12 -14 19.5 -31.5t7.5 -37.5q0 -8 -1 -15.5t-5 -15.5q-2 -8 -6 -15.5t-9 -15.5z" />
<glyph unicode="-" horiz-adv-x="677" d="M80 549h516v-146h-516v146z" />
<glyph unicode="." d="M145 96q4 35 13.5 62.5t27.5 46.5q18 16 39 25.5t43 9.5h1h3h3h4q23 -2 44 -12.5t42 -28.5q18 -18 28 -40t10 -50q-2 -33 -14 -56.5t-31 -40.5q-18 -14 -39.5 -21t-44.5 -7h-3h-3q-20 2 -40.5 9t-39.5 17q-18 14 -28 35t-15 47v4z" />
<glyph unicode="/" d="M-80 -209l580 1757q6 -6 13 -9t15 -5t18 -2h17h8h11q4 0 8 1t8 1q10 2 17.5 5t13.5 5l-580 -1753h-4h-4q-4 2 -6 2h-4h-4h-4q-4 2 -7 2h-4q-6 2 -10 3t-8 1h-10h-13h-10q-6 0 -12 -2q-6 0 -12 -2l-13 -4h-4z" />
<glyph unicode="0" horiz-adv-x="1144" d="M80 662v5v9q0 4 1 10t3 12q0 27 3 61t5 75q4 41 11.5 85t19.5 89q18 72 53 136t86 122q49 59 129 87.5t189 28.5q100 0 173.5 -29.5t123.5 -88.5q49 -59 82.5 -124t52.5 -136q14 -53 22 -104.5t10 -98.5l3.5 -85t1.5 -59q0 -25 -3 -58l-8 -77q-4 -43 -13 -88t-24 -92 q-20 -68 -56 -130t-85 -118q-49 -57 -121.5 -83.5t-169.5 -26.5h-3h-3h-3h-1h-3h-3h-3q-124 0 -211 45t-140 139q-51 92 -81 195.5t-36 216.5v9v11q-2 4 -2 9v9v10v11v9v9v5zM258 629q0 -27 1 -54.5t3 -56.5q0 -14 2 -30l4 -29q2 -16 5 -30.5t6 -31.5q12 -63 34.5 -121.5 t55.5 -111.5q33 -51 82 -78t114 -27q78 0 133.5 33t85.5 96q31 66 50.5 136.5t27.5 146.5q2 14 3 28.5t1 28.5q2 12 2 27v29v27q0 13 2 28v26v25q0 133 -19.5 243.5t-55.5 196.5q-39 86 -91.5 129.5t-119.5 43.5h-3h-1h-3h-4h-4h-4q-102 -6 -166.5 -61.5t-89.5 -158.5 q-27 -102 -39 -216.5t-12 -241.5v4z" />
<glyph unicode="1" horiz-adv-x="1144" d="M209 1194l118 53l115 53q57 25 103.5 49.5t83.5 49.5l49 -13v-1402q-12 2 -23.5 5t-21.5 5q-8 2 -18 2h-19h-22q-11 0 -21 -2q-12 -2 -24.5 -5t-28.5 -5v1257l-226 -129q-2 0 -5 3t-7 9q-2 4 -4 7.5t-2 5.5q-2 4 -4 7t-4 5q-2 4 -4 6t-4 6q-4 2 -6.5 5t-4.5 5 q-4 6 -9 11.5t-11 7.5v4z" />
<glyph unicode="2" horiz-adv-x="1144" d="M178 1178q35 57 75 98t85 61q45 23 97 34t114 11h6h6q2 -2 5 -2h5h13h12q66 -6 127 -31.5t117 -72.5q55 -45 83.5 -115.5t28.5 -165.5q0 -43 -8 -88t-24 -92t-49 -95t-80 -95l-469 -480l645 17q-2 -12 -4 -21.5t-5 -19.5q-2 -8 -2 -18v-19v-22q0 -11 2 -21 q0 -10 3.5 -21.5t5.5 -19.5h-887v33q16 12 33 27l32 30l34 33q17 16 34 35l12 12q6 6 15 12q6 6 12 13.5t12 13.5l12 12l15 15q6 6 12 13t12 13l120 128l108 122q51 59 85 103t50 75q14 23 26.5 49.5t20.5 53.5q10 29 16 57l13 59q0 10 1 21.5t3 21.5v12q0 5 2 11v10v12 q0 57 -14.5 107.5t-43.5 93.5q-27 43 -72.5 65.5t-111.5 22.5h-3h-1h-3h-3h-4h-4q-39 0 -71 -10t-58 -33q-27 -20 -46.5 -44.5t-31.5 -51.5q-2 -8 -5 -15.5t-7 -13.5q-2 -8 -4.5 -14t-2.5 -12l-32 -11z" />
<glyph unicode="3" horiz-adv-x="1144" d="M193 1257q6 2 13 6.5t15 10.5l18 13l21 16q16 12 40 23t52 20q29 10 66 15t82 5q84 0 153.5 -16.5t124.5 -51.5q53 -33 81 -93t28 -144q0 -55 -16.5 -106.5t-47.5 -100.5t-80 -82t-114 -51q90 -12 153.5 -40t98.5 -75q35 -45 53 -101t18 -122q-6 -90 -39.5 -165 t-93.5 -134q-61 -59 -160.5 -88t-238.5 -29q-14 0 -30.5 1t-35.5 3q-18 2 -37.5 3t-40.5 6l-47 12q-23 6 -45 10q-23 8 -41 18.5t-30 24.5l32 117l33 16q18 -35 46 -59.5t63 -40.5t71.5 -25.5t75.5 -9.5h4h4h3h4h1h3q55 4 106 24.5t96 59.5q47 39 73 98.5t30 141.5v4v4v2v4 v4v4l1 2q1 2 1 4q0 74 -21.5 126t-64.5 83t-92.5 46.5t-104.5 15.5h-5h-7q-2 -2 -5 -2h-7h-12h-9q-2 0 -5 -1t-5 -1l-6 -3h-6h-6h-5q-4 -2 -6 -2h-6q2 4 3 7.5t3 5.5q0 4 1 7t3 5v5v5v3q0 1 2 3v3v4q0 6 -1 12t-3 12t-3 12.5t-5 12.5q6 -2 13.5 -3t15.5 -1h13h15h14h15 q8 0 15.5 2l15.5 4q37 6 70.5 24.5t64.5 48.5q31 31 48.5 85.5t21.5 129.5q0 59 -16.5 104.5t-51.5 78.5q-33 31 -71 47t-78 16h-5h-4h-3q-32 -2 -60.5 -12t-57.5 -29q-27 -18 -49 -44.5t-39 -63.5l-32 -13z" />
<glyph unicode="4" horiz-adv-x="1144" d="M33 387v49l661 934h144v-854l194 16q-2 -12 -5 -22t-5 -21q-2 -8 -2 -19v-21v-22q0 -11 2 -21t5 -19.5t5 -19.5l-194 20v-387h-37h-39h-46h-54v387h-629zM662 516v662l-453 -662h453z" />
<glyph unicode="5" horiz-adv-x="1144" d="M145 193q23 -37 52.5 -65t68.5 -46t79 -27.5t81 -9.5q59 0 113.5 20.5t103.5 61.5t73.5 107.5t24.5 158.5v3v3v2v5v4v3v3q-4 88 -27.5 149.5t-64.5 98.5q-41 35 -87 53t-97 18h-8h-8h-5h-2q-2 -2 -4 -2h-4q-25 -2 -47 -7t-45 -13t-44.5 -17.5t-39.5 -21.5l-33 20v676h678 v-10v-6q-2 -4 -2 -7v-8v-6v-6q-2 -4 -2 -7v-7q-2 -8 -3 -15.5t-1 -13.5v-15v-16v-8v-8v-7q0 -3 2 -7v-9q0 -4 2 -8q0 -4 1 -8t3 -8q-25 6 -53.5 11t-58.5 9q-31 4 -68 7.5t-78 3.5l-323 4v-434q18 8 40.5 16t49.5 14t54.5 9.5t57.5 3.5h10h11q4 -2 9 -3h11q10 -2 20.5 -3 t20.5 -1q61 -10 118.5 -37.5t109.5 -72.5q53 -45 81.5 -117t36.5 -168v-3v-1v-3v-1v-3v-1v-3v-1q0 -96 -40 -176t-117 -144q-78 -63 -172.5 -94t-202.5 -31h-30q-15 0 -30 2q-16 0 -30.5 2t-30.5 5q-14 2 -30 6l-29 8q-16 4 -30.5 7t-31.5 9q-10 4 -20.5 7t-20.5 8 q-10 4 -20.5 9t-20.5 11l33 148h16z" />
<glyph unicode="6" horiz-adv-x="1144" d="M113 580q4 207 52 359.5t140 246.5q90 96 193.5 143t220.5 47h13h16h8h8q2 -2 6 -2h8q6 -2 13.5 -3t15.5 -1t15 -1t16 -3l16 -76q-14 0 -28 2l-25 4q-12 2 -24.5 3t-24.5 1q-94 0 -169 -44t-134 -132q-57 -88 -90 -199.5t-37 -250.5l2 2q4 4 9 8t9 8t8 9.5t8 9.5 q23 20 48.5 38.5t56.5 34.5t77 25.5t105 9.5q80 0 150.5 -24.5t132.5 -73.5q59 -49 90 -121t31 -168v-4v-4v-4v-4v-4v-4v-5v-4q-6 -82 -36 -153.5t-83 -136.5q-53 -63 -136 -94t-194 -31h-8h-8h-10h-9q-94 0 -174 32.5t-145 100.5q-68 68 -100.5 171t-32.5 242v4v3v4v7v5v3 v3v1v3v7v5v5zM307 420v-30q0 -13 2 -28q2 -14 5 -27t5 -26q10 -49 32 -95t55 -87t75.5 -61.5t93.5 -20.5h2h3h3h3h4h3h3q53 4 95 24.5t71 59.5t49 82t31 88q2 8 3 15.5t1 15.5q2 6 3 13t1 15q2 16 3 29.5t1 28.5q0 72 -20.5 130t-61.5 103q-39 43 -84 65.5t-92 22.5h-5h-5 q-4 -2 -6 -2h-7h-5h-5q-4 -2 -6 -2h-4q-45 -8 -85 -32.5t-77 -65.5q-37 -39 -58.5 -94.5t-25.5 -124.5v4z" />
<glyph unicode="7" horiz-adv-x="1144" d="M145 1370h904v-80l-92 -152l-93 -155l-46 -79l-46 -79l-48 -80l-46 -79l-89 -155l-87 -157l-44 -79l-44 -78q-20 -41 -42 -80t-42 -80q-2 -6 -5 -11.5t-8 -9.5q-2 -2 -3 -5t-1 -5q-2 -2 -3 -4t-3 -2h-23h-22h-19h-20h-17h-20h-19h-22l725 1210l-725 -32q2 2 3.5 7t3.5 11 q0 6 1 12t3 13v6v6v5v5v7q0 3 2 5v8v5q0 12 -1 24.5t-3 24.5t-3 24.5t-6 24.5v4z" />
<glyph unicode="8" horiz-adv-x="1144" d="M403 774q-55 8 -97 34t-73 66q-31 41 -45 87.5t-14 95.5v4v4v4v4q4 59 28.5 111.5t73.5 101.5q49 47 125 71.5t179 24.5q98 0 170.5 -24.5t121.5 -73.5q47 -49 72 -101.5t27 -111.5v-3v-1v-2q0 -49 -16.5 -94t-47.5 -88t-77 -71t-105 -42q80 -8 140.5 -38t99.5 -83 q39 -51 58 -109.5t21 -121.5v-11v-10v-4v-4q-2 -4 -2 -6v-4q-6 -76 -37.5 -143.5t-91.5 -129.5q-57 -61 -139 -90.5t-188 -31.5h-5h-8h-4h-4q-125 2 -214 32.5t-144 89.5t-83 125t-28 138v4v4q0 66 21.5 128t62.5 120q41 59 97.5 95t125.5 50v4zM291 387q6 -82 25.5 -142.5 t52.5 -101.5q35 -43 87 -63.5t124 -20.5q59 0 102 19.5t72 58.5t48 82t27 88q0 6 1 12.5t4 12.5q0 4 1 10t1 12v12q0 5 2 11v10v12v9v8q-2 4 -2 8v8v8v9q-2 4 -2 8v8q-6 47 -22.5 92t-45.5 84q-29 41 -79 60.5t-122 19.5q-57 0 -101 -17.5t-75 -52.5q-31 -33 -51.5 -70.5 t-30.5 -78.5q-4 -14 -7 -29.5t-5 -32.5q-2 -14 -3 -29.5t-1 -27.5v4zM354 1049q0 -57 14.5 -101.5t43.5 -79.5q29 -33 66.5 -49t86.5 -16h3h3h3h4q2 -2 3 -2h3h3h3q47 0 84 18.5t63 57.5q25 37 38 79.5t13 87.5q0 47 -13 92.5t-42 84.5q-27 41 -68.5 61.5t-99.5 20.5 q-55 0 -95 -20.5t-64 -61.5q-27 -39 -39.5 -84t-12.5 -93v5z" />
<glyph unicode="9" horiz-adv-x="1144" d="M96 920v15v17v10q0 5 2 11q0 4 1 9t1 9q6 72 34 136.5t77 121.5q49 59 137 88t217 29q90 0 156.5 -24.5t112.5 -71.5q47 -47 78.5 -99.5t50.5 -107.5q10 -33 18 -63.5t10 -61.5q4 -31 6 -56.5t2 -47.5v-5v-4v-4v-4v-5v-5v-4v-4q0 -193 -38.5 -337.5t-116.5 -240.5 q-80 -94 -166 -151.5t-180 -73.5q-14 -4 -28.5 -5t-29.5 -3q-14 -2 -27.5 -3t-25.5 -1q-16 0 -32.5 1t-32.5 3t-32 5t-32 7l-65 129h49q20 -23 40.5 -36t41.5 -21q23 -8 42 -12.5t40 -4.5q78 0 147.5 48.5t128.5 144.5t91 201.5t34 220.5v3v3v4v4v4v9v8v8v8 q-14 -31 -32.5 -54.5t-39.5 -39.5q-20 -18 -39.5 -30.5t-40.5 -23.5q-20 -8 -41.5 -14t-42.5 -10q-20 -2 -37.5 -3t-33.5 -1q-84 0 -156 21.5t-131 66.5q-57 45 -87 115.5t-30 166.5v5zM291 983v-14v-13v-12q0 -6 2 -10q4 -55 17.5 -105.5t37.5 -97.5q25 -45 71 -67.5 t113 -22.5q72 4 122.5 30.5t82.5 73.5q31 47 47.5 99.5t16.5 109.5v3v4v1v3v7v5q-2 61 -20.5 116.5t-53.5 106.5q-33 51 -78 77t-100 26q-47 0 -84 -14.5t-66 -43.5q-27 -29 -47 -60.5t-33 -66.5q-8 -20 -13 -38.5t-9 -37.5l-4 -34.5t-2 -28.5v4z" />
<glyph unicode=":" d="M162 113q4 27 14 50t29 38q18 16 38.5 24t41.5 11h2h4q25 0 46 -7.5t42 -23.5q20 -16 30.5 -41t10.5 -55q-2 -33 -14.5 -57.5t-30.5 -41.5q-18 -12 -39 -20t-43 -8q-23 0 -44.5 7t-41.5 21q-20 16 -30.5 41t-14.5 58v4zM162 838q4 29 14 51t29 37q18 14 38.5 21t43.5 7h2 h1h3q23 0 44 -8t42 -24q20 -16 30.5 -38t10.5 -50q0 -33 -10.5 -57.5t-30.5 -41.5q-20 -16 -42 -24.5t-44 -8.5q-25 -2 -47.5 6.5t-42.5 24.5t-30.5 42t-10.5 59v4z" />
<glyph unicode=";" d="M129 -354l-49 32l162 484q4 16 12 31.5t20 25.5q10 10 21.5 16.5t23.5 8.5h4h3h1h3q16 0 31.5 -7.5t29.5 -21.5q12 -14 19.5 -30.5t9.5 -37.5q0 -10 -2 -21t-6 -22q-2 -12 -8.5 -23t-16.5 -22zM193 823q4 31 14 54.5t29 37.5q18 16 38.5 23.5t42.5 9.5h2h5q23 -2 44 -10 t42 -25q20 -14 30.5 -34.5t10.5 -44.5q0 -37 -10.5 -64t-30.5 -43t-42 -24.5t-44 -8.5q-25 -2 -47.5 6.5t-43.5 24.5q-20 16 -30 39.5t-10 54.5v4z" />
<glyph unicode="&#x3c;" horiz-adv-x="1241" d="M96 467v129l1065 469v-145l-870 -388l854 -403v-145z" />
<glyph unicode="=" horiz-adv-x="1241" d="M96 258v145h1049v-145h-1049zM96 791h1049v-146h-1049v146z" />
<glyph unicode="&#x3e;" horiz-adv-x="1241" d="M967 532l-871 388v145l1065 -485v-113l-1065 -483v145z" />
<glyph unicode="?" horiz-adv-x="790" d="M242 113q4 27 15 49t32 39q20 16 41.5 24t46.5 11h2h1h3q23 0 44.5 -7.5t41.5 -23.5q20 -14 32.5 -39t14.5 -57v-4v-1v-2v-3v-4q0 -30 -10 -51t-31 -36q-20 -12 -41.5 -19t-46.5 -7h-3h-1h-2q-27 0 -50.5 8t-45.5 22q-20 16 -31.5 40t-11.5 57v4zM178 596q0 41 14.5 84 t40.5 82q29 41 60 78l63 73l59 64l54 61q25 31 41 60.5t22 58.5v1v3v1v3v1v3v1v4v4v4v4v4q-2 29 -15 56.5t-36 51.5q-23 25 -53.5 37.5t-67.5 12.5q-20 0 -41.5 -3.5t-44.5 -13.5q-23 -8 -47 -23.5t-49 -37.5l-33 100l40 19q22 10 42 18q23 8 44.5 14t41.5 11h10q5 0 11 2 q4 0 9 1t9 1h9q5 0 10 2h9h9q57 0 107.5 -17.5t93.5 -52.5t65.5 -92t22.5 -135v-5v-8q-2 -2 -2 -5v-7v-5v-7q-2 -2 -2 -5v-7q-6 -27 -16.5 -53.5t-24.5 -53.5q-8 -12 -15.5 -24.5t-13.5 -24.5l-15 -23q-7 -10 -16 -20l-26 -31q-12 -14 -25 -26q-12 -12 -22.5 -20.5 t-16.5 -12.5l-5 -5l-7 -7l-3 -4l-4 -4q-1 -1 -3 -1q-35 -33 -60.5 -66.5t-42.5 -66.5q-14 -33 -22 -60.5t-8 -51.5q0 -25 6 -43.5t18 -34.5q12 -14 30.5 -21.5t41.5 -7.5q8 0 17.5 1t17.5 3q10 2 20 5t21 7l-17 -75q-4 -4 -9 -6.5t-9 -2.5q-4 -2 -8 -3t-8 -1h-5h-4 q-4 -2 -6 -2h-4h-8h-8q-49 -2 -91 15.5t-77 54.5q-33 35 -50.5 77t-17.5 89v4z" />
<glyph unicode="@" horiz-adv-x="1644" d="M96 678q0 29 3 63.5t12 73.5q6 41 18 81t29 81q35 84 92 163t139 148q82 72 199 108t266 36q137 0 242.5 -28t179.5 -83t127 -116.5t84 -127.5q16 -37 28.5 -70.5t18.5 -68.5q6 -33 10 -63.5t4 -55.5q0 -23 -4 -49.5t-12 -56.5l-8 -30q-4 -15 -11 -30l-12 -30.5 l-12 -30.5q-29 -61 -69 -116.5t-93 -104.5q-51 -51 -112.5 -76t-133.5 -25q-43 0 -74.5 9.5t-54.5 29.5q-20 20 -36.5 43t-28.5 47q-20 -33 -46 -55t-55 -37q-29 -14 -58.5 -21t-59.5 -7q-55 0 -104.5 20t-96.5 61q-45 41 -67.5 94.5t-22.5 118.5v21q0 10 2 20q0 10 3 21.5 t5 21.5q16 76 47 137.5t74 106.5q43 47 88 80t94 51l33 12q16 6 33 9q16 4 33.5 5t31.5 1q33 0 60.5 -7.5t52.5 -21.5t41 -33.5t24 -48.5l33 101h193l-144 -549q-2 -10 -3 -18.5t-3 -14.5t-2 -12v-11q0 -16 3 -28.5t11 -20.5t18.5 -12t22.5 -4t26.5 3t29.5 9q16 6 31.5 16.5 t29.5 24.5q33 29 62.5 68t56.5 90q29 53 42 113.5t13 130.5q0 16 -1 31.5t-5 29.5q-2 16 -6 31.5t-10 29.5q-23 68 -69 130.5t-118 119.5q-70 55 -158.5 84t-197.5 29q-14 0 -28.5 -1t-28.5 -3t-28.5 -3t-29.5 -5q-96 -20 -185 -69.5t-169 -129.5t-120 -181.5t-40 -221.5v-6 v-7v-5v-7q-2 -119 34 -214t108 -167q72 -70 149.5 -118t163.5 -72q10 -4 21.5 -7.5l23.5 -7.5q10 -2 21.5 -4t21.5 -4q23 -4 44.5 -7t41.5 -3h4h4h5h5q2 -2 5 -2h4h4h4q74 0 139.5 16t122.5 49t101 69t77 75q10 10 17.5 20l15.5 21l12 21l12 22l146 4v-5l-2 -4l-2 -2 q-41 -76 -100.5 -143t-137.5 -129q-78 -61 -184.5 -91t-239.5 -30h-5h-5h-6h-6h-11h-10q-154 6 -283.5 59.5t-234.5 155.5q-104 102 -156.5 218t-52.5 247v3v3v4v5v2v4v3v3v4zM596 694q-8 -29 -12 -53l-9 -47q-2 -20 -4 -37.5t-2 -34.5q0 -39 8.5 -65.5t22.5 -38.5 q16 -12 35.5 -21.5t42.5 -13.5h2h4q0 -2 1 -2h3h4q8 0 17.5 2t17.5 6q10 4 19.5 10.5t17.5 14.5q23 18 46.5 44.5t43.5 63.5q23 35 40 73t32 77q4 10 6 19t4 20q2 8 4 18t4 19q4 18 6 36.5t2 36.5q0 29 -6 52.5t-16 44.5q-12 18 -30.5 30.5t-45.5 14.5q-12 0 -27.5 -4.5 t-31.5 -12.5l-17.5 -9t-17.5 -11q-10 -6 -19 -14l-18 -15q-18 -16 -35.5 -37.5t-34.5 -46.5q-16 -27 -30.5 -57.5t-26.5 -65.5v4z" />
<glyph unicode="A" horiz-adv-x="1370" d="M16 0l646 1436h47l630 -1436h-13h-15h-16h-17h-9q-5 0 -9 2h-12h-9h-11q-5 0 -9 2h-12h-9h-4h-2h-4h-4h-7h-8q-8 -2 -15 -3t-13 -1h-8h-7h-7h-7l-225 565h-500l-209 -565h-6h-6q-4 0 -7 1t-7 1h-7q-4 0 -6 2h-7h-7h-8h-8h-5h-4q-2 -2 -4 -2h-4h-3h-3q-2 -2 -3 -2h-3h-5 h-7h-7h-6h-7h-7h-12h-13zM436 662h418l-209 499z" />
<glyph unicode="B" horiz-adv-x="1257" d="M193 0v1403h485q4 -4 9 -4h9h10h9q66 -2 125 -17.5t114 -44.5q55 -27 83 -81t28 -136v-4v-4v-3v-3v-4v-4v-3v-3q0 -59 -22.5 -113.5t-65.5 -104.5q-43 -49 -98.5 -78.5t-120.5 -41.5q72 -12 135 -35t115 -55q53 -33 78.5 -95.5t25.5 -152.5q0 -109 -36 -187.5 t-107 -126.5q-70 -49 -149 -74.5t-165 -27.5h-5h-5h-6h-6h-11h-10h-419zM371 80h194q14 -1 27 -1q56 0 101 14q56 17 102 52q43 35 71.5 73t42.5 81q0 4 1 8t3 10q0 4 1 8.5t1 8.5q2 8 3.5 16t1.5 17q0 102 -32 170.5t-97 101.5q-63 33 -169 49.5t-251 16.5v-625zM371 791 h129q17 -1 33 -1q70 0 126 14q70 17 119 52q47 35 75 86t34 119v3v3v2q0 2 2 4v4v3v3q0 59 -24.5 104.5t-73.5 74.5t-105.5 43t-120.5 14l-194 4v-532z" />
<glyph unicode="C" horiz-adv-x="1370" d="M80 694q0 143 51 269.5t152 234.5q102 109 241.5 163t313.5 54h20h21q10 -2 20 -2h21q23 -2 44 -3t44 -3q43 -2 85 -9t83 -18q41 -10 77.5 -25.5t69.5 -35.5l-49 -158h-17q-37 33 -75.5 60.5t-79.5 48.5q-41 20 -83 33.5t-83 21.5q-12 2 -24.5 3t-22.5 3h-12q-6 0 -11 2 h-11h-11q-109 0 -205 -41t-180 -123q-82 -82 -125 -194.5t-43 -257.5v-7v-8v-5v-7q4 -174 48 -299t130 -196q86 -74 180 -110t199 -36h8h8h9h12q55 4 110.5 15.5t108.5 31.5t100 48t86 61l-16 -125q-14 -10 -28.5 -18.5t-26.5 -16.5q-14 -8 -29 -14l-29 -13q-23 -8 -44 -14 t-42 -14q-8 -2 -15 -4t-13 -4l-60 -13q-29 -6 -57 -10q-29 -4 -56.5 -6t-56.5 -2q-150 0 -278.5 47t-239.5 147t-165 236.5t-54 308.5v4z" />
<glyph unicode="D" horiz-adv-x="1597" d="M193 1419h661q176 -4 298 -54t191 -148q70 -98 105 -214t35 -249q0 -33 -3 -68t-10 -74q-6 -39 -15 -76.5t-23 -76.5q-31 -82 -83.5 -159t-125.5 -148q-74 -70 -182.5 -109t-249.5 -43h-598v1419zM387 1323v-1227q25 -4 48 -6l46 -4q23 -2 46 -2h44q178 0 308.5 37 t212.5 110q80 74 126 201t56 305v8q0 4 2 9v8v8v15v16q0 139 -36 235.5t-107 151.5q-72 55 -151 90t-165 47q-10 2 -20.5 3t-20.5 1q-12 2 -22.5 3t-20.5 1q-20 2 -41.5 3t-40.5 1q-27 0 -51.5 -1t-46.5 -3q-23 -2 -43.5 -3t-38.5 -3q-14 -2 -26.5 -3t-22.5 -1 q-10 -2 -19.5 -3t-15.5 -1v4z" />
<glyph unicode="E" horiz-adv-x="1032" d="M178 0v1403h742q-2 -10 -4.5 -17.5l-4.5 -13.5q0 -2 -1 -5t-1 -5q-2 -4 -2 -6v-6v-3v-4v-4v-4v-15q0 -7 2 -15q0 -4 1 -8.5t3 -8.5q2 -6 3.5 -10t3.5 -8q-31 6 -62 10t-65 6q-33 2 -67 3t-69 1h-20h-21h-21h-22q-8 -2 -15 -2h-15h-17h-14h-17h-20q-8 -2 -17 -2h-18h-36 h-33v-495h307l192 16q-2 -10 -5 -17.5t-5 -13.5q-2 -8 -2 -15v-16v-8v-8q0 -6 1 -10t1 -8q2 -8 5 -17.5t5 -19.5l-241 20h-258v-581q14 -4 30.5 -6.5t34.5 -2.5q18 -2 39 -2h41h33h35h18q8 0 19 2h17h17l80 5l78 4q37 4 67.5 7t55.5 5q-2 -8 -5 -17.5t-5 -19.5q-2 -8 -2 -16 v-17v-16q0 -8 2 -16t5 -14.5t5 -8.5h-758z" />
<glyph unicode="F" horiz-adv-x="1032" d="M178 1403h725q-2 -8 -3 -13.5t-3 -9.5t-2 -8v-8q-2 -6 -3 -10t-1 -8v-10v-9v-17q0 -9 2 -20q2 -8 5 -17t5 -20q-8 0 -15 1t-14 3q-6 0 -12 3l-12 4l-62 8l-59 8q-31 2 -61.5 6t-61.5 6q-61 4 -123.5 7.5t-128.5 3.5v-496h308l208 16q-2 -10 -4 -17t-4 -13q0 -2 -1 -5.5 t-1 -5.5q-2 -4 -2 -6v-6v-3v-3v-4v-4v-16q0 -7 2 -15q0 -4 1 -8t3 -8q2 -6 3 -10.5t3 -8.5l-208 19h-308v-709q-8 0 -17 1t-20 3q-10 2 -21 3t-22 1h-12q-6 0 -10 -2q-6 0 -12.5 -1t-12.5 -1q-12 -2 -24.5 -3t-24.5 -1v1403z" />
<glyph unicode="G" horiz-adv-x="1597" d="M113 694q8 162 48 283t111 199q72 78 151 131t165 82q45 16 89 26t87 17q43 6 83 10t73 6q66 0 132 -7t134 -22q66 -14 132 -39.5t134 -60.5l-66 -174q-10 4 -22 13t-25 22l-25 24q-13 12 -30 25q-29 23 -65.5 43t-79.5 39q-43 18 -98.5 28.5t-120.5 10.5q-20 0 -40 -1 t-42 -6q-20 -2 -42 -6t-44 -10q-76 -20 -146.5 -64t-136.5 -112q-63 -68 -100 -166t-47 -231v-4v-5v-4v-4v-4v-4v-4v-4q0 -7 -1 -14q0 -141 39 -258q41 -123 123 -218q84 -94 192.5 -140t244.5 -46q53 0 103 5t95 16q47 10 81 25t58 34v537q4 -4 8.5 -5.5l10.5 -3.5 q4 -2 8 -3t8 -1q8 -2 16.5 -3t16.5 -1h4h4h7h6h21q11 0 22 2q10 2 22 5t25 5v-594l-3 -6q-1 -2 -3 -2h-3q-2 -2 -3 -2h-1q-10 -4 -23 -8l-28 -8q-14 -6 -30.5 -10t-34.5 -9q-37 -8 -74 -14t-78 -10l-71 -11q-34 -5 -68 -8q-33 -4 -61.5 -6t-51.5 -2h-9h-9h-9h-10 q-174 0 -311 47t-240 148q-100 98 -151 230t-51 298v4z" />
<glyph unicode="H" horiz-adv-x="1597" d="M162 0v1436q6 -4 14 -7.5t17 -5.5q4 0 9 -1t11 -1q4 -2 9 -2h9h3h4h4h7h5h25q12 0 24 2q10 2 20 5l15 6v-594q29 -8 74 -12.5t106 -8.5l123 -4q63 -2 129 -2h4h3h3q66 0 129.5 1t124.5 3q59 4 104.5 8t71.5 11v602q2 -4 4.5 -5t4.5 -1q0 -2 2 -3h4q4 -2 8 -2h8l15.5 -4 t15.5 -2h15h16h21q11 0 22 2q10 2 21 5l19 6v-1432q-8 0 -17 1t-19 3t-21.5 3t-21.5 1h-13q-6 0 -10 -2q-6 0 -12 -1t-12 -1q-12 -2 -24.5 -3t-25.5 -1v709q-14 0 -33.5 1t-41.5 3q-23 0 -48.5 1t-54.5 3q-57 4 -121.5 5t-134.5 1h-24h-25q-14 -2 -27 -2h-24h-25h-24 q-14 -2 -27 -2h-25q-14 0 -29.5 -1t-29.5 -1q-16 -2 -30.5 -3t-30.5 -1q-31 -2 -59.5 -3t-57.5 -5v-705q-12 0 -22.5 1t-20.5 3q-8 2 -17.5 3t-19.5 1t-21.5 -1t-21.5 -3q-12 -2 -24.5 -3t-28.5 -1z" />
<glyph unicode="I" d="M193 1419q10 -6 19 -9t21 -5q10 -2 23 -2h25h12h12q4 0 10.5 1t12.5 1q12 2 23 5l20 5v-1415q-8 0 -19.5 1t-21.5 3q-6 0 -12.5 1t-10.5 1q-6 2 -12 2h-12q-12 0 -24.5 -1t-25.5 -3q-12 -2 -21 -3t-19 -1v1419z" />
<glyph unicode="J" d="M225 1419q10 -6 19.5 -9t21.5 -5q10 -2 23 -2h24h13h12q4 0 10 1t12 1q12 2 24 5l19 5v-1319q0 -78 -28.5 -141.5t-87.5 -118.5q-57 -55 -126 -82.5t-149 -29.5h-4h-4h-3q-1 2 -2 2h-3h-4h-4l-4 65q84 6 135 39t69 92q18 57 27.5 128t9.5 155v1214z" />
<glyph unicode="K" horiz-adv-x="1257" d="M178 0v1419q6 -4 15.5 -7t17.5 -5q10 -2 19.5 -3t17.5 -1h4h4h4h4h12h13q4 0 10 1t12 1q12 2 24 5l19 5v-657q12 6 24.5 15t27.5 22q12 12 26 24t29 27l8 8q4 4 10 8l9 9l12 12l16 16l16 16l17 17l16 16l467 471q10 -6 22 -9l19 -5q10 -2 20 -2h17h3h3h1h3h7q3 0 6 2h9 q5 0 11 2l12 4l13 4l-629 -624l661 -758v-33h-12q-6 0 -12 2q-8 0 -14.5 1t-12.5 1q-14 2 -27.5 3t-27.5 1h-15q-7 0 -14 -2q-8 0 -15 -1t-16 -1q-14 -2 -29.5 -3t-31.5 -1l-483 596l-9.5 5t-9.5 9q-4 4 -8 9.5l-8 11.5q-12 14 -25 26l-24 25q-6 6 -12.5 11t-10.5 7 q-6 4 -12 5.5t-12 1.5h-4h-5h-2q-2 -2 -3 -2h-1v-705q-8 0 -17 1t-20 3q-10 2 -21 3t-22 1h-12q-6 0 -10 -2q-6 0 -12.5 -1t-12.5 -1q-12 -2 -24.5 -3t-24.5 -1z" />
<glyph unicode="L" horiz-adv-x="1032" d="M178 0v1419q8 -6 18.5 -9t22.5 -5t25 -2h26h25q12 0 24 2q10 2 20 5l15 5v-1302q14 -4 30.5 -6.5t35.5 -2.5q18 -2 39 -2h41h32h35h19q8 0 18 2h18h17l80 5l78 4q37 4 67.5 7t55.5 5l-5 -12q-2 -6 -2 -13q-2 -6 -2 -12v-10v-12v-11q0 -6 1 -11t3 -9v-5q0 -3 3 -7v-6v-5 v-4q0 -2 2 -4v-3z" />
<glyph unicode="M" horiz-adv-x="1822" d="M80 0l194 1419h64l565 -1081l580 1081h65l162 -1419q-12 0 -24.5 1t-22.5 3q-10 0 -20.5 1t-20.5 3h-4h-4h-4h-4h-13q-6 0 -12 -2q-8 0 -14 -1t-13 -1q-12 -2 -25 -3t-30 -1l-96 1065l-533 -1032h-32l-516 1016l-97 -1049q-6 0 -13 1t-15 3t-17.5 3t-19.5 1h-4h-2h-4h-5 h-3h-3q-2 -2 -3 -2h-3q-8 0 -15 -1t-14 -3q-6 -2 -12 -2h-12z" />
<glyph unicode="N" horiz-adv-x="1597" d="M193 0v1419h98l983 -1081v1081q6 -6 13 -9t16 -5q8 -2 17 -2h17h9h10q4 0 8 1t8 1q10 2 17.5 5t13.5 5v-1415h-80l-1001 1112v-1112q-6 0 -12.5 1t-14.5 3t-15.5 3t-15.5 1h-8q-4 0 -8 -2q-6 0 -10.5 -1t-8.5 -1q-8 -2 -17 -3t-19 -1z" />
<glyph unicode="O" horiz-adv-x="1710" d="M80 709v17v17q0 10 1 20.5t3 20.5q12 123 67.5 237t153.5 218q96 104 237.5 156.5t327.5 52.5q188 -6 322.5 -49t216.5 -127q82 -82 134 -172t75 -189q4 -12 6 -24.5t4 -22.5l4 -24l4 -25q4 -25 5 -48.5t4 -45.5v-3v-3v-4v-2v-4v-5v-3v-3q0 -170 -58.5 -304t-177.5 -230 q-119 -98 -253 -145.5t-284 -47.5h-8h-8h-9h-9q-27 0 -52.5 1t-52.5 5q-27 2 -53 9l-53 12q-102 23 -196.5 78t-180.5 139t-128 208t-42 286v4zM291 709q0 -160 40 -283t122 -209t186 -129t231 -43q115 0 212.5 43t172.5 129q78 86 123 209t58 279v9v7v8v8q0 133 -40 246 t-120 203q-82 90 -187.5 135t-234.5 45q-117 0 -206 -37t-150 -108q-61 -74 -103.5 -154t-66.5 -166l-13 -51q-6 -25 -10 -49q-4 -25 -7 -49.5t-7 -46.5v4z" />
<glyph unicode="P" horiz-adv-x="1144" d="M145 1419h517q102 -4 179 -25.5t126 -62.5t73.5 -101.5t24.5 -137.5v-5v-4v-4q0 -2 2 -4v-4v-4v-4v-4q0 -92 -30.5 -160t-90.5 -115q-59 -45 -124.5 -75.5t-137.5 -46.5q-27 -6 -52.5 -9.5t-49.5 -7.5q-25 -2 -48.5 -3t-46.5 -1t-44 1t-40 3q-20 2 -36.5 5t-28.5 7v-657 q-12 0 -23.5 1t-21.5 3t-21.5 3t-21.5 1q-12 0 -24.5 -1t-24.5 -3t-25.5 -3t-30.5 -1v1419zM338 741h194q11 -1 22 0q61 0 110 20q57 24 98 68q41 47 64.5 98.5t29.5 108.5v4q0 2 2 4v5v4v8v8q0 53 -16.5 99t-48.5 87q-33 41 -82 61.5t-115 20.5h-4h-4h-4h-2q-2 -2 -4 -2h-5 h-4h-4l-227 4v-598z" />
<glyph unicode="Q" horiz-adv-x="1710" d="M80 725q6 174 66.5 307t175.5 228q115 94 247.5 141t284.5 47q182 0 322.5 -50t240.5 -151q98 -100 151.5 -231t59.5 -295q0 -121 -33.5 -231.5t-99.5 -210.5t-166 -170t-233 -109l452 -338l-8 -4l-8 -4q-4 0 -8 -2l-8 -4q-4 -2 -7.5 -4t-7.5 -4q-2 0 -5 -2.5t-7 -4.5 l-25 -12q-12 -6 -22 -12t-21 -15l-20 -16q-2 -2 -4 -3t-4 -3t-3 -4t-4 -4l-450 403h-12q-6 0 -11 -2h-11h-11h-11q-5 0 -10 -2h-11h-11q-186 0 -327.5 52.5t-237.5 158.5q-94 109 -144.5 226.5t-56.5 246.5q-2 4 -2 8v11v9v11v4v4v5v6v4v4v4v4v4zM291 725q0 -178 37 -307 t110 -211q74 -82 178.5 -122t237.5 -40q145 0 250.5 50t169.5 151q66 102 97.5 212.5t31.5 231.5q0 27 -1 56.5t-5 62.5q-2 33 -7.5 65.5l-11.5 65.5q-16 78 -53 147.5t-92 133.5q-55 66 -146.5 97.5t-218.5 31.5h-8h-8h-4h-2h-4h-4q-121 0 -218.5 -47.5t-170.5 -139.5 q-74 -94 -113 -204.5t-45 -237.5v4z" />
<glyph unicode="R" horiz-adv-x="1257" d="M178 0v1419h500q102 -4 179 -28.5t126 -71.5q49 -49 73.5 -109.5t24.5 -132.5q0 -70 -19.5 -126t-60.5 -97q-39 -41 -83 -71.5t-91 -49.5l-44 -16q-22 -8 -44 -12q-20 -6 -40.5 -9.5t-36.5 -5.5l548 -690h-15q-7 0 -15 2q-8 0 -15.5 1t-13.5 3h-16h-15h-8q-4 0 -6 2h-8 h-8q-14 0 -30 -1t-32 -3q-14 -2 -29.5 -3t-31.5 -1l-531 678h-65v-678h-13q-6 0 -12 2h-5q-3 0 -5 2q-4 0 -6 1t-6 1h-13h-12h-5q-3 0 -5 2h-6h-7q-12 0 -24 -1t-25 -3q-12 -2 -24.5 -3t-24.5 -1zM371 758q4 -4 9 -5t11 -1h9h10h8h10h8h8q90 0 159 12t114 39 q47 27 78.5 56.5t50.5 62.5q14 23 23.5 46t11.5 44q4 23 5 39t1 26t-2 22.5t-6 28.5q-2 16 -10.5 33t-18.5 35q-14 27 -41 51.5t-61 44.5q-35 23 -84.5 33t-114.5 10l-178 4v-581z" />
<glyph unicode="S" horiz-adv-x="1032" d="M113 1096q12 88 49 152.5t94 105.5q59 41 120.5 64.5t129.5 29.5h12h12h8q3 0 7 2h6h6q51 0 98 -8t93 -25q43 -14 73.5 -35.5t48.5 -46.5q-12 -12 -20 -25.5t-14 -29.5t-12.5 -37.5t-12.5 -46.5v-3q-2 -3 -2 -4v-3v-3v-3q-2 -2 -2 -3v-3l-33 4q-2 4 -5 11t-7 15 q-4 10 -9 19.5t-12 17.5q-14 20 -35.5 38.5t-50.5 35.5q-27 16 -62.5 25.5t-76.5 9.5q-45 0 -85 -18.5t-77 -55.5t-54 -80t-17 -90v-9v-10v-4q0 -2 2 -4v-4v-4q4 -27 17 -54.5t34 -55.5q23 -27 54.5 -50.5t76.5 -44.5l227 -92q61 -29 106.5 -65.5t71.5 -81.5 q29 -45 42.5 -93.5t13.5 -97.5v-11v-9v-4v-4q-2 -4 -2 -7v-4q-8 -82 -46 -155.5t-106 -141.5t-150.5 -100.5t-185.5 -32.5h-3h-4h-3h-4h-4h-8h-9q-4 2 -8 2h-8h-8q-4 0 -8 2q-6 0 -10.5 1t-8.5 1q-39 6 -76.5 17.5t-74.5 25.5q-37 16 -64.5 34t-50.5 36q-2 0 -2 2h-2v2 q-2 0 -2 1v1q8 20 14 39t8 33q2 8 3 15t1 16q2 6 3.5 13t1.5 15v7q0 3 2 8v8v8v16v17l32 4q53 -82 99.5 -129t85.5 -60q39 -14 72.5 -20t64.5 -6q68 0 119 20.5t86 63.5t52 90t19 98q0 41 -11 79t-34 75q-20 37 -54 63.5t-79 42.5l-211 101q-90 39 -142 84t-69 94 q-14 49 -22 100t-8 105v4z" />
<glyph unicode="T" horiz-adv-x="1144" d="M483 0v1323q-18 -4 -42.5 -5t-55.5 -5q-31 -2 -62.5 -5t-64.5 -8q-12 -2 -23.5 -3t-21.5 -3t-21.5 -3t-21.5 -1q-20 -2 -39.5 -5t-38.5 -7q-18 -2 -32.5 -4t-26.5 -4q2 4 3 9t3 9q0 4 1 8t3 11v8v8v4q0 2 2 6v4v4q0 10 -1 19.5t-3 17.5q-2 10 -3 19.5t-5 17.5l1079 4 q-2 -8 -3 -13t-3 -9t-2 -8v-9q-2 -6 -3 -10t-1 -8v-9v-10v-17q0 -9 2 -19q2 -8 5 -17.5t5 -19.5q-72 12 -139.5 21t-128.5 16q-61 6 -107.5 9t-74.5 3v-1319h-10q-5 0 -9 2q-6 0 -11 1t-9 1q-10 2 -21.5 3t-21.5 1h-13q-6 0 -10 -2q-6 0 -12 -1t-13 -1q-12 -2 -24.5 -3 t-24.5 -1z" />
<glyph unicode="U" horiz-adv-x="1597" d="M178 549v870q14 -6 27.5 -9t25.5 -5t25 -2h23h4h4h2h4h8q4 0 8 2h14q7 0 15 2l16 4l17 4v-835q0 -143 29.5 -242.5t91.5 -159.5q61 -59 140 -89t175 -30q121 0 206 33t134 96q49 66 76.5 159t33.5 214v858q6 -4 12.5 -7t12.5 -5t12 -3t13 -1h2h4h4h4h15q7 0 16 2 q8 2 17 5t17 5v-819q0 -143 -33.5 -257t-101.5 -200q-68 -88 -182.5 -130t-277.5 -42h-10h-9h-9h-9q-170 0 -285 43t-174 131q-57 90 -87 190.5t-30 213.5v4z" />
<glyph unicode="V" horiz-adv-x="1370" d="M33 1403q14 -6 27.5 -9t27.5 -5t28 -3h25h13h14q6 0 12 1.5t13 1.5q12 2 24 5t25 5l483 -1157q23 33 48.5 82t53.5 112l59 132l60 145l20 50l19 52q4 12 9 25l12 26q4 12 9 25.5t9 26.5l48 128q24 62 44 125l42 119l36 109l12 -4q6 -2 15 -4q8 -2 15 -3.5t15 -1.5h3h3h5 h3h3h1h3h21q11 0 22 3q4 0 9 1t11 3q4 2 9.5 3t9.5 3l-596 -1399h-4q-2 0 -2 2q-2 0 -4.5 1t-4.5 1q-4 2 -9 3t-9 1h-5q-3 0 -5 -2q-4 0 -6 -1t-7 -1q-6 -2 -12 -3t-12 -1z" />
<glyph unicode="W" horiz-adv-x="2048" d="M451 0l-451 1403q14 -6 27.5 -9t25.5 -5t25 -3h24h25q12 0 25 3q12 2 27.5 5t29.5 5l356 -1174l402 1178q6 -4 12 -7t12 -5t12.5 -3.5t12.5 -1.5h2h4h4h4h16q7 0 15 3q8 2 17 5t18 5l387 -1157l372 1161q4 -4 9 -6l8 -4q4 -2 9 -2h9q4 -2 8.5 -3.5t8.5 -1.5h9h9h20 q9 0 17 3q10 2 19.5 5t17.5 5l-483 -1399h-9q-4 0 -8 2q-6 0 -10 1t-8 1q-8 2 -17.5 3t-19.5 1q-8 0 -17.5 -1t-19.5 -3q-8 -2 -17.5 -3t-19.5 -1l-371 1161l-387 -1161q-6 0 -13 1t-15 3t-18.5 3t-20.5 1t-21.5 -1t-23.5 -3t-24.5 -3t-24.5 -1z" />
<glyph unicode="X" horiz-adv-x="1257" d="M549 709l-436 694q12 -6 25.5 -9t27.5 -5t29 -3h28h16h15q6 0 13 1.5t16 1.5q16 2 29.5 5t25.5 5l324 -529l337 533q4 -4 8.5 -6t10.5 -4q4 0 8 -2t8 -2q8 -2 16 -3h15h17q9 0 18 3q10 2 21.5 5t23.5 5l-436 -625l485 -774q-14 0 -29.5 1t-31.5 3q-14 2 -28.5 3t-29.5 1 q-14 0 -29.5 -1t-31.5 -3q-14 -2 -29.5 -3t-32.5 -1l-356 629l-354 -629h-3h-5h-3h-4q-2 0 -4 2h-6q-4 0 -6 2q-4 0 -7 1t-7 1h-9q-4 0 -6 2h-8h-8q-10 0 -22.5 -1t-24.5 -3t-25.5 -3t-30.5 -1z" />
<glyph unicode="Y" horiz-adv-x="1257" d="M532 596l-499 807q16 -6 33.5 -9t31.5 -5q8 0 15.5 -1.5t15.5 -1.5h13h16h9h9h9q5 0 12 3h19q9 0 17 2l21 4l20 4l388 -674l370 678q10 -6 21.5 -9t21.5 -5t22 -3h21h4h4h2h5h8q4 0 8 3h13q7 0 16 2l16 4l16 4l-23 -33l-22 -33l-23 -33l-22 -32q-12 -16 -23 -34l-22 -34 q-12 -16 -23 -34l-22 -33l-86 -134l-82 -131l-74 -127l-63 -116v-625q-12 0 -23.5 1t-21.5 3t-21.5 3t-21.5 1q-12 0 -24.5 -1t-24.5 -3t-25.5 -3t-30.5 -1v596z" />
<glyph unicode="Z" horiz-adv-x="1257" d="M113 1403h1097v-49l-219 -299l-221 -303l-226 -319l-237 -341h7h5h4h3h1h3q117 0 232 2l229 4q115 4 215 14.5t188 28.5q-2 -12 -5 -22t-5 -21q-2 -8 -2 -17v-18v-5v-7v-3v-1q0 -2 1 -3t1 -3v-5v-5q0 -4 1 -6t1 -7q2 -6 4 -11t4 -7h-1161v63l887 1244l-223.5 -7.5 t-211.5 -7.5q-51 -2 -99 -5t-95 -5q-47 -4 -91 -6t-87 -6q2 6 3 12t3 12t3 12.5t3 12.5v2v4v4v4q0 8 -1 15.5t-3 15.5t-3 17.5t-5 17.5v4z" />
<glyph unicode="[" horiz-adv-x="677" d="M274 -242v1774h338v-64h-209v-1646h209v-64h-338z" />
<glyph unicode="\" horiz-adv-x="1032" d="M823 0l-774 1532q4 -4 9 -7t12 -3q6 -2 12 -3t12 -1q2 0 4 -1t4 -1h2h5h8h8h19q9 0 18 2q10 2 17 5t14 5l774 -1528h-10q-5 0 -9 2q-4 0 -8 1t-8 3h-9h-10h-4q-2 0 -4 2h-4h-4q-8 0 -17.5 -1t-19.5 -3q-8 -2 -17.5 -3t-19.5 -1z" />
<glyph unicode="]" horiz-adv-x="677" d="M63 -162h211v1630h-211v64h340v-1757h-340v63z" />
<glyph unicode="^" horiz-adv-x="1241" d="M80 565l469 838h129l467 -838h-162l-371 660l-370 -660h-162z" />
<glyph unicode="_" horiz-adv-x="1032" d="M0 -225h1016v-97h-1016v97z" />
<glyph unicode="`" horiz-adv-x="677" d="M403 1096l-323 211q-6 2 -12.5 5t-10.5 7t-7 8t-7 8q-2 4 -5 7.5t-3 7.5q-2 4 -2 8v8q-2 14 4 26.5t20 20.5q12 10 27.5 15.5t32.5 7.5h2h4q8 0 15 -1t16 -5q6 -2 12 -7l12 -8l322 -319h-97z" />
<glyph unicode="a" horiz-adv-x="1032" d="M96 225q0 45 14.5 86t43.5 76t79 62.5t121 46.5l258 53q23 2 40.5 11t27.5 24q10 16 15 34.5t5 38.5v8v7q-2 4 -2 8v8q-2 8 -3 16.5t-5 16.5q-10 33 -30.5 63.5t-49.5 57.5q-29 29 -64.5 43t-78.5 14h-3h-5h-4h-4q-25 0 -45.5 -4t-38.5 -12t-37 -18.5t-37 -24.5 q-10 -8 -21 -19l-20 -20l-22 -23q-11 -12 -21 -24l-31 4v112q4 0 10.5 3.5t12.5 5.5l12 8l12 8q29 16 61 30l68 27q37 12 77 19.5t85 7.5q90 0 157.5 -19.5t110.5 -58.5t64.5 -104.5t21.5 -155.5v-512q0 -20 3.5 -31.5t11.5 -17.5t18 -9t23 -3h12q6 0 14 2q8 0 15.5 2 l15.5 4v-43q-10 -12 -21.5 -19.5t-23.5 -11.5q-6 -2 -12 -2t-13 -2q-8 -2 -14 -3t-12 -1h-3q-1 0 -1 -2h-3h-3h-4h-4h-3q-31 0 -59.5 7t-52.5 21q-27 16 -41.5 39t-18.5 50q-6 -6 -11 -10.5t-9 -8.5l-11.5 -8t-9.5 -8q-37 -29 -71.5 -49.5t-69.5 -30.5q-35 -12 -68.5 -18.5 t-64.5 -6.5q-61 0 -111.5 17.5t-91.5 52.5q-39 37 -59.5 83t-20.5 99v4zM694 209v274q-113 -14 -194.5 -32.5t-130.5 -47.5q-49 -27 -75 -65.5t-26 -91.5v-16q0 -7 2 -13q0 -6 1 -13t3 -16v-3q0 -1 2 -3v-3v-3v-3q0 -1 3 -1q0 -2 1 -3l3 -3q10 -18 25.5 -34.5t39.5 -33.5 q25 -14 52.5 -22t60.5 -8q16 0 31.5 2t31.5 6t32.5 11t33.5 17q12 8 25.5 18.5l27.5 22.5l12 13l15 14l12 16l12 17v4z" />
<glyph unicode="b" horiz-adv-x="1144" d="M129 0v1532q10 -6 19.5 -9t21.5 -5q10 -2 23 -2h24h12h13q4 0 10 1t12 1q12 2 24 5l19 5v-737q23 33 59.5 64.5t86.5 62.5q49 31 101 46t108 15q104 0 183 -38t132 -112q53 -76 80.5 -158.5t27.5 -174.5v-6v-7v-5v-7q-4 -92 -34.5 -175t-85.5 -161q-57 -76 -141.5 -118 t-194.5 -50q-43 0 -85 9.5t-83 23.5q-41 18 -80 45t-74 64l-129 -109h-49zM307 467q-2 -10 -2 -16v-13v-12v-10v-4v-2v-4v-5v-5v-7q4 -63 21.5 -123.5t50.5 -113.5t83 -80t120 -27q59 0 113.5 26.5t99.5 82.5q47 53 70.5 135t23.5 190q0 76 -15.5 144.5t-46.5 132.5 q-31 63 -82 95t-122 32h-6h-7h-5h-7q-59 0 -110.5 -32t-94.5 -93q-43 -63 -63.5 -137t-20.5 -158v4z" />
<glyph unicode="c" horiz-adv-x="1032" d="M80 467q0 113 33.5 206t101.5 163q68 72 171 107.5t243 35.5q37 0 68.5 -3t58.5 -9l49 -13q25 -6 49 -16q4 -2 9 -4t11 -4q4 -4 9.5 -6t9.5 -4q10 -6 20.5 -11.5t22.5 -9.5l-33 -141h-33q-25 33 -52 59.5t-60 44.5t-74 27.5t-88 9.5q-78 0 -138.5 -32.5t-101.5 -98.5 q-41 -63 -61.5 -136t-20.5 -151q0 -80 21.5 -152.5t64.5 -138.5t111 -98.5t158 -32.5q47 0 85 8.5t70 22.5q33 16 64 39t61 49q0 2 1 3l3 3q2 0 3 1l4 3l16 -10l-16 -98q-33 -29 -72 -49.5t-80 -30.5q-43 -10 -86 -17.5t-86 -7.5h-3h-3h-3h-3q-94 2 -181.5 32t-164.5 89 q-80 59 -119 146.5t-39 199.5v4v4v3v1v3v3v3v4z" />
<glyph unicode="d" horiz-adv-x="1144" d="M63 436q0 131 30 233.5t87 176.5q59 74 143.5 111.5t192.5 37.5h4h6q2 -2 5 -2h6h9h11q41 -6 81 -18t77 -33q37 -20 61.5 -42.5t36.5 -45.5q4 -4 5 -9t3 -9v-5q0 -2 2 -4v-4v-4v729q10 -6 21.5 -9t21.5 -5t22 -2h21h22q11 0 21 2t22.5 5t24.5 5v-1544q-8 0 -17 1t-19 3 t-21.5 3t-21.5 1h-13q-6 0 -10 -2q-6 0 -12 -1t-13 -1q-12 -2 -24 -3t-25 -1v178q-33 -47 -66.5 -79.5t-68.5 -55.5q-37 -23 -72.5 -36t-70.5 -19h-8q-4 0 -9 -2h-7h-7h-8q-4 0 -6 -2h-7h-8q-82 0 -155.5 29.5t-139.5 92.5q-63 66 -95 143t-32 165v4v4v3v3v1v3v4zM258 467 q0 -82 11.5 -141.5t33.5 -100.5q23 -41 49.5 -70.5t53.5 -45.5q8 -4 15 -8.5t15 -8.5q6 -4 13.5 -6l15.5 -4q16 -2 28.5 -4t22.5 -2h3h3h2h4q0 -2 1 -2h3h4h3q57 0 106 26.5t92 77.5q43 53 64.5 128t21.5 173q0 16 -1 37t-3 41q-2 23 -5 45.5t-7 46.5q-10 47 -29.5 90 t-48.5 82q-27 39 -71 58.5t-103 19.5h-3h-3h-3h-5h-2h-3h-4q-63 -4 -110 -25.5t-76 -62.5q-27 -39 -45 -83t-29 -91q-6 -25 -9 -47.5t-3 -44.5q-2 -23 -2 -43v-39v4z" />
<glyph unicode="e" horiz-adv-x="1032" d="M63 451q0 131 34 230t104 165t152.5 99.5t178.5 33.5q86 0 154 -21.5t113 -62.5q47 -43 79.5 -89t51.5 -97l12 -42q6 -22 8 -44q4 -20 6 -40t2 -36v-10v-11q-2 -4 -2 -8v-8q0 -8 -1 -16.5t-3 -14.5l-694 4q0 -94 18.5 -167.5t55.5 -129.5q37 -55 107.5 -82.5t172.5 -27.5 q41 0 82 8t80 27q41 16 73 39.5t56 54.5l17 -109l-4 -6l-1 -2h-1l-3 -2q-2 -2 -5 -4t-7 -4q-2 -2 -5 -4t-7 -4l-67 -39t-70 -31q-37 -16 -87.5 -24.5t-113.5 -8.5q-127 6 -218 44t-147 110q-55 72 -84.5 153.5t-36.5 171.5v5zM791 565v7v12v6v6q-2 2 -3 5v5q-2 55 -17 105.5 t-44 95.5q-27 47 -75 69.5t-120 22.5q-53 0 -96 -19.5t-76 -56.5q-33 -39 -55 -80t-35 -88q-2 -12 -5 -24.5t-5 -24.5t-2 -23v-22z" />
<glyph unicode="f" d="M178 0v887h-145q2 -2 3 1t3 7t3 8t3 10v5v4v6q0 2 -2 6q0 2 -1 5t-1 5q-2 6 -3 11.5t-5 7.5l145 4q23 160 59.5 270.5t92.5 171.5q55 61 114.5 92t122.5 33h8h9q2 -2 6 -2h8q8 0 15.5 -1t15.5 -3q-6 -25 -10.5 -46.5t-4.5 -39.5q-2 -20 -2 -39v-37l-16 -12q-12 2 -24.5 7 t-24.5 11q-14 4 -29.5 7t-34.5 3q-51 0 -83.5 -16t-49.5 -49q-16 -33 -24.5 -70t-8.5 -78v-4v-2v-4v-4v-4v-2v-4v-4q0 -14 1 -28.5t4 -29.5l4 -28l4 -27q0 -8 1 -17.5t3 -17.5q0 -8 1 -16t3 -14l227 4l-3 -6q-1 -2 -3 -3q-2 -2 -3 -4t-1 -4q-2 -4 -2 -9v-9v-12q0 -6 2 -13 q2 -6 5 -12t5 -12l-227 4v-887h-8q-4 0 -8 2q-6 0 -10.5 1t-8.5 1q-8 2 -17.5 3t-19.5 1t-21.5 -1t-21.5 -3t-21.5 -3t-23.5 -1z" />
<glyph unicode="g" horiz-adv-x="1032" d="M96 709q10 68 40 116.5t75 79.5q47 31 97 48.5t104 23.5h7h7h6h6h7q3 0 8 2h6h8q47 0 79 -1t50 -3t32.5 -3t22.5 -3h2q0 -2 1 -2h2h3q8 -2 17.5 -3t21.5 -3t33 -3h49h36h42q23 0 49.5 1.5l59.5 3.5v-76l-242 16q31 -23 56.5 -51.5t45.5 -67.5q23 -39 33 -78.5t10 -80.5 q-8 -82 -34.5 -138.5t-69.5 -85.5q-43 -31 -89 -49t-95 -24l-37 -4q-18 -2 -37 -2h-18h-19q-8 -2 -16 -3h-17q-27 0 -51.5 -1t-44.5 -5q-20 -2 -33.5 -9t-17.5 -17q-4 -8 -7 -15.5t-5 -13.5q-2 -8 -3 -14v-11q-2 -31 16.5 -51t55.5 -30t77 -16.5t83 -8.5h7h7h6h7h12h12h15 h16h13h15h17q8 0 16 2h16h13q14 0 25.5 -1t19.5 -3q59 -12 105.5 -32.5t76.5 -49.5q31 -29 50.5 -75t25.5 -113v-1v-4v-3v-3v-4v-3v-3q0 -10 -1 -19.5t-3 -17.5q0 -4 -1 -9t-1 -11q-2 -4 -3 -9.5t-1 -9.5q-18 -57 -59.5 -109t-106.5 -102q-63 -47 -149.5 -71.5t-190.5 -24.5 q-90 0 -164 21.5t-129 64.5t-83 94.5t-28 110.5q0 61 12.5 107.5t39.5 78.5q25 33 64.5 53.5t94.5 30.5q-31 12 -55 27.5t-41 34.5q-16 18 -24.5 43.5t-8.5 56.5q0 25 4.5 45.5t12.5 34.5q8 16 20.5 29.5t28.5 27.5l17.5 12.5l17.5 12.5q10 6 21 14l24 17q-68 20 -108 48.5 t-56 67.5q-14 39 -22.5 79t-8.5 81v9v10v8v8v7v5v4v4v2v5v4zM193 -225q0 -10 1 -19.5t3 -19.5t5 -20.5t7 -20.5q12 -29 36.5 -56.5t57.5 -54.5q35 -25 84 -38t113 -13q12 0 24.5 1t26.5 3q12 2 26.5 3t28.5 5q41 10 79 28.5t71 43.5q35 27 51 61.5t16 79.5v12v9v9v9 q-2 39 -17 74t-40 66q-27 33 -85 48t-149 15q-68 0 -125 -10t-106 -31q-49 -20 -75.5 -66t-32.5 -118zM258 629q0 -57 15.5 -101.5t45.5 -78.5q31 -33 68 -49.5t80 -16.5q4 -2 7 -2h5h7h6h4h4h4q37 4 71.5 21.5t67.5 50.5q33 35 49.5 81t16.5 107q0 66 -16.5 117t-49.5 86 t-73 53t-87 18q-49 -4 -85 -19t-58 -42q-25 -27 -40 -55.5t-26 -59.5q-6 -14 -9 -29.5t-5 -31.5q-2 -14 -2 -28v-25v4z" />
<glyph unicode="h" horiz-adv-x="1144" d="M145 0v1565q2 -4 4.5 -5t4.5 -1q0 -2 2 -3h4q4 -2 8 -2h8l15.5 -4t15.5 -2h15h16h21q11 0 22 2q10 2 21 5l20 6v-738q2 -2 3 0t3 4q0 2 1 3l3 4l1 1l3 3q4 4 7 8t7 10q4 4 8 9t9 12q18 25 45.5 48t62.5 44q35 23 89 33t130 10q66 0 121 -27t98 -80t64.5 -119.5 t21.5 -144.5v-641q-12 0 -23 1t-22 3q-10 2 -20 3t-21 1q-10 0 -21 -1t-22 -3q-6 0 -12 -1t-10 -1q-6 -2 -12 -2h-13v629q0 63 -18.5 113.5t-54.5 82.5q-37 35 -77 52.5t-85 17.5h-5h-8h-3h-1h-3h-3q-45 -6 -87 -28.5t-81 -63.5q-39 -39 -57 -100.5t-18 -141.5v-561 q-8 0 -17.5 1t-19.5 3t-21.5 3t-21.5 1h-13q-6 0 -10 -2q-6 0 -12 -1t-12 -1q-12 -2 -25 -3t-25 -1z" />
<glyph unicode="i" d="M178 0v999q2 -4 4 -5t4 -1q0 -2 2 -2h5q4 -2 8 -2h8q8 -2 15 -4t16 -2h15h15h22q11 0 21 2t22 5l19 5v-995q-8 0 -17 1t-20 3q-10 2 -21 3t-22 1h-12q-6 0 -10 -2q-6 0 -12.5 -1t-12.5 -1q-12 -2 -24.5 -3t-24.5 -1zM162 1354q0 27 8 47t25 35q16 14 34.5 21t38.5 7 q23 0 43.5 -7t38.5 -21t27.5 -36t9.5 -50q-2 -29 -13.5 -50.5t-27.5 -35.5t-34.5 -21.5t-39.5 -7.5q-20 0 -39.5 7t-35.5 22q-18 16 -26.5 37.5t-8.5 48.5v4z" />
<glyph unicode="j" d="M209 -80v1063q10 -6 19.5 -9t19.5 -5t20 -2h21h21q11 0 22 2q4 0 9 1t11 3q4 2 9.5 3t9.5 3v-1124q0 -80 -24.5 -147.5t-72.5 -123.5q-47 -53 -100 -80.5t-113 -27.5h-8h-6q-4 2 -8 2h-8q-8 2 -15.5 3t-15.5 3v65q4 -4 9 -5t11 -3h7q2 0 6 -2h5h5q31 0 59.5 22.5 t55.5 69.5q25 45 38 118t13 171zM178 1354q4 20 13.5 37.5t25.5 31.5q16 12 34.5 19.5t39.5 7.5h2h1h3q18 -2 35.5 -9t32.5 -22q16 -14 26 -34.5t12 -49.5q-6 -27 -16 -48t-27 -34q-16 -14 -33.5 -20t-35.5 -6q-20 0 -41 8t-37 25q-18 16 -26.5 38.5t-8.5 51.5v4z" />
<glyph unicode="k" horiz-adv-x="1032" d="M145 0v1581q6 -4 15.5 -7t17.5 -5q10 -2 19.5 -3t17.5 -1h4h4h4h4h13h12q4 0 10 1t13 1q12 2 23 5l20 5v-981v-6v-2v-2v-9q0 -3 2 -8q2 -2 5 -3t7 -1q14 0 38.5 15.5t61.5 48.5l74 67q39 37 80 80q4 4 8 9.5l8 11.5l9 9l12 11l23 25l22 24l21 23l22 24q23 23 41 43l35 39 l12 -4q6 -2 14 -4t15.5 -3t15.5 -1h3h3h1h3h3h3h4h22q11 0 21 2t22 5l19 5v-12l-436 -403l467 -547v-33h-12q-6 0 -13 2h-5q-3 0 -5 2q-4 0 -6 1t-6 1h-12h-13h-5q-3 0 -5 2h-6h-6q-12 0 -24.5 -1t-24.5 -3t-24.5 -3t-24.5 -1q-16 14 -32 31l-32 35l-30 36l-31 37l-108 129 l-95 119q-45 55 -76 84t-47 31q-4 0 -7 -2t-7 -6q-2 -4 -3 -12.5t-1 -18.5v-463q-8 0 -17.5 1t-19.5 3t-21.5 3t-21.5 1h-13q-6 0 -10 -2q-6 0 -12 -1t-12 -1q-12 -2 -25 -3t-25 -1z" />
<glyph unicode="l" d="M193 0v1581q12 -6 23 -9t22 -5q10 -2 21 -2h22h21q11 0 22 2q10 2 22 5t25 5v-1577h-10q-5 0 -9 2q-6 0 -11 1t-9 1q-10 2 -21.5 3t-21.5 1h-13q-6 0 -10 -2q-6 0 -12 -1t-12 -1q-12 -2 -24.5 -3t-24.5 -1z" />
<glyph unicode="m" horiz-adv-x="1710" d="M129 0v999q4 -4 7 -6t5 -2q4 -2 7 -2h6l12 -4q6 -2 12 -2h12h13h20q10 0 21 2q10 2 22.5 5t24.5 5v-157l5 5q3 3 5 7q4 4 7 8t5 8q20 27 48 51.5t63 47.5t74 35t82 12q53 0 94 -6.5t71 -16.5q31 -10 60 -33.5t55 -58.5q6 -8 13 -19l16 -24q6 -12 14 -24.5l17 -26.5 q23 53 56.5 93t78.5 65t91 38t95 13q78 0 138.5 -22.5t105.5 -69.5q45 -45 69.5 -95.5t28.5 -105.5v-4v-4v-4v-5v-4v-4v-3v-3q-2 -2 -2 -4v-4v-3v-3v-674h-9q-5 0 -9 2q-6 0 -11.5 1t-9.5 1q-10 2 -21.5 3t-21.5 1h-12q-6 0 -10 -2q-6 0 -12.5 -1t-12.5 -1q-12 -2 -24.5 -3 t-24.5 -1v662q0 51 -18.5 94t-53.5 75q-35 31 -74.5 47.5t-82.5 16.5h-4h-1h-2q-41 -2 -78.5 -18.5t-72.5 -49.5t-55.5 -83t-24.5 -119v-625h-9q-5 0 -9 2q-6 0 -11.5 1t-9.5 1q-8 2 -19.5 3t-21.5 1t-21.5 -1t-21.5 -3t-19.5 -3t-19.5 -1v662q0 49 -18.5 90t-55.5 71 q-37 31 -76.5 47.5t-82.5 18.5h-3h-3q-41 0 -80 -15.5t-74 -46.5t-53.5 -81t-20.5 -121v-625h-9q-5 0 -9 2q-6 0 -11.5 1t-9.5 1q-10 2 -21 3t-22 1h-12q-6 0 -10 -2q-6 0 -12.5 -1t-12.5 -1q-12 -2 -24.5 -3t-24.5 -1z" />
<glyph unicode="n" horiz-adv-x="1144" d="M162 0v999q6 -4 15 -7t18 -5q10 -2 19 -3t17 -1h5h4h4h4h12h12q4 0 10.5 1t12.5 1q12 2 23 5l20 5v-172q6 4 12 13.5t15 19.5l17 21l19 22q20 20 47 38.5t60 37.5q33 18 76 27.5t94 9.5h2h4q59 -2 113.5 -26.5t103.5 -72.5q49 -47 73.5 -126.5t24.5 -194.5v-592h-8 q-4 0 -8 2q-6 0 -10 1t-8 1t-9.5 1t-9.5 1q-6 2 -11 2h-9q-10 0 -22.5 -1t-24.5 -3t-25.5 -3t-30.5 -1v596q0 70 -18.5 124t-52.5 91q-37 37 -77 55.5t-83 18.5h-3h-3h-3h-3q-45 -2 -87 -24.5t-79 -63.5q-39 -39 -57.5 -98.5t-18.5 -137.5v-561q-12 0 -23.5 1t-21.5 3 t-20.5 3t-20.5 1t-21.5 -1t-21.5 -3q-6 0 -12.5 -1t-10.5 -1q-6 -2 -12 -2h-12z" />
<glyph unicode="o" horiz-adv-x="1144" d="M49 451q0 119 36 217t108 174q72 78 169 115.5t218 37.5q90 0 160.5 -22.5t121.5 -65.5q49 -43 86 -90t62 -100q16 -35 26.5 -69t16.5 -66q6 -33 9 -58.5t3 -44.5q0 -18 -1 -37.5t-5 -40.5q-2 -20 -7 -39.5t-12 -39.5q-20 -63 -59 -123t-96 -113q-57 -51 -138 -76.5 t-184 -25.5h-8h-8h-4h-2h-4h-5q-115 0 -203.5 32.5t-152.5 100.5q-63 68 -95 150.5t-32 178.5v5zM242 436q0 -16 2 -36.5t4 -45.5q4 -25 10 -50t18 -54q14 -37 37 -72t56 -65q31 -31 77 -47.5t103 -20.5q66 0 121 26.5t100 82.5q43 53 68.5 135t31.5 190q0 96 -18 175 t-55 141q-37 59 -95.5 89.5t-136.5 30.5q-76 0 -135 -31.5t-100 -97.5q-41 -63 -63.5 -133.5t-26.5 -148.5v-8v-9v-5v-7v-5v-5v-6v-6v-12q0 -5 2 -9v4z" />
<glyph unicode="p" horiz-adv-x="1144" d="M129 983q10 -6 19.5 -9t19.5 -5t20 -2h21h21q11 0 22 2q4 0 9 1t11 3q4 2 9.5 3t9.5 3v-205q18 51 47 91t68 65q37 25 76.5 40t80.5 21h8q4 0 9 2h8h8h8q4 0 8 2h9h8q90 0 165.5 -29.5t135.5 -88.5q59 -59 89 -159t30 -239q0 -94 -26 -179t-79 -163q-51 -78 -131 -115.5 t-188 -37.5h-4h-5h-3h-3h-4h-4h-3h-3q-66 0 -116 13t-85 44q-35 29 -61.5 62.5t-42.5 70.5v-706q-4 2 -9.5 3t-9.5 3q-6 2 -11 3t-9 1q-8 2 -20 2h-21h-22q-11 0 -21 -2t-19.5 -5t-19.5 -5v1515zM291 516v-7v-5v-4v-4v-38q0 -22 2 -46q0 -27 4 -52.5t12 -54.5 q10 -39 29.5 -73.5t48.5 -69.5q29 -33 73 -54.5t105 -31.5h3h3h4h5q0 -2 2 -2h4h3h3q59 0 107.5 26.5t82.5 77.5q35 53 53.5 128t18.5 173v16v15v8v8q-2 4 -2 9v8q-2 70 -17.5 134t-39.5 122q-27 59 -74 87.5t-119 28.5h-3h-3h-3h-1h-4h-2h-3h-3q-53 0 -98.5 -22.5 t-82.5 -69.5q-37 -45 -64.5 -123.5t-43.5 -187.5v4z" />
<glyph unicode="q" horiz-adv-x="1144" d="M63 483q6 125 36 218.5t83 154.5t129 92t172 31q59 0 107.5 -13.5t87.5 -39.5q41 -27 71.5 -56.5t51.5 -62.5q4 -4 7 -9t5 -10q2 -2 3 -5t3 -5q0 -2 1 -4t3 -4v213q6 -4 15.5 -7t17.5 -5q10 -2 19.5 -3t17.5 -1h4h4h4h4h13h12q4 0 10 1t12 1q12 2 24 5l19 5v-1528 q-8 2 -17 5t-19 5t-22 2h-21h-13h-10q-6 0 -12 -1t-13 -1q-12 -2 -24 -5t-25 -5v694q-2 -6 -4 -10l-4 -8q-4 -6 -6 -10l-4 -8l-12 -17q-6 -8 -15 -16q-18 -20 -44.5 -41t-61.5 -35q-35 -16 -82 -24.5t-107 -8.5h-3h-3q-78 2 -148.5 31t-135.5 88q-63 59 -96.5 157.5 t-33.5 235.5v4zM242 483q0 -20 1 -39.5t3 -42.5l4 -21l4 -22q2 -12 5 -23t5 -22q12 -49 35 -92t55 -84q31 -39 76 -58.5t102 -19.5q68 0 118 23.5t83 71.5q33 47 53.5 99t28.5 109q2 12 3 24.5t3 25.5v12q0 6 2 14v13v12q0 16 -1 37.5t-5 48.5q-2 29 -7 56.5t-15 56.5 q-14 45 -37 85.5t-53 77.5q-33 37 -80 55.5t-109 18.5q-68 0 -120 -28.5t-87 -86.5q-35 -57 -52 -121.5t-17 -136.5v-5v-7v-5v-5v-5v-7v-4q0 -1 2 -3v-3v-3v4z" />
<glyph unicode="r" horiz-adv-x="677" d="M162 0v983q6 -4 12 -7t14 -5t15.5 -3t15.5 -1h3h3h4h3h4h1h3h21q11 0 22 2q4 0 9 1t11 3q4 2 9 3t10 3v-188q23 41 53.5 77.5t66.5 67.5q37 31 79 46t91 15h9h8h4h4q2 -2 4 -2h4l-16 -188q-14 4 -29.5 10t-30.5 8q-14 4 -26 6l-25 5q-39 0 -68.5 -13.5t-52.5 -42.5 q-23 -27 -38 -57.5t-25 -63.5q-2 -12 -5 -23t-5 -22q-2 -10 -2 -19v-20v-575h-14q-7 0 -15 2t-15.5 3t-13.5 3h-5h-7h-4h-4q-10 0 -21.5 -1t-21.5 -3t-19.5 -3t-19.5 -1z" />
<glyph unicode="s" horiz-adv-x="790" d="M96 694q0 78 27 137.5t82 96.5t115.5 55t125.5 21q16 0 31 -1.5t31 -3.5l30 -4q15 -2 29 -6q29 -8 56.5 -18t54.5 -23l-49 -157h-33q-8 29 -25.5 52t-42.5 40q-25 16 -50 24t-54 11h-3h-1h-3h-1q-31 0 -58.5 -8.5t-52.5 -24.5q-27 -16 -42 -41t-21 -58v-3q-2 -3 -2 -4v-5 v-4q-2 -2 -2 -5v-5v-4v-4q0 -37 15 -66t46 -47t65.5 -34.5t73.5 -29.5q4 -2 7.5 -3t7.5 -1q2 -2 6 -3t8 -3q8 -2 15 -4t16 -4l8 -4l8 -4q4 -2 9 -3t9 -1q55 -20 94.5 -47t63.5 -62q25 -33 37 -67.5t14 -69.5v-3v-3v-3v-3q-2 -57 -30.5 -110.5t-81.5 -100.5 q-51 -47 -115.5 -69.5t-142.5 -22.5q-43 0 -83 4t-81 12q-39 4 -71 19.5t-56 39.5l49 150h33q16 -31 33.5 -53.5t35.5 -38.5t38 -28.5t40 -18.5q8 -2 16.5 -5.5t16.5 -5.5t16 -2h17h11q33 0 61 11q34 12 65 38q29 27 46 55.5t22 59.5v4v4v4v5q-4 47 -22.5 78.5t-51.5 48.5 q-33 16 -68 29.5t-73 25.5h-5q-2 0 -4 2h-3q-1 0 -1 2h-3h-3q-4 2 -9 3t-9 3q-4 0 -9.5 1t-9.5 3t-8 3t-8 3q-6 2 -10 3t-9 3q-37 12 -67.5 33t-56.5 47q-27 29 -40.5 69t-13.5 95v4z" />
<glyph unicode="t" d="M129 242v661h-129q4 0 5 3t3 7t3 9.5t1 9.5t-1 10t-3 12t-3 12.5t-5 12.5l129 4v195l162 63v-258h225q-2 -8 -5 -14l-5 -11q-2 -4 -2 -9v-9v-9q0 -5 2 -9q0 -2 1 -5.5t3 -5.5l3 -6l3 -6l-225 4v-532v-30v-30q0 -14 1 -28.5t3 -28.5q4 -39 12 -75t23 -66 q14 -33 41.5 -49.5t66.5 -16.5q10 0 22.5 2t26.5 4q14 4 29.5 9.5t32.5 13.5v-60q-27 -14 -53 -20l-52 -12q-25 -6 -46 -9.5t-42 -3.5q-57 0 -99 17.5t-71 52.5t-43 84t-14 113v4z" />
<glyph unicode="u" horiz-adv-x="1144" d="M129 354v629q10 -6 19.5 -9t21.5 -5q10 -2 23 -2h24h12h13q4 0 10 1t12 1q12 2 24 5l19 5v-576q0 -66 14.5 -123t40.5 -106q29 -49 73 -74.5t104 -25.5h3h3h4q2 0 4 2h2h4h3h3q59 4 100.5 25.5t65.5 58.5q25 37 39 78t18 86v4q0 2 3 6v5v5v6v6v5v6v616q2 -4 4 -5t4 -1 q0 -2 2 -2h4q4 -2 8 -2h8l15.5 -4t15.5 -2h15h16h21q11 0 22 2q10 2 21 5l20 5v-979q-8 0 -17.5 1t-19.5 3t-21.5 3t-21.5 1h-13q-6 0 -10 -2q-6 0 -12 -1t-12 -1q-12 -2 -24.5 -3t-24.5 -1v145q-25 -51 -60 -83.5t-82 -49.5q-45 -12 -95 -20t-103 -8q-78 0 -133.5 16 t-90.5 51q-33 35 -53 73t-31 81q-2 10 -5 19t-3 20q-2 8 -3 18t-1 19q-2 18 -2 36v33v4z" />
<glyph unicode="v" horiz-adv-x="1032" d="M16 983h209q10 -39 24 -80l27 -86l17 -45l16 -45q8 -25 17.5 -47.5t17.5 -44.5q8 -20 15.5 -41t15.5 -41l16 -41q8 -20 17 -39l32 -76l33 -71l31 -66q14 -31 28 -55l28 52q15 30 30 67l33 73l34 80l5 12l4 13l5 10q3 6 5 12q4 12 9 24.5t9 24.5l47 123l43 117l33.5 98 t20.5 68l145 4l-50 -111l-46 -104l-44 -102l-44 -101l-19.5 -45l-19.5 -45q-4 -10 -9.5 -21.5t-9.5 -21.5q-4 -12 -9 -23.5l-9 -21.5l-38 -95l-40 -97l-40 -99l-40 -96h-12q-6 0 -12 2t-12.5 3t-12.5 3h-4h-4h-3h-3q-8 0 -17.5 -1t-19.5 -3q-8 -2 -15.5 -3t-13.5 -1z" />
<glyph unicode="w" horiz-adv-x="1597" d="M371 0q-12 35 -24.5 76t-27.5 84l-15 44l-13 42l-16 44l-15 44l-12 34l-12 33l-13 34l-12 34l-58 154l-57 143l-47 121q-20 53 -33 92q2 0 4.5 -1t4.5 -1q0 -2 2 -2h4q4 -2 8 -2h8l15.5 -4t15.5 -2h15h16h21q11 0 22 2q10 2 21 5l20 5q4 -10 7 -21.5t5 -21.5q2 -6 4 -11 l4 -10q0 -6 2 -11t4 -11l56 -169l55 -163l58 -163q30 -81 63 -160q16 12 36.5 51t44.5 102l51 137l52 148q0 4 1 7t3 5q0 4 1 7t3 5l12 37q6 18 15 37q6 16 12 35l12 37q6 18 12.5 34.5t12.5 34.5q4 16 10 33t12 31q6 -2 12.5 -5t14.5 -5q6 -2 13 -2h16h15q7 0 15 2 q4 0 7.5 1t7.5 3q2 2 6 3t6 3q6 -29 14 -58l17 -61l8 -30l8 -29q4 -16 9 -30.5t10 -31.5l45 -142q23 -71 47 -138l49 -127.5t51 -110.5q6 18 21 54l34 90l45 110l48 119q2 4 3 7t3 7t3 8.5t3 8.5q23 51 41 100l37 98q18 47 31.5 86t21.5 70q12 -2 23 -5l20 -5q4 0 8 -1 t10 -1h9h8h3h3h4h7q3 0 5 2h9q5 0 12 2l12 4l12 4q-61 -121 -116 -243l-107 -242l-100 -246l-97 -248h-6q-4 0 -6 2q-4 0 -7 1t-7 1q-8 2 -15.5 3t-15.5 1h-8q-4 0 -8 -2q-6 0 -10.5 -1t-8.5 -1q-8 -2 -17 -3t-20 -1l-13 57q-7 31 -17 64q-8 35 -17.5 68.5l-19.5 66.5 l-12 34l-13 36q-6 16 -11 33.5t-9 33.5l-32 94q-15 45 -32 88l-26 79l-23 67l-31.5 -62.5t-33.5 -78.5l-18 -43l-17 -45q-10 -25 -18.5 -48.5t-18.5 -48.5l-12 -36l-13 -33l-12 -34l-12 -34l-23.5 -66.5t-21.5 -68.5l-22.5 -64.5t-20.5 -58.5h-6q-4 0 -7 2q-4 0 -7 1t-7 1 q-8 2 -15 3t-16 1h-8q-4 0 -8 -2q-6 0 -10 -1t-8 -1q-8 -2 -17.5 -3t-19.5 -1z" />
<glyph unicode="x" horiz-adv-x="1032" d="M436 483l-387 500q10 -4 19.5 -7t17.5 -5q10 -2 19 -2h18q4 -2 9 -2h9h10h9h27q13 0 28 2q14 2 29.5 5t29.5 5q16 -37 35 -71t39 -66l44 -64l44 -61q4 -6 9.5 -12.5t11.5 -12.5q4 -8 9 -14t9 -12l21 -28l20 -26q0 -2 1 -3t3 -1q0 -2 1 -3l3 -3q0 -2 1 -3t3 -1q0 -2 1 -3 l3 -3l291 391q6 -4 12.5 -7t14.5 -5t15 -3t16 -1h3h3h1h3h3h3h4h22q11 0 21 2q4 0 9 1t12 3q4 2 9 3t9 3l-33 -34l-32 -36l-16.5 -17l-16.5 -18l-19 -18q-8 -8 -16 -18q-6 -8 -13.5 -16.5t-13.5 -14.5q-8 -8 -15 -16.5t-13 -16.5l-28 -32l-26 -31l-39 -48l-36 -47l-36 -44 l-34 -44l371 -495v-33h-13q-6 0 -12 2h-5q-3 0 -5 2q-4 0 -6 1t-6 1h-13h-12h-5q-3 0 -5 2h-6h-7q-12 0 -24 -1t-25 -3q-12 -2 -24.5 -3t-24.5 -1l-25 36l-28 40l-28 44q-13 22 -27 42l-20 25l-19 28q-4 6 -9.5 12t-9.5 15q-6 6 -11 13l-9 13q-14 16 -28 34l-25 34 q-14 16 -26.5 32.5t-25.5 30.5l-290 -399q-6 0 -12.5 1t-14.5 3t-15.5 3t-15.5 1h-8q-4 0 -8 -2q-6 0 -10.5 -1t-8.5 -1q-8 -2 -17 -3t-20 -1v33z" />
<glyph unicode="y" horiz-adv-x="1032" d="M33 983q14 -6 28.5 -9t28.5 -5q16 -2 30 -2h27h27q12 0 25 2q12 2 23 5l20 5q8 -27 24 -73l41 -111l52 -132l59 -141q2 -4 4 -9t4 -9q0 -4 2 -9.5t4 -9.5q4 -8 8 -17t9 -19l12 -30q6 -15 14 -32l12 -30l13 -29l24 -56l25 -51q12 23 24 49l27 58l27 60l28 65q4 10 9.5 21 t9.5 24q4 10 9 21l11 24l56 137q27 66 49 129q23 61 37 104t18 66q10 -2 19.5 -5t17.5 -5q4 0 8 -1t10 -1h9h8h19q9 0 18 2q10 2 19 5t17 5l-677 -1511q-6 2 -12.5 5t-14.5 5t-15 2h-16h-19q-11 0 -22 -2q-10 -2 -21.5 -5t-23.5 -5l273 548z" />
<glyph unicode="z" horiz-adv-x="1032" d="M145 967h807v-31l-645 -856q31 -3 64 -3h17q42 1 87 3t91 5t93 5q16 0 33 1t35 3q16 0 32.5 1t33.5 3q33 2 64.5 5l62.5 6l-5 -13q-2 -6 -2 -10q-2 -6 -2 -11v-9v-12v-9q0 -4 1 -8t3 -8v-4v-5v-3q0 -1 3 -1v-3v-4q0 -1 2 -1v-3v-4l-871 -1v49q16 16 34 36l36 40l16 20 l19 23l17 20.5l17 20.5l34 41l36 41q16 23 34 44l34 42l32 44q16 22 35 42l33 44l33 42l61 83l62 85l57 83l55 83q-37 -2 -72.5 -5.5t-70.5 -5.5t-68.5 -3t-68.5 -3t-69 -3t-69 -3q-16 -2 -32.5 -3t-32.5 -1q-16 -2 -32.5 -3t-33.5 -3q0 2 1 4t4 4v1q0 1 2 3v1v3q2 4 3 8.5 t1 8.5v4q0 2 2 4v4v4q0 6 -1 13.5t-3 15.5t-3 17t-6 18v4z" />
<glyph unicode="{" horiz-adv-x="677" d="M113 645q59 20 95 47t46 60q10 31 15 80t5 116v342q0 59 17.5 103.5t52.5 70.5q35 27 73 42.5t79 21.5h8q4 0 8 2h6h8h9q4 0 8 2h6h8h9h9q4 -2 10 -2h9h8h10q4 -2 9 -2h8h-1l-3 -2h-2q-41 -12 -74 -28.5t-55 -35.5q-25 -18 -39.5 -54t-18.5 -89v-383v-9v-7v-6v-5 q0 -39 -5 -74.5t-15 -70.5q-8 -33 -44 -63.5t-98 -59.5q41 -12 72 -31.5t51 -48.5q18 -27 28.5 -67.5t10.5 -94.5v-350q0 -66 8.5 -113t26.5 -73q18 -27 57 -48.5t101 -39.5q-8 -2 -15.5 -3t-17.5 -1h-9q-5 0 -9 -2h-10h-11h-11h-9q-6 2 -12 2h-11q-12 2 -23.5 3t-21.5 5 q-37 8 -70.5 24.5t-64.5 44.5q-31 27 -45.5 71t-14.5 101v8v5v7v5v342q0 51 -8 95t-24 77q-16 35 -49 55.5t-80 26.5v4z" />
<glyph unicode="|" horiz-adv-x="677" d="M258 0v1516h129v-1516h-129z" />
<glyph unicode="}" horiz-adv-x="677" d="M420 645q-55 12 -88 32.5t-43 47.5t-16.5 58.5t-8.5 70.5q-2 10 -3 19.5t-1 17.5v9v11q-2 4 -2 10v11v325q0 63 -11 108.5t-34 68.5t-49.5 41t-57.5 32q-2 0 -5 1t-5 3q-4 0 -6 1l-6 4q-6 4 -11 7t-10 5q109 0 181.5 -19.5t105.5 -58.5q35 -39 52.5 -88t17.5 -109v-366 v-26v-21v-13q0 -6 2 -10q0 -6 1 -12t3 -12q4 -23 13.5 -44.5t23.5 -41.5q16 -20 40.5 -37t61.5 -29q-49 -18 -78.5 -42t-42.5 -52q-12 -27 -18 -56.5t-6 -58.5v-369q0 -72 -15.5 -126t-46.5 -91t-87 -55t-136 -18h-15h-14h-6h-6q-4 2 -7 2h-7q53 12 89 36.5t54 59.5 q16 37 25.5 84t9.5 104v312q0 63 9 110t30 76q18 29 49 50.5t74 33.5v4z" />
<glyph unicode="~" horiz-adv-x="1241" d="M96 420l12 17q7 11 15 26q8 16 18.5 31.5t22.5 31.5q18 25 42.5 47.5t51.5 42.5q29 20 60.5 30.5t68.5 10.5q33 0 64.5 -6t62.5 -16q16 -6 30.5 -12.5t28.5 -10.5l31 -12l29 -12l56.5 -26.5t53.5 -22.5q29 -12 54.5 -17.5t52.5 -5.5q29 0 56.5 9.5t54.5 27.5t52 52t52 85 l80 -94q-23 -49 -53.5 -89t-67.5 -71q-39 -33 -78 -49t-80 -20h-3h-3h-3h-3q-33 0 -62.5 5t-58.5 15l-53 22q-27 11 -51 25h-4q-2 0 -4 2q-2 0 -4 1l-3 3l-49 24l-49 21q-27 10 -54.5 17.5t-58.5 9.5q-33 0 -60.5 -7t-45.5 -24q-20 -14 -35.5 -31.5t-28.5 -35.5l-12 -17 q-6 -8 -10 -16l-8 -15.5t-8 -13.5l-4 -3l-1 -1l-3 -3q-1 -1 -1 -3l-4 -4l-4 -4z" />
<glyph unicode="&#xa0;" />
<glyph unicode="&#xa1;" horiz-adv-x="677" d="M225 -242l82 904h47l82 -871v-9v-11v-5q0 -3 2 -6v-7v-5v-9v-11v-8q0 -3 2 -5v-7v-5q0 -23 -4 -44t-14 -40q-8 -18 -29.5 -28.5t-54.5 -10.5q-37 0 -59.5 13.5t-32.5 39.5q-10 27 -15.5 58.5t-5.5 66.5zM209 903q0 29 9 53.5t28 38.5q18 16 39.5 24.5t44.5 8.5h2h4 q23 0 44 -7t42 -24q18 -14 30.5 -34.5t14.5 -47.5v-3v-1v-3v-1v-3v-1v-3v-1q0 -33 -9 -57.5t-30 -40.5q-20 -16 -41.5 -24.5t-46.5 -8.5q-25 -2 -47.5 6t-42.5 25q-20 16 -30.5 41.5t-10.5 58.5v4z" />
<glyph unicode="&#xa2;" horiz-adv-x="1144" d="M129 549q0 10 1 24.5t3 28.5q4 14 7 28.5t10 28.5q23 63 66.5 122t111.5 110q66 53 150.5 79.5t185.5 26.5h15h15h8h9q2 -2 6 -2h8l66 230q2 -4 4 -5t4 -3q0 -2 2 -3.5t4 -1.5q4 -2 8 -3t8 -3t7 -3t6 -1q4 -2 8 -2h8h8q4 0 8 2q4 0 9.5 1t11.5 3l-64 -223q2 -4 4 -6t4 -2 h4h3h1h3q10 -2 20 -5l23 -7q10 -2 20 -5.5l21 -7.5q20 -6 38.5 -15t34.5 -20l-47 -157h-32l-25 44q-12 22 -29 38l-15 15q-7 7 -13 11q-8 6 -15.5 9.5t-15.5 5.5h-3q-1 0 -1 2h-3h-5h-4l-242 -787q10 -8 21.5 -13t23.5 -9t24.5 -7.5t24.5 -3.5q4 0 6 -1t6 -1q2 -2 5 -2h6h12 h12q45 0 88 9.5t82 29.5q41 18 72 41t51 49v-92q-12 -25 -35.5 -43t-58.5 -30q-33 -14 -70 -22.5t-76 -14.5q-14 -2 -27.5 -3t-25.5 -3h-12q-6 0 -12 -3h-13h-12q-20 0 -38.5 1.5t-35.5 5.5q-16 2 -28 7l-23 9l-80 -258q-12 6 -24.5 10t-24.5 4q-12 2 -25 2h-24l98 258 q-70 27 -120 64t-83 82q-33 47 -54 94t-32 98q-2 12 -5 24.5t-5 24.5q0 10 -2 22.5t-2 25.5q-2 25 -3 48t-1 46v4zM467 145l227 775q-92 -4 -159.5 -29t-112.5 -74t-69.5 -113.5t-30.5 -142.5v-4v-2q-2 -2 -3 -4v-4v-4v-2v-4v-5v-8v-8v-5v-7q0 -68 10.5 -124t30.5 -104 q20 -45 47 -78.5t60 -56.5v4z" />
<glyph unicode="&#xa3;" horiz-adv-x="1144" d="M80 0v145q4 -4 7 -5t7 -1h6h6h13h12q84 0 139.5 23.5t79.5 68.5q25 47 38 99.5t13 113.5v10v11q-2 4 -2 10v12v12v11q-2 4 -2 9v11v9v8q-2 2 -2 6v8v7v7q-2 2 -2 7v8q-2 10 -3 21.5t-1 21.5v9v11q-2 4 -2 10v11l-209 -12v112q6 -4 12 -6l13 -4q4 0 10 -2t12 -2 q12 -2 24.5 -3t24.5 -1q6 0 12.5 -1t12.5 -1h10h13h24h25q-2 10 -3 19t-3 20q-2 8 -3.5 18t-1.5 18q-2 18 -2 36v34q0 123 31 215t94 156q63 63 135 95t152 32h8h8q4 -2 9 -2h8h8h10q4 -2 8 -2h9q29 -4 58.5 -13.5t57.5 -21.5q29 -14 56.5 -31.5t54.5 -40.5l-98 -108 q-12 18 -24.5 34.5t-24.5 28.5q-6 6 -12.5 11t-10.5 12l-12 8l-13 8q-12 6 -24 11t-25 7q-6 0 -12 1t-10 1q-6 2 -13 3h-12q-68 0 -114 -23t-70 -66q-25 -43 -37 -90t-16 -100q-2 -6 -2 -12v-13v-12v-12v-37q0 -18 2 -35q0 -16 2 -32l4 -29q0 -14 1 -27.5t3 -23.5v-12 q0 -5 2 -9v-9v-7q10 -2 21.5 -3t23.5 -1q10 -2 21 -2h24h19h18h9q5 0 9 2h9h10l41 4l41 4q20 4 38.5 7t36.5 5v-108l-321 16q2 -16 3 -28.5t3 -24.5t3 -24.5t1 -25.5q0 -59 -11 -115.5t-34 -109.5q-20 -51 -45 -93t-51 -73l-12 -12l-13 -12l-5 -5l-5 -5q-4 -2 -6 -4.5 t-6 -4.5l678 21v-162h-969z" />
<glyph unicode="&#xa4;" horiz-adv-x="1144" d="M162 403q-29 39 -50.5 81t-33.5 81q-12 41 -18.5 79t-6.5 75q-2 41 5.5 82t21.5 80q16 39 35.5 75.5t46.5 71.5l-113 117l113 96l112 -113q29 27 64 49.5t74 36.5q41 16 80.5 23.5t80.5 7.5h8h5h8h8q18 -2 36.5 -5t39.5 -7q18 -4 37 -10l37 -13q37 -14 70.5 -35.5 t64.5 -50.5l112 117l97 -96l-113 -113q31 -35 52.5 -69.5t35.5 -71.5q12 -39 19.5 -77t9.5 -79v-3v-1v-3v-3v-4v-4q-2 -45 -11.5 -88t-25.5 -84q-14 -41 -34.5 -78t-45.5 -68l98 -92l-82 -98l-112 98q-37 -29 -74 -50t-76 -36q-20 -6 -39.5 -11t-38.5 -9l-39 -4 q-19 -2 -40 -2q-16 0 -33 1t-33 3q-8 0 -16.5 2t-14.5 2l-16 4l-16 4q-25 6 -49.5 15.5t-49.5 21.5q-25 10 -48 24.5l-46 30.5l-96 -94l-113 82zM193 694q6 -76 35.5 -137t82.5 -111q53 -49 117 -72.5t137 -23.5h4h4h6h5q2 -2 4 -2h4h4h4q88 0 152.5 25.5t105.5 77.5 q41 53 64.5 115.5t29.5 138.5v3v3v2q0 2 2 4v4v3v3q0 12 -1 24.5t-3 26.5q-2 12 -5 26.5t-7 29.5q-14 51 -45 98t-78 90q-45 43 -104.5 64.5t-130.5 21.5h-13q-6 0 -10 -2q-6 0 -12 -1t-13 -1q-6 -2 -12 -3t-10 -1q-6 -2 -12 -3t-13 -3q-55 -18 -105 -52t-97 -86 q-45 -51 -67.5 -111.5t-22.5 -131.5v-3v-3v-4v-1v-4v-2v-3v-3v4z" />
<glyph unicode="&#xa5;" horiz-adv-x="1144" d="M483 612l-112 179h-258v96h209l-306 549q10 -6 23.5 -9.5t28.5 -5.5q16 -2 31 -2h30h9h12h6h6q2 0 5 1t5 1h22q11 0 21 2l22 4l21 5l338 -707q14 14 31.5 40t38.5 62q23 37 44 77l44 85q4 10 9 20.5t11 20.5l9 21.5t12 21.5l53 114l47 105l37 86q14 35 20 54 q10 -2 21.5 -5.5t21.5 -5.5t22 -2h19h10h11q4 0 9 1t9 1q10 2 19.5 5.5t17.5 5.5l-305 -545h209v-96h-275l-79 -162v-64h354v-98h-354v-467h-10q-5 0 -9 2q-6 0 -11 1t-9 1q-10 2 -21.5 3t-21.5 1h-13q-6 0 -10 -2q-6 0 -12 -1t-13 -1q-12 -2 -24 -3t-25 -1v467h-370v98h370 v47z" />
<glyph unicode="&#xa6;" />
<glyph unicode="&#xa7;" horiz-adv-x="1032" d="M258 920q-8 12 -15 25t-14 28q-6 12 -10 25l-8 28q-8 27 -11 52.5t-3 49.5q0 70 25.5 127.5t76.5 102.5q53 45 118.5 67.5t147.5 22.5q41 0 77 -6t65 -19q29 -12 52 -25.5t42 -29.5q4 -4 9 -8t9 -8t9.5 -8.5t9.5 -8.5q-12 -18 -21.5 -36.5t-15.5 -36.5q-8 -18 -14.5 -37 l-12.5 -35l-33 4q-8 41 -28.5 73.5t-48.5 53.5q-29 23 -60 33t-63 12h-3h-4q-28 0 -53.5 -6t-50.5 -17q-25 -10 -43 -24t-33 -33q-12 -16 -20 -31.5t-12 -31.5q-6 -14 -8.5 -28.5t-2.5 -27.5q0 -39 14.5 -71.5t45.5 -61.5q31 -27 64.5 -50t70.5 -40q14 -8 28 -14l27 -12 q6 -2 12.5 -5.5t14.5 -5.5l12 -4l12 -4q72 -27 124 -55.5t83 -63.5q31 -33 48.5 -66.5t23.5 -68.5v-4q0 -2 2 -4v-6v-4v-4q0 -2 2 -5v-4v-4q0 -29 -6 -56.5t-17 -55.5q-10 -27 -21 -50.5t-24 -46.5l-15 -26l-13 -23l-15 -19l-10 -16q18 -12 33.5 -28.5t23.5 -36.5l9 -21 l8 -20l4 -23l4 -20v-4q0 -2 2 -4v-4v-4v-5v-2v-4v-4q0 -14 -1 -29.5t-5 -29.5q-2 -14 -6 -26.5t-8 -22.5q-25 -63 -65 -114.5t-97 -86.5t-119.5 -53.5t-132.5 -18.5h-12h-13q-6 2 -12 2h-12q-12 2 -24.5 3t-24.5 3l-52 13q-25 6 -49 16q-25 8 -49 19.5t-47 25.5q0 4 1 8t3 9 q0 6 1 10t3 8l4 16l4 17q0 8 1 17t4 20v8q0 4 2 8v8v8v9v6q-2 4 -2 7v3q0 6 -1.5 13l-3.5 16l33 4q4 -10 8 -17.5t9 -13.5q4 -2 10 -9t12 -16q23 -27 49.5 -51t59.5 -45q33 -23 67.5 -33t73.5 -10q10 0 20.5 1t20.5 3q4 2 9 3t11 1q4 2 10.5 3t12.5 4q35 14 67.5 35.5 t63.5 50.5q29 31 44 64.5t15 72.5q0 41 -18 74.5t-55 58.5t-81 48.5t-93 43.5l-9 4l-8 4q-4 0 -8 2l-8 4l-8 4l-9 5q-4 0 -8 2l-8 4q-59 27 -113.5 57.5t-103.5 65.5t-73.5 86t-24.5 118q0 41 8 76t26 64t39 52t41 42q2 2 4 3t5 3q0 2 2 3t4 3q4 4 8 7t8 5v5zM725 371 q16 8 28.5 20t20.5 31q10 18 15.5 37.5t5.5 40.5q0 10 -1 19t-3 18q-2 10 -5.5 20l-7.5 21l-12 20q-6 10 -16 23q-8 10 -18.5 20l-22.5 21q-25 23 -56.5 41t-72.5 34l-289 133q-2 -4 -4 -6l-4 -4l-4 -4l-5 -4q-12 -10 -22 -23.5l-21 -29.5q-8 -14 -13 -31.5t-5 -36.5 q0 -8 1 -17t3 -20q4 -8 8 -17t11 -20q6 -12 17 -24t26 -25q16 -12 34.5 -24.5t40.5 -22.5l25 -12l24 -12l25 -13l25 -12l24 -12l25 -13q6 -2 12 -5l14 -7q6 -2 12.5 -5t12.5 -5l46 -25q24 -12 44 -24l43 -25l39 -24v4z" />
<glyph unicode="&#xa8;" horiz-adv-x="677" d="M33 1225v2v3v3q-2 23 6 41t22 31q16 12 33 18t35 8h2h4q20 0 39 -5t35 -17t24.5 -30.5t8.5 -41.5q0 -27 -8.5 -48.5t-24.5 -35.5q-14 -14 -32.5 -20.5t-37.5 -6.5q-18 -2 -35.5 4.5t-33.5 18.5q-14 12 -23.5 29.5t-13.5 42.5v4zM436 1241q2 18 10.5 34.5t22.5 29.5 q16 12 31.5 19t31.5 9h4h3h3h3q18 0 36.5 -6t32.5 -18q16 -12 23.5 -29.5t7.5 -42.5q0 -27 -8 -47.5t-25 -34.5q-14 -14 -32.5 -20.5t-36.5 -6.5q-20 -2 -39 4.5t-35 20.5t-24.5 35.5t-8.5 48.5v4z" />
<glyph unicode="&#xa9;" horiz-adv-x="1531" d="M33 709v2v2v4v4v3v3q0 29 5 64.5t15 76.5t26.5 84t39.5 88q37 78 95 147.5t136 133.5q78 63 180.5 95t227.5 32q178 0 310 -48t220 -145q88 -96 141.5 -201.5t73.5 -219.5q2 -14 3 -28.5t3 -29.5q2 -14 3 -27.5t4 -27.5v-5q0 -3 2 -7v-6v-7v-12v-12q0 -150 -56.5 -275 t-171.5 -227q-113 -102 -241.5 -152.5t-274.5 -50.5q-152 0 -283 54.5t-239 166.5q-111 113 -165 242t-54 275v4zM162 725v-9v-7v-6v-7q0 -20 2 -43.5t6 -46.5q4 -25 10 -48t15 -46q29 -82 81 -157.5t125 -143.5q74 -68 163 -101.5t194 -33.5h7h5h7h5q121 -2 227.5 46 t200.5 144q92 96 141.5 202.5t51.5 223.5v3v3v3v4q0 18 -1 37.5t-5 39.5q-2 20 -7.5 41t-11.5 41q-27 88 -81 169t-134 155t-181 110.5t-224 36.5q-113 0 -206 -37.5t-167 -111.5q-74 -76 -124 -157t-75 -171q-6 -18 -9 -35.5t-7 -34.5q-2 -18 -5 -34.5t-3 -32.5v4zM338 709 q0 88 30.5 161.5t94.5 133.5q61 59 147 88.5t195 31.5q31 0 64.5 -3t66.5 -9q35 -6 70.5 -14t74.5 -21q-6 -18 -10 -34.5t-4 -28.5q-2 -14 -2 -27v-24l-33 4q-23 16 -49.5 31.5t-54.5 25.5q-14 6 -29.5 10t-30.5 6q-16 4 -30.5 5.5t-30.5 1.5q-61 0 -116.5 -21.5 t-106.5 -62.5t-76 -105.5t-25 -152.5q4 -94 30 -160t73 -101q47 -37 100 -55t111 -18h2h4q41 0 78 5t73 17q35 12 62.5 25.5t48.5 27.5l-16 -75q-27 -23 -57.5 -38.5t-65.5 -25.5q-35 -8 -72 -13t-74 -5h-8h-8h-8h-8q-76 4 -147 30.5t-136 73.5q-63 47 -95 120t-32 171v4v3 v3v1v3v3v4v4z" />
<glyph unicode="&#xaa;" horiz-adv-x="661" d="M49 645v80h580v-80h-580zM16 983q0 39 16.5 70.5t49.5 52.5q33 20 69.5 35.5t75.5 23.5q23 4 45.5 9.5t44.5 7.5q10 2 20.5 3t20.5 3q8 0 16.5 1t16.5 3q10 0 18.5 2t14.5 4t9 4t3 4q2 4 3 9.5t1 11.5v6q0 2 2 4v6v4q0 31 -10 54.5t-29 41.5q-18 18 -39.5 30.5 t-44.5 19.5q-2 0 -5 1t-5 1q-4 2 -6 2h-6h-5q-3 0 -7 2h-5h-6q-23 0 -43 -4t-36 -11q-18 -8 -35 -22t-33 -37q-2 -2 -4 -5t-4 -7q0 -2 -1 -3l-1 -1l-3 -3q-1 -1 -1 -3l-33 4v79q16 10 40.5 21.5t57.5 19.5q31 10 64.5 15.5t66.5 7.5h3h3h4h8h5q43 0 82 -9t73 -28 q35 -18 55.5 -49t22.5 -78v-319q0 -27 5 -43.5t16 -24.5q10 -8 25.5 -12t33.5 -4v-29q-14 -4 -26.5 -6t-22.5 -4t-21 -2h-20q-23 0 -41 3t-33 11q-14 8 -25.5 23.5t-19.5 35.5q-6 -25 -24.5 -42t-49.5 -29t-63.5 -18.5t-67.5 -6.5h-2h-3q-38 0 -71.5 8.5t-64.5 22.5 q-31 16 -49 48t-25 81v4zM145 983q10 -27 23.5 -45t32.5 -31q16 -14 36.5 -21t43.5 -7q10 0 21 2l24 4l12 4l12 4q4 4 10.5 7t12.5 7q8 4 16 11l17 12q8 6 15 15t15 18v198q-6 -4 -12 -6t-10 -4q-6 -2 -12.5 -3t-12.5 -3t-12 -3t-10 -1q-6 -2 -12.5 -3t-12.5 -3 q-37 -10 -71.5 -22.5t-65.5 -27.5q-31 -14 -47.5 -34.5t-16.5 -46.5v-6v-7q0 -2 1 -5t3 -7v4z" />
<glyph unicode="&#xab;" horiz-adv-x="1032" d="M178 483l258 371l7 -7l6 -5q4 -2 7 -3t5 -3q6 -2 13 -5.5l15 -7.5q8 -2 18.5 -3t24.5 -1l-241 -336l225 -321q-12 -10 -24 -18l-23 -13q-12 -8 -20.5 -17.5t-12.5 -21.5zM483 483l258 371q2 -4 4.5 -5t4.5 -3q0 -2 2 -3t4 -1l8 -4l8 -4q6 -2 12.5 -5.5t14.5 -5.5t17 -3 t22 -1l-242 -336l227 -321q-12 -10 -24 -18l-23 -13q-12 -8 -20 -17.5t-15 -21.5z" />
<glyph unicode="&#xac;" />
<glyph unicode="&#xad;" horiz-adv-x="1024" />
<glyph unicode="&#xae;" horiz-adv-x="1531" d="M49 709q0 131 34 241.5t103 196.5q70 86 147 149.5t159 102.5q35 16 70.5 28.5t68.5 20.5q35 8 66.5 12t60.5 4q152 -6 285 -58t245 -149q115 -96 171.5 -237t56.5 -330q0 -27 -3.5 -54.5t-7.5 -55.5q-4 -29 -11 -58.5t-17 -58.5q-31 -92 -87.5 -175t-140.5 -161 q-82 -76 -197.5 -115t-260.5 -45h-6h-7h-4h-2h-4h-4q-137 0 -262 50.5t-234 154.5q-111 104 -165 230t-54 274v3v3v4v4v3v3v4v5v4zM178 725q0 -131 41 -243.5t123 -211.5q84 -98 191.5 -146t240.5 -48q117 4 216.5 44t180.5 113q80 74 133.5 156t77.5 170l9 34q4 17 6 34 q4 16 5 33.5t1 33.5v4v4v3v4v7v5q0 25 -4 54.5t-15 66.5q-8 37 -22 73.5t-33 75.5q-33 66 -82 124.5t-114 111.5q-63 53 -149.5 80.5t-192.5 27.5h-12h-9h-4h-4q-4 -2 -6 -2h-4q-106 -8 -206 -52t-190 -126q-88 -82 -133 -183.5t-45 -223.5v-4v-3v-4v-2v-4v-4v-3v-3v4z M500 307v805h307q59 -4 103 -18.5t77 -42.5q33 -27 49.5 -60t16.5 -67v-5v-8v-3v-3q-2 -2 -2 -3v-3q-6 -31 -24.5 -59.5t-49.5 -57.5q-33 -27 -79 -47t-107 -30l321 -367v-31q-6 -2 -12 -1t-15 3q-8 2 -15 3t-15 1h-8h-9q-6 -2 -10 -2h-8q-8 -2 -17.5 -3t-19.5 -5l-321 391 h-50v-387q-2 -2 -6 -2t-6 2q-4 0 -7 1t-7 1q-6 2 -13.5 3t-15.5 1h-8h-6q-4 -2 -8 -2h-9q-8 -2 -14 -3t-12 -5v4zM612 774h146q39 -4 69.5 7.5t51.5 31.5q23 23 35 45.5t14 48.5v4v4v5v4q0 23 -7.5 44t-23.5 40q-14 18 -36.5 27t-53.5 9l-195 5v-275z" />
<glyph unicode="&#xaf;" />
<glyph unicode="&#xb0;" />
<glyph unicode="&#xb1;" horiz-adv-x="1241" />
<glyph unicode="&#xb2;" />
<glyph unicode="&#xb3;" />
<glyph unicode="&#xb4;" horiz-adv-x="677" d="M209 1096l274 290l17 13l16 12q10 6 19.5 10t17.5 6q4 2 8 3.5t8 1.5h4q2 0 7 2h4h4q16 0 29.5 -4.5t25.5 -12.5t18.5 -18t6.5 -23q0 -8 -3 -19t-12 -24q-4 -6 -10 -12t-12 -10l-17 -13q-8 -6 -18 -12l-305 -190h-82z" />
<glyph unicode="&#xb5;" horiz-adv-x="1144" />
<glyph unicode="&#xb6;" horiz-adv-x="1644" d="M709 678q-4 -4 -9.5 -6t-9.5 -2h-8h-8h-10h-9h-9h-9q-78 0 -147.5 21.5t-129.5 66.5q-59 43 -88.5 108.5t-29.5 151.5v3v3v4v4v2v4v3v3q0 96 23.5 167t72.5 116q49 43 121.5 65.5t169.5 22.5l532 4v-1612l-13 4.5t-15 4.5t-18 2h-19h-4h-2h-5h-4h-5h-7q-8 0 -15 -1 t-14 -3q-6 0 -12 -2l-12 -5v1547h-178v-1547l-17 5l-16 4q-8 2 -15 2h-14h-15q-7 0 -18 -2q-4 0 -8 -1t-8 -1q-6 -2 -10 -3t-8 -4v871zM709 741v613q-43 -4 -76 -17.5t-58 -40.5t-39 -86t-20 -149q0 -68 9.5 -125t27.5 -105q18 -47 57 -70.5t99 -23.5v4z" />
<glyph unicode="&#xb7;" />
<glyph unicode="&#xb8;" horiz-adv-x="677" d="M338 0h82l-66 -129q8 2 15.5 3t13.5 1q4 0 7 1t7 1h6h7q41 0 73.5 -11t53.5 -34q23 -23 34 -49.5t11 -54.5v-2v-5q-2 -31 -17.5 -59.5t-44.5 -54.5q-29 -27 -74 -40t-106 -13q-20 0 -40.5 1t-43.5 5q-20 2 -45 8l-49 12l16 82q10 -4 19.5 -7t19.5 -5q6 -2 11 -3t12 -3 q4 0 9 -1t11 -3q6 0 13.5 -1t15.5 -4h7q3 0 7 -2h6h8q23 0 40.5 4.5t31.5 14.5q16 8 23.5 26.5t9.5 42.5v4v4v3q-2 2 -2 3v1v3v3q0 8 -7 16.5t-20 14.5q-12 8 -27.5 12t-31.5 4h-16q-7 0 -15 -2t-15 -5t-14 -7l-32 32z" />
<glyph unicode="&#xb9;" />
<glyph unicode="&#xba;" horiz-adv-x="694" d="M49 709h596v-80h-596v80zM16 1145q12 76 45 131t84 88q53 35 108.5 51.5t117.5 16.5q66 0 121 -20.5t98 -61.5q43 -39 65.5 -96.5t22.5 -129.5q0 -66 -22.5 -121t-67.5 -98t-103.5 -64.5t-130.5 -21.5q-96 0 -162.5 24.5t-103.5 76.5q-37 49 -54.5 104t-17.5 117v4z M145 1112q6 -57 19.5 -101t34.5 -79q23 -33 56.5 -49.5t82.5 -16.5q59 0 101 20.5t65 61.5t34 89t11 104q0 53 -12.5 97t-34.5 77q-25 35 -57.5 51t-73.5 16q-55 0 -95 -18t-67 -55t-42 -78t-20 -84q-2 -6 -2 -11v-10v-9v-9v4z" />
<glyph unicode="&#xbb;" horiz-adv-x="1032" d="M420 467l-211 340q0 -2 1 -2h3q2 0 4 2h2q10 6 21.5 12t19.5 12q10 6 17.5 14.5t13.5 20.5l258 -399l-275 -371q-6 8 -15 17.5t-19 17.5q-6 4 -12.5 7t-10.5 7q-6 2 -12 6.5t-12 6.5zM725 467l-209 340q0 -2 1 -2h3q2 0 4 2h2q4 4 9.5 7t11.5 5q4 4 9 7t9 5 q10 6 17.5 14.5t13.5 20.5l258 -399l-274 -371q-6 8 -14.5 17.5t-18.5 17.5q-6 4 -12.5 7t-10.5 7q-6 2 -12 6.5t-12 6.5z" />
<glyph unicode="&#xbc;" />
<glyph unicode="&#xbd;" horiz-adv-x="1710" />
<glyph unicode="&#xbe;" />
<glyph unicode="&#xbf;" horiz-adv-x="790" d="M129 -193q-2 6 -2 12v9v11v9q0 33 4 61t12 50l20 41q9 18 21 35q4 10 9.5 17l11.5 14q4 4 6 7t4 7q4 2 6 6t4 6l178 199q4 0 6.5 2t6.5 4l5 5l5 5q4 6 9 12.5t9 12.5q10 12 17.5 25.5t11.5 27.5t6 27.5t2 25.5q0 27 -8 48.5t-24 39.5t-35 27.5t-39 11.5q-8 0 -15.5 -1 t-13.5 -5q-6 -2 -12 -6l-12 -8l-31 20l31 64q8 -2 15 -1t15 3t15.5 3t15.5 1q47 0 87 -18.5t77 -55.5t55.5 -81t18.5 -97q0 -8 -1.5 -16.5t-1.5 -14.5q-2 -8 -3 -16t-3 -17q-4 -16 -10 -32.5t-14 -32.5q-6 -12 -13.5 -24.5t-17.5 -24.5q-4 -6 -9 -12.5t-9 -10.5l-11.5 -12 l-11.5 -12l-178 -191q-18 -23 -31.5 -42t-23.5 -40q-8 -20 -12.5 -38.5t-4.5 -34.5q0 -35 14.5 -64t43.5 -49t61.5 -30.5t69.5 -12.5h4h4h4h4q23 2 44.5 8t41.5 17q20 10 38.5 25t33.5 36l16 -96q-16 -18 -38.5 -33.5t-51.5 -24.5q-27 -10 -56.5 -15t-60.5 -5h-9h-9h-4h-4 q-4 2 -6 2h-5q-51 4 -98 21.5t-90 48.5t-63.5 72.5t-20.5 94.5zM307 887q2 33 11.5 58.5t27.5 43.5t37.5 28.5t40.5 12.5h3h3h3h3q25 0 46.5 -9t41.5 -26q20 -18 30.5 -41.5t10.5 -54.5q0 -35 -10 -59.5t-29 -40.5q-20 -14 -41.5 -21.5t-44.5 -7.5h-3h-1h-2q-25 0 -46 7 t-42 22q-20 12 -29.5 30.5t-9.5 40.5v3v4v3v3v4z" />
<glyph unicode="&#xc0;" horiz-adv-x="1370" d="M16 0l646 1436h47l630 -1436h-13h-15h-16h-17h-9q-5 0 -9 2h-12h-9h-11q-5 0 -9 2h-12h-9h-4h-2h-4h-4h-7h-8q-8 -2 -15 -3t-13 -1h-8h-7h-7h-7l-225 565h-500l-209 -565h-6h-6q-4 0 -7 1t-7 1h-7q-4 0 -6 2h-7h-7h-8h-8h-5h-4q-2 -2 -4 -2h-4h-3h-3q-2 -2 -3 -2h-3h-5 h-7h-7h-6h-7h-7h-12h-13zM436 662h418l-209 499zM791 1532l-324 209q-14 4 -23.5 12t-13.5 16q-6 10 -8 17.5t-2 15.5q-2 14 4 26.5t20 20.5q12 10 27.5 15.5t32.5 7.5h2h1h3q8 0 15 -1t16 -5q6 -2 12 -6l12 -9l322 -319h-96z" />
<glyph unicode="&#xc1;" horiz-adv-x="1370" d="M16 0l646 1436h47l630 -1436h-13h-15h-16h-17h-9q-5 0 -9 2h-12h-9h-11q-5 0 -9 2h-12h-9h-4h-2h-4h-4h-7h-8q-8 -2 -15 -3t-13 -1h-8h-7h-7h-7l-225 565h-500l-209 -565h-6h-6q-4 0 -7 1t-7 1h-7q-4 0 -6 2h-7h-7h-8h-8h-5h-4q-2 -2 -4 -2h-4h-3h-3q-2 -2 -3 -2h-3h-5 h-7h-7h-6h-7h-7h-12h-13zM436 662h418l-209 499zM420 1516l274 290l17 13l16 12q10 6 19.5 10t17.5 6q4 2 8 3t8 1h4q2 0 7 2h4h4q16 0 29.5 -4t25.5 -12q10 -8 16.5 -18.5t8.5 -22.5q0 -8 -4.5 -19.5t-12.5 -23.5q-4 -6 -9 -12t-11 -10l-17 -13q-8 -6 -18 -12l-307 -190 h-80z" />
<glyph unicode="&#xc2;" horiz-adv-x="1370" d="M16 0l646 1436h47l630 -1436h-13h-15h-16h-17h-9q-5 0 -9 2h-12h-9h-11q-5 0 -9 2h-12h-9h-4h-2h-4h-4h-7h-8q-8 -2 -15 -3t-13 -1h-8h-7h-7h-7l-225 565h-500l-209 -565h-6h-6q-4 0 -7 1t-7 1h-7q-4 0 -6 2h-7h-7h-8h-8h-5h-4q-2 -2 -4 -2h-4h-3h-3q-2 -2 -3 -2h-3h-5 h-7h-7h-6h-7h-7h-12h-13zM436 662h418l-209 499zM354 1516l275 370h96l274 -370h-79l-242 225l-242 -225h-82z" />
<glyph unicode="&#xc3;" horiz-adv-x="1370" d="M16 0l646 1436h47l630 -1436h-13h-15h-16h-17h-9q-5 0 -9 2h-12h-9h-11q-5 0 -9 2h-12h-9h-4h-2h-4h-4h-7h-8q-8 -2 -15 -3t-13 -1h-8h-7h-7h-7l-225 565h-500l-209 -565h-6h-6q-4 0 -7 1t-7 1h-7q-4 0 -6 2h-7h-7h-8h-8h-5h-4q-2 -2 -4 -2h-4h-3h-3q-2 -2 -3 -2h-3h-5 h-7h-7h-6h-7h-7h-12h-13zM436 662h418l-209 499zM322 1548q4 31 14 58.5t26 50.5t35 39t39 28q8 6 16.5 11.5t16.5 7.5q4 2 8 3t8 3q2 0 6.5 1t8.5 3h3h3h1q1 0 3 2h1h3h2h4h3h3h8h7q2 -2 6 -2h6q6 -2 13 -3t16 -3q12 -2 24 -7t25 -11q6 -2 12 -5.5t12 -5.5q6 -4 12.5 -6 t12.5 -6q10 -4 18.5 -9t18.5 -9l17 -8.5t18 -8.5q16 -8 33.5 -11t31.5 -3q16 0 32.5 6t31.5 18q16 12 29.5 34t25.5 54l63 -12q-2 -10 -6 -21l-8 -24q-4 -12 -10 -24l-12 -25q-12 -23 -28.5 -43.5t-39.5 -38.5q-20 -18 -47 -27.5t-57 -9.5q-25 0 -47.5 3t-45.5 12 q-20 8 -40 17l-37 17l-34 16l-32 15q-14 8 -28.5 12t-26.5 4q-18 0 -31.5 -4t-24.5 -10q-8 -6 -17 -16.5t-17 -22.5q-2 -2 -3 -5t-1 -5l-4 -6q-1 -2 -3 -4t-3 -5t-3 -6l-3 -6l-3 -6z" />
<glyph unicode="&#xc4;" horiz-adv-x="1370" d="M16 0l646 1436h47l630 -1436h-13h-15h-16h-17h-9q-5 0 -9 2h-12h-9h-11q-5 0 -9 2h-12h-9h-4h-2h-4h-4h-7h-8q-8 -2 -15 -3t-13 -1h-8h-7h-7h-7l-225 565h-500l-209 -565h-6h-6q-4 0 -7 1t-7 1h-7q-4 0 -6 2h-7h-7h-8h-8h-5h-4q-2 -2 -4 -2h-4h-3h-3q-2 -2 -3 -2h-3h-5 h-7h-7h-6h-7h-7h-12h-13zM436 662h418l-209 499zM371 1645q0 -2 0 -1v3v3v3q-2 23 6 41t22 30q16 12 33 18.5t35 8.5h2h1h3q20 0 38.5 -5t35.5 -17q16 -12 24.5 -31t8.5 -41q0 -27 -8.5 -48.5t-24.5 -35.5q-14 -14 -32.5 -20.5t-37.5 -6.5q-18 -2 -35.5 4t-33.5 19 q-14 12 -23.5 29.5t-13.5 41.5v5zM774 1661q4 20 13.5 36.5t23.5 28.5q16 12 31.5 18.5t34.5 8.5h2h1h3q18 0 36.5 -6t32.5 -18q16 -12 23.5 -30t7.5 -42q0 -27 -8 -47.5t-25 -34.5q-14 -14 -32.5 -20.5t-36.5 -6.5q-20 -2 -39 4.5t-35 20.5t-24.5 35.5t-8.5 48.5v4z" />
<glyph unicode="&#xc5;" horiz-adv-x="1370" d="M16 0l646 1436h47l630 -1436h-13h-15h-16h-17h-9q-5 0 -9 2h-12h-9h-11q-5 0 -9 2h-12h-9h-4h-2h-4h-4h-7h-8q-8 -2 -15 -3t-13 -1h-8h-7h-7h-7l-225 565h-500l-209 -565h-6h-6q-4 0 -7 1t-7 1h-7q-4 0 -6 2h-7h-7h-8h-8h-5h-4q-2 -2 -4 -2h-4h-3h-3q-2 -2 -3 -2h-3h-5 h-7h-7h-6h-7h-7h-12h-13zM436 662h418l-209 499zM467 1726v11q0 6 2 14q0 8 3 16.5t5 16.5q10 31 28.5 58.5t45.5 53.5q29 25 64.5 38.5t78.5 13.5q41 -4 74 -16.5t55 -35.5q23 -20 39.5 -43.5t26.5 -48.5q2 -6 3 -12t3 -10q0 -6 1 -11.5t3 -9.5q2 -10 3 -19t1 -20v-4v-4 q-2 -2 -2 -4v-4v-8v-8q-6 -33 -22.5 -64t-44.5 -59q-27 -27 -62 -41.5t-78 -14.5t-79.5 14.5t-67.5 41.5q-31 29 -50.5 59.5t-25.5 63.5q-2 4 -3 8t-1 8v8v8v4zM565 1726q2 -33 12.5 -54t28.5 -36q18 -14 39 -21t41 -7h2h4q23 0 41.5 8t36.5 22t27.5 36t9.5 48 q0 31 -9.5 54.5t-27.5 38.5q-18 16 -38.5 24t-43.5 10h-3h-3q-20 -2 -39.5 -10t-38.5 -24q-18 -14 -27.5 -38t-11.5 -55v4z" />
<glyph unicode="&#xc6;" horiz-adv-x="1710" d="M0 0l936 1419h692q-2 -8 -4 -14t-2 -10q-2 -6 -3 -10.5t-1 -8.5q0 -2 -1 -4l-1 -2v-4v-4v-5v-7v-18q0 -9 2 -19l5 -19.5t5 -23.5q-20 6 -49 11t-63 7q-35 4 -72 6l-74 4q-39 2 -74.5 3.5t-70.5 1.5h-63h-50v-512h211q35 -4 67.5 -4.5t63.5 1.5q31 0 58.5 4.5t52.5 10.5 q-2 -8 -4 -15l-5 -12q0 -2 -1 -5t-1 -5q-2 -4 -2 -6v-6v-3v-3v-5v-4v-15q0 -7 2 -15q0 -4 1 -8.5t4 -8.5q2 -6 3 -10t3 -8l-211 20h-242v-598q23 -4 45 -4h47h49q25 0 50 2q49 0 98 2l94 4q47 4 84 10.5t66 14.5q-2 -8 -5 -14l-4 -13q0 -2 -1 -5t-1 -5q-2 -4 -2 -6v-6v-3v-3 v-4v-5v-15q0 -7 2 -15t5 -16.5t6 -14.5h-709v500h-469q-4 -10 -9 -18.5t-9 -16.5q-6 -8 -11.5 -16.5t-9.5 -16.5q-8 -16 -17 -32l-20 -31l-17 -30l-20 -32l-17 -29l-20 -32l-34 -65l-33 -62l-31 -62l-26 -57q-12 0 -23.5 1t-22.5 3q-10 2 -21 3t-22 1q-12 0 -24 -1t-25 -3 q-12 -2 -25.5 -3t-29.5 -1zM936 596v661l-420 -661h420z" />
<glyph unicode="&#xc7;" horiz-adv-x="1370" d="M80 694q0 166 42 292t128 210q84 84 178 140.5t197 82.5l58 13q30 6 58 8q29 4 57.5 6t55.5 2q53 0 102.5 -4t94.5 -14q23 -4 43 -9.5t41 -9.5q18 -6 36.5 -11l34.5 -9q16 -6 30.5 -12.5t27.5 -10.5q12 -6 23 -10t20 -8l-50 -172h-16q-18 25 -41.5 47t-54.5 41 q-31 18 -62.5 32.5t-66.5 22.5q-25 8 -49.5 14t-46.5 8q-23 4 -43.5 5.5t-38.5 1.5q-125 0 -218.5 -38t-154.5 -116q-61 -76 -100 -161t-58 -177q-4 -25 -7 -48.5t-5 -45.5q-2 -25 -3 -46.5t-1 -43.5q0 -23 2 -46l4 -48q4 -25 9 -49.5t13 -49.5q23 -82 68 -157.5t109 -143.5 q66 -68 150.5 -101.5t191.5 -33.5q72 0 135 12.5t114 38.5q53 27 103.5 57.5t99.5 67.5l-16 -141q-20 -23 -51 -39t-70 -29q-39 -10 -79 -19l-81 -18l-37 -4l-36 -4q-18 -2 -35 -3t-33 -1h-3h-4h-3h-5h-6q-6 2 -11 2h-9h-5h-5q-4 2 -6 2h-4l-50 -80q61 0 106.5 -9t76.5 -30 q31 -20 46 -47.5t15 -62.5v-3v-3v-4v-4v-2v-3q-2 0 -2 -1v-5v-4q-8 -37 -28.5 -63.5t-55.5 -44.5q-35 -16 -76 -25.5t-88 -9.5q-23 0 -46 2t-46 6q-25 2 -48.5 8t-45.5 15l31 65q16 -4 29.5 -9t27.5 -7q14 -4 27.5 -5t25.5 -1q29 0 52.5 6t41.5 18q16 12 27.5 25.5 t13.5 27.5v3q0 1 2 1v4v4v3q0 12 -6 23.5t-18 21.5t-29.5 15t-42.5 5h-12q-6 0 -12 -2q-6 0 -13.5 -1t-15.5 -3l-33 16l64 160q-133 12 -246 62.5t-203 140.5t-135 220t-45 300v4z" />
<glyph unicode="&#xc8;" horiz-adv-x="1032" d="M178 0v1403h742q-2 -10 -4.5 -17.5l-4.5 -13.5q0 -2 -1 -5t-1 -5q-2 -4 -2 -6v-6v-3v-4v-4v-4v-15q0 -7 2 -15q0 -4 1 -8.5t3 -8.5q2 -6 3.5 -10t3.5 -8q-31 6 -62 10t-65 6q-33 2 -67 3t-69 1h-20h-21h-21h-22q-8 -2 -15 -2h-15h-17h-14h-17h-20q-8 -2 -17 -2h-18h-36 h-33v-495h307l192 16q-2 -10 -5 -17.5t-5 -13.5q-2 -8 -2 -15v-16v-8v-8q0 -6 1 -10t1 -8q2 -8 5 -17.5t5 -19.5l-241 20h-258v-581q14 -4 30.5 -6.5t34.5 -2.5q18 -2 39 -2h41h33h35h18q8 0 19 2h17h17l80 5l78 4q37 4 67.5 7t55.5 5q-2 -8 -5 -17.5t-5 -19.5q-2 -8 -2 -16 v-17v-16q0 -8 2 -16t5 -14.5t5 -8.5h-758zM612 1499l-321 211q-6 2 -12.5 5t-10.5 7t-7 8.5t-7 8.5q-2 4 -5 7t-5 7t-2 8v8q0 14 7 26.5t21 23.5q14 10 29.5 15t32.5 5q8 0 15 -1t15 -5q6 -2 13 -6l12 -8l322 -320h-97z" />
<glyph unicode="&#xc9;" horiz-adv-x="1032" d="M178 0v1403h742q-2 -10 -4.5 -17.5l-4.5 -13.5q0 -2 -1 -5t-1 -5q-2 -4 -2 -6v-6v-3v-4v-4v-4v-15q0 -7 2 -15q0 -4 1 -8.5t3 -8.5q2 -6 3.5 -10t3.5 -8q-31 6 -62 10t-65 6q-33 2 -67 3t-69 1h-20h-21h-21h-22q-8 -2 -15 -2h-15h-17h-14h-17h-20q-8 -2 -17 -2h-18h-36 h-33v-495h307l192 16q-2 -10 -5 -17.5t-5 -13.5q-2 -8 -2 -15v-16v-8v-8q0 -6 1 -10t1 -8q2 -8 5 -17.5t5 -19.5l-241 20h-258v-581q14 -4 30.5 -6.5t34.5 -2.5q18 -2 39 -2h41h33h35h18q8 0 19 2h17h17l80 5l78 4q37 4 67.5 7t55.5 5q-2 -8 -5 -17.5t-5 -19.5q-2 -8 -2 -16 v-17v-16q0 -8 2 -16t5 -14.5t5 -8.5h-758zM242 1499l274 291l16 12l17 13q10 6 19.5 10t17.5 6q4 2 8 3t8 1h4q2 0 6 2h4h5q16 0 29.5 -4t25.5 -12t18 -18.5t6 -22.5q0 -8 -3 -19.5t-11 -23.5q-4 -6 -10 -12.5t-12 -10.5l-17 -12q-8 -6 -18 -12l-307 -191h-80z" />
<glyph unicode="&#xca;" horiz-adv-x="1032" d="M178 0v1403h742q-2 -10 -4.5 -17.5l-4.5 -13.5q0 -2 -1 -5t-1 -5q-2 -4 -2 -6v-6v-3v-4v-4v-4v-15q0 -7 2 -15q0 -4 1 -8.5t3 -8.5q2 -6 3.5 -10t3.5 -8q-31 6 -62 10t-65 6q-33 2 -67 3t-69 1h-20h-21h-21h-22q-8 -2 -15 -2h-15h-17h-14h-17h-20q-8 -2 -17 -2h-18h-36 h-33v-495h307l192 16q-2 -10 -5 -17.5t-5 -13.5q-2 -8 -2 -15v-16v-8v-8q0 -6 1 -10t1 -8q2 -8 5 -17.5t5 -19.5l-241 20h-258v-581q14 -4 30.5 -6.5t34.5 -2.5q18 -2 39 -2h41h33h35h18q8 0 19 2h17h17l80 5l78 4q37 4 67.5 7t55.5 5q-2 -8 -5 -17.5t-5 -19.5q-2 -8 -2 -16 v-17v-16q0 -8 2 -16t5 -14.5t5 -8.5h-758zM225 1499l275 371h96l274 -371h-79l-242 227l-242 -227h-82z" />
<glyph unicode="&#xcb;" horiz-adv-x="1032" d="M178 0v1403h742q-2 -10 -4.5 -17.5l-4.5 -13.5q0 -2 -1 -5t-1 -5q-2 -4 -2 -6v-6v-3v-4v-4v-4v-15q0 -7 2 -15q0 -4 1 -8.5t3 -8.5q2 -6 3.5 -10t3.5 -8q-31 6 -62 10t-65 6q-33 2 -67 3t-69 1h-20h-21h-21h-22q-8 -2 -15 -2h-15h-17h-14h-17h-20q-8 -2 -17 -2h-18h-36 h-33v-495h307l192 16q-2 -10 -5 -17.5t-5 -13.5q-2 -8 -2 -15v-16v-8v-8q0 -6 1 -10t1 -8q2 -8 5 -17.5t5 -19.5l-241 20h-258v-581q14 -4 30.5 -6.5t34.5 -2.5q18 -2 39 -2h41h33h35h18q8 0 19 2h17h17l80 5l78 4q37 4 67.5 7t55.5 5q-2 -8 -5 -17.5t-5 -19.5q-2 -8 -2 -16 v-17v-16q0 -8 2 -16t5 -14.5t5 -8.5h-758zM258 1628q0 -2 0 -1v3v3v3q-2 23 6 41.5t23 30.5q16 12 32.5 18.5t34.5 8.5h2h4q20 0 39 -5.5t35 -17.5t24.5 -30.5t8.5 -41.5q0 -27 -8 -48t-25 -36q-14 -14 -32.5 -20t-36.5 -6q-18 -2 -36 4t-34 18q-14 12 -23.5 29.5 t-13.5 42.5v4zM662 1645q4 20 13 36.5t23 28.5q16 12 31.5 18.5t34.5 8.5h2h4q18 0 36.5 -6.5t33.5 -18.5q16 -12 23 -29.5t7 -42.5q0 -27 -8 -47t-24 -34q-14 -14 -33 -20.5t-37 -6.5q-20 -2 -38.5 4t-35.5 20q-16 14 -24 36t-8 48v5z" />
<glyph unicode="&#xcc;" d="M193 1419q10 -6 19 -9t21 -5q10 -2 23 -2h25h12h12q4 0 10.5 1t12.5 1q12 2 23 5l20 5v-1415q-8 0 -19.5 1t-21.5 3q-6 0 -12.5 1t-10.5 1q-6 2 -12 2h-12q-12 0 -24.5 -1t-25.5 -3q-12 -2 -21 -3t-19 -1v1419zM387 1499l-324 211q-6 2 -12 5t-10 7t-7 8.5t-7 8.5 q-2 4 -5.5 7t-3.5 7q-2 4 -2 8v8q-2 14 4.5 26.5t20.5 21.5q12 10 27.5 15t31.5 7h2h4q8 0 15.5 -1t15.5 -5q6 -2 13 -6l12 -8l321 -320h-96z" />
<glyph unicode="&#xcd;" d="M193 1419q10 -6 19 -9t21 -5q10 -2 23 -2h25h12h12q4 0 10.5 1t12.5 1q12 2 23 5l20 5v-1415q-8 0 -19.5 1t-21.5 3q-6 0 -12.5 1t-10.5 1q-6 2 -12 2h-12q-12 0 -24.5 -1t-25.5 -3q-12 -2 -21 -3t-19 -1v1419zM0 1499l274 291l17 12l16 13q10 6 19.5 10t17.5 6q4 2 8 3 t8 1h5q2 0 6 2h4h4q16 0 29.5 -4t25.5 -12t18.5 -18.5t6.5 -22.5q0 -8 -3 -19.5t-12 -23.5q-4 -6 -10 -12.5t-12 -10.5l-16 -12q-8 -6 -19 -12l-307 -191h-80z" />
<glyph unicode="&#xce;" d="M193 1419q10 -6 19 -9t21 -5q10 -2 23 -2h25h12h12q4 0 10.5 1t12.5 1q12 2 23 5l20 5v-1415q-8 0 -19.5 1t-21.5 3q-6 0 -12.5 1t-10.5 1q-6 2 -12 2h-12q-12 0 -24.5 -1t-25.5 -3q-12 -2 -21 -3t-19 -1v1419zM-49 1499l274 371h97l274 -371h-80l-242 227l-241 -227h-82 z" />
<glyph unicode="&#xcf;" d="M193 1419q10 -6 19 -9t21 -5q10 -2 23 -2h25h12h12q4 0 10.5 1t12.5 1q12 2 23 5l20 5v-1415q-8 0 -19.5 1t-21.5 3q-6 0 -12.5 1t-10.5 1q-6 2 -12 2h-12q-12 0 -24.5 -1t-25.5 -3q-12 -2 -21 -3t-19 -1v1419zM-33 1628q4 -2 4 -1v3v3v3q0 23 6.5 41.5t22.5 30.5 q12 12 28.5 18.5t34.5 8.5h3h4q20 0 38.5 -5.5t34.5 -17.5t25.5 -30.5t9.5 -41.5q0 -27 -8 -48t-25 -36q-14 -14 -32.5 -20t-36.5 -6h-3h-1h-2q-18 0 -34 6t-32 18q-12 12 -21.5 30t-11.5 40zM371 1645q4 20 13 36.5t24 28.5q16 12 31.5 18.5t33.5 8.5h2h4q18 0 37 -6.5 t33 -18.5q16 -12 23.5 -29.5t7.5 -42.5q0 -27 -8.5 -47t-24.5 -34q-14 -14 -32.5 -20.5t-37.5 -6.5q-20 -2 -38.5 4t-35.5 20q-16 14 -24 36t-8 48v5z" />
<glyph unicode="&#xd0;" horiz-adv-x="1597" />
<glyph unicode="&#xd1;" horiz-adv-x="1597" d="M178 0v1419h96l983 -1081v1081q6 -6 13.5 -9t15.5 -5t18 -2h17h8h10q4 0 8.5 1t8.5 1q10 2 17 5t13 5v-1415h-79l-1000 1112v-1112h-6q-4 0 -6 2q-4 0 -7 1t-7 1q-8 2 -15.5 3t-15.5 1h-8q-4 0 -9 -2q-6 0 -10 -1t-8 -1q-8 -2 -17.5 -3t-19.5 -1zM451 1548q4 31 14 58.5 t27 50.5q16 23 34.5 39t38.5 28q8 6 16.5 11.5t16.5 7.5q4 2 8 3t8 3q2 0 6.5 1t8.5 3h3h3q2 0 4 2h4h2h4h3h3h8h7q2 -2 6 -2h6q6 -2 13 -3t16 -3q12 -2 24.5 -7t24.5 -11q6 -2 12 -5.5t12 -5.5q6 -4 12.5 -6t12.5 -6q10 -4 18.5 -9t18.5 -9l17 -8.5t18 -8.5q16 -8 33.5 -11 t31.5 -3q16 0 32.5 6t31.5 18q16 12 29.5 34t25.5 54l63 -12q-2 -10 -6 -21l-8 -24q-4 -12 -10 -24l-12 -25q-12 -23 -28.5 -43.5t-39.5 -38.5q-20 -18 -47 -27.5t-57 -9.5q-25 0 -47.5 3t-45.5 12q-20 8 -40 17l-37 17l-34 16l-32 15q-14 8 -28.5 12t-26.5 4 q-18 0 -31.5 -4t-24.5 -10q-8 -6 -17 -16.5t-17 -22.5q-2 -2 -3 -5t-1 -5l-4 -6q-1 -2 -3 -4t-3 -5t-3 -6l-3 -6l-3 -6z" />
<glyph unicode="&#xd2;" />
<glyph unicode="&#xd3;" horiz-adv-x="1710" d="M63 694v18v19q0 10 1.5 21.5t3.5 21.5q14 123 69.5 235.5t153.5 215.5q96 102 237.5 154.5t325.5 52.5q188 -6 322.5 -49.5t216.5 -127.5q82 -82 134 -172t75 -188q4 -12 6 -24.5t4 -22.5l4 -25l4 -24q4 -25 5 -48.5t3 -45.5v-4v-3v-4v-2v-4v-4v-3v-3q0 -170 -58.5 -304 t-176.5 -231q-119 -98 -253 -145t-284 -47h-8h-8h-9h-8q-25 0 -50 1t-52 5q-27 2 -53 8l-54 12q-104 23 -198 77.5t-180 138.5t-129.5 208.5t-43.5 288.5v4zM274 694q0 -162 40 -284.5t122 -208.5t186.5 -129t231.5 -43q115 0 212 43t173 129q78 86 123 208.5t57 280.5v4v4 v5v6v4v4v4v4q0 133 -40 244.5t-119 199.5q-82 90 -187.5 135.5t-234.5 45.5q-117 0 -205 -37t-148 -109q-61 -72 -104 -150.5t-68 -164.5q-8 -27 -14 -52.5t-10 -50.5t-7 -49t-8 -47v4zM549 1499l274 291l17 12l16 13q10 6 19.5 10t17.5 6q4 2 8 3t8 1h4q2 0 7 2h4h4 q16 0 29.5 -4t25.5 -12q10 -8 16.5 -18.5t8.5 -22.5q0 -8 -4.5 -19.5t-12.5 -23.5q-4 -6 -9 -12.5t-11 -10.5l-17 -12q-8 -6 -18 -12l-307 -191h-80z" />
<glyph unicode="&#xd4;" horiz-adv-x="1710" d="M63 694v18v19q0 10 1.5 21.5t3.5 21.5q14 123 69.5 235.5t153.5 215.5q96 102 237.5 154.5t325.5 52.5q188 -6 322.5 -49.5t216.5 -127.5q82 -82 134 -172t75 -188q4 -12 6 -24.5t4 -22.5l4 -25l4 -24q4 -25 5 -48.5t3 -45.5v-4v-3v-4v-2v-4v-4v-3v-3q0 -170 -58.5 -304 t-176.5 -231q-119 -98 -253 -145t-284 -47h-8h-8h-9h-8q-25 0 -50 1t-52 5q-27 2 -53 8l-54 12q-104 23 -198 77.5t-180 138.5t-129.5 208.5t-43.5 288.5v4zM274 694q0 -162 40 -284.5t122 -208.5t186.5 -129t231.5 -43q115 0 212 43t173 129q78 86 123 208.5t57 280.5v4v4 v5v6v4v4v4v4q0 133 -40 244.5t-119 199.5q-82 90 -187.5 135.5t-234.5 45.5q-117 0 -205 -37t-148 -109q-61 -72 -104 -150.5t-68 -164.5q-8 -27 -14 -52.5t-10 -50.5t-7 -49t-8 -47v4zM532 1499l275 371h96l275 -371h-82l-242 227l-242 -227h-80z" />
<glyph unicode="&#xd5;" horiz-adv-x="1710" d="M63 694v18v19q0 10 1.5 21.5t3.5 21.5q14 123 69.5 235.5t153.5 215.5q96 102 237.5 154.5t325.5 52.5q188 -6 322.5 -49.5t216.5 -127.5q82 -82 134 -172t75 -188q4 -12 6 -24.5t4 -22.5l4 -25l4 -24q4 -25 5 -48.5t3 -45.5v-4v-3v-4v-2v-4v-4v-3v-3q0 -170 -58.5 -304 t-176.5 -231q-119 -98 -253 -145t-284 -47h-8h-8h-9h-8q-25 0 -50 1t-52 5q-27 2 -53 8l-54 12q-104 23 -198 77.5t-180 138.5t-129.5 208.5t-43.5 288.5v4zM274 694q0 -162 40 -284.5t122 -208.5t186.5 -129t231.5 -43q115 0 212 43t173 129q78 86 123 208.5t57 280.5v4v4 v5v6v4v4v4v4q0 133 -40 244.5t-119 199.5q-82 90 -187.5 135.5t-234.5 45.5q-117 0 -205 -37t-148 -109q-61 -72 -104 -150.5t-68 -164.5q-8 -27 -14 -52.5t-10 -50.5t-7 -49t-8 -47v4zM500 1532q4 33 14 60.5t29 49.5q16 23 35.5 40.5t39.5 29.5q8 4 15.5 9t15.5 8 q6 4 13.5 5t15.5 3h3q1 0 3 2h3h3h7h8q10 0 20 -1t20 -5q10 -2 21.5 -5.5l24.5 -7.5l8 -4q4 -2 8 -2l8 -4l8 -4l8 -4q4 -2 11 -4l8 -4l8 -4q10 -4 18.5 -9.5t18.5 -9.5q8 -4 17.5 -8t17.5 -8q16 -8 33.5 -11.5t31.5 -3.5q16 0 32.5 6.5t31.5 18.5q16 12 28.5 33.5t24.5 54.5 l66 -12q-2 -10 -7 -22l-8 -23q-4 -12 -10 -25l-12 -24q-14 -23 -30.5 -43.5t-39.5 -38.5q-20 -18 -47 -27.5t-57 -9.5q-25 0 -47.5 3t-45.5 11q-20 8 -39 18l-36 17l-35 15q-16 7 -33 16q-14 8 -27.5 12t-25.5 4q-20 0 -34.5 -4t-25.5 -10q-8 -8 -17 -18.5t-17 -24.5 q-2 -4 -4 -9.5t-5 -9.5q-2 -2 -3 -5t-1 -5l-3 -6q-1 -2 -3 -4z" />
<glyph unicode="&#xd6;" horiz-adv-x="1710" d="M63 694v18v19q0 10 1.5 21.5t3.5 21.5q14 123 69.5 235.5t153.5 215.5q96 102 237.5 154.5t325.5 52.5q188 -6 322.5 -49.5t216.5 -127.5q82 -82 134 -172t75 -188q4 -12 6 -24.5t4 -22.5l4 -25l4 -24q4 -25 5 -48.5t3 -45.5v-4v-3v-4v-2v-4v-4v-3v-3q0 -170 -58.5 -304 t-176.5 -231q-119 -98 -253 -145t-284 -47h-8h-8h-9h-8q-25 0 -50 1t-52 5q-27 2 -53 8l-54 12q-104 23 -198 77.5t-180 138.5t-129.5 208.5t-43.5 288.5v4zM274 694q0 -162 40 -284.5t122 -208.5t186.5 -129t231.5 -43q115 0 212 43t173 129q78 86 123 208.5t57 280.5v4v4 v5v6v4v4v4v4q0 133 -40 244.5t-119 199.5q-82 90 -187.5 135.5t-234.5 45.5q-117 0 -205 -37t-148 -109q-61 -72 -104 -150.5t-68 -164.5q-8 -27 -14 -52.5t-10 -50.5t-7 -49t-8 -47v4zM532 1628q0 -2 0 -1v3v3v3q-2 23 6.5 41.5t22.5 30.5q16 12 32.5 18.5t35.5 8.5h2h4 q20 0 38.5 -5.5t35.5 -17.5q16 -12 24 -30.5t8 -41.5q0 -27 -8 -48t-24 -36q-14 -14 -33 -20t-37 -6q-18 -2 -35.5 4t-34.5 18q-14 12 -23 29.5t-14 42.5v4zM936 1645q4 20 13 36.5t24 28.5q16 12 31.5 18.5t33.5 8.5h2h4q18 0 37 -6.5t33 -18.5q16 -12 23.5 -29.5 t7.5 -42.5q0 -27 -8.5 -47t-24.5 -34q-14 -14 -32.5 -20.5t-37.5 -6.5q-20 -2 -38.5 4t-34.5 20t-24.5 36t-8.5 48v5z" />
<glyph unicode="&#xd7;" />
<glyph unicode="&#xd8;" horiz-adv-x="1710" d="M80 662q0 156 49 293t147 255q98 119 239.5 178.5t322.5 59.5q78 0 145.5 -9t122.5 -26q55 -16 101 -34.5t79 -39.5q4 -2 7 -5t7 -5q2 -4 6.5 -6t6.5 -4q4 -2 7 -4t7 -4q2 -2 6 -4t6 -4l177 213q4 -10 7 -16.5t7 -10.5t9 -7t9 -7q2 -2 4 -3.5t4 -3.5q0 -2 2.5 -3t4.5 -3 l3 -3q1 -1 3 -1l3 -3l3 -3h2v-2h2q0 -2 1 -2l-177 -191q4 -8 7 -12t5 -8l4 -4q2 -2 4 -2q0 -2 2 -4l5 -4q39 -45 72.5 -94.5t64.5 -102.5q31 -55 46 -135t15 -186q0 -180 -62.5 -320.5t-187.5 -239.5q-125 -98 -271 -146t-316 -48q-25 0 -50.5 3t-52.5 7t-53.5 10t-52.5 17 l-55 17q-28 9 -54 24q-27 12 -52.5 28.5t-49.5 34.5l-193 -221q0 12 -5 23.5t-15 21.5t-21.5 15.5t-23.5 5.5l194 225q-8 2 -15 6t-13 10q-8 6 -16 13l-15 16q-33 31 -61.5 76t-55.5 102q-27 59 -39 127t-12 145v5zM1354 436q2 2 5 8.5t5 14.5q2 4 3 8t3 8q0 6 1 11.5 t3 11.5q4 12 6 24.5t6 26.5q2 14 5.5 29.5t5.5 31.5q4 33 7 68t3 74v12v14q-2 6 -2 14v13q-2 14 -3 27.5t-1 27.5q-6 35 -15.5 71t-21.5 68q-12 35 -30.5 66t-43.5 59l-854 -931q35 -33 73 -56.5t77 -42.5q39 -18 79 -30.5t78 -18.5q6 -2 12.5 -3t14.5 -3q6 0 12 -1t13 -1 q12 -2 25 -2h28q84 0 163 24.5t148 75.5q72 49 120 124t75 173v4zM1241 1194q-10 20 -30.5 40.5t-51.5 39.5q-31 18 -62.5 32.5t-66.5 26.5q-25 8 -49.5 14.5t-48.5 10.5q-25 4 -43.5 6t-34.5 2q-143 -8 -249.5 -63.5t-178.5 -157.5q-70 -104 -105.5 -220t-35.5 -243v-5v-5 v-6v-7v-5v-5q0 -4 1 -6t1 -6q2 -49 9 -98.5t19 -98.5t31 -96t41 -90z" />
<glyph unicode="&#xd9;" horiz-adv-x="1597" d="M178 549v870q14 -6 27.5 -9t25.5 -5t25 -2h23h4h4h2h4h8q4 0 8 2h14q7 0 15 2l16 4l17 4v-835q0 -143 29.5 -242.5t91.5 -159.5q61 -59 140 -89t175 -30q121 0 206 33t134 96q49 66 76.5 159t33.5 214v858q6 -4 12.5 -7t12.5 -5t12 -3t13 -1h2h4h4h4h15q7 0 16 2 q8 2 17 5t17 5v-819q0 -143 -33.5 -257t-101.5 -200q-68 -88 -182.5 -130t-277.5 -42h-10h-9h-9h-9q-170 0 -285 43t-174 131q-57 90 -87 190.5t-30 213.5v4zM887 1532l-322 209q-14 4 -23.5 12t-13.5 16q-6 10 -9 17.5t-3 15.5q0 14 7 26.5t22 22.5q14 10 29.5 15.5 t31.5 5.5q8 0 15.5 -1t15.5 -5q6 -2 12 -6l13 -9l321 -319h-96z" />
<glyph unicode="&#xda;" horiz-adv-x="1597" d="M178 549v870q14 -6 27.5 -9t25.5 -5t25 -2h23h4h4h2h4h8q4 0 8 2h14q7 0 15 2l16 4l17 4v-835q0 -143 29.5 -242.5t91.5 -159.5q61 -59 140 -89t175 -30q121 0 206 33t134 96q49 66 76.5 159t33.5 214v858q6 -4 12.5 -7t12.5 -5t12 -3t13 -1h2h4h4h4h15q7 0 16 2 q8 2 17 5t17 5v-819q0 -143 -33.5 -257t-101.5 -200q-68 -88 -182.5 -130t-277.5 -42h-10h-9h-9h-9q-170 0 -285 43t-174 131q-57 90 -87 190.5t-30 213.5v4zM436 1516l273 290q6 4 14 11l16 12q4 4 8.5 6t10.5 4l8 4l8 4q4 0 9 1t12 3h4q2 0 6 2h5h5q16 0 29.5 -4t25.5 -12 q10 -8 16.5 -18.5t8.5 -22.5q0 -8 -4 -19.5t-12 -23.5q-4 -6 -9.5 -12t-11.5 -10l-16 -13q-8 -6 -19 -12l-307 -190h-80z" />
<glyph unicode="&#xdb;" horiz-adv-x="1597" d="M178 549v870q14 -6 27.5 -9t25.5 -5t25 -2h23h4h4h2h4h8q4 0 8 2h14q7 0 15 2l16 4l17 4v-835q0 -143 29.5 -242.5t91.5 -159.5q61 -59 140 -89t175 -30q121 0 206 33t134 96q49 66 76.5 159t33.5 214v858q6 -4 12.5 -7t12.5 -5t12 -3t13 -1h2h4h4h4h15q7 0 16 2 q8 2 17 5t17 5v-819q0 -143 -33.5 -257t-101.5 -200q-68 -88 -182.5 -130t-277.5 -42h-10h-9h-9h-9q-170 0 -285 43t-174 131q-57 90 -87 190.5t-30 213.5v4zM467 1516l274 370h97l274 -370h-80l-241 225l-242 -225h-82z" />
<glyph unicode="&#xdc;" horiz-adv-x="1597" d="M178 549v870q14 -6 27.5 -9t25.5 -5t25 -2h23h4h4h2h4h8q4 0 8 2h14q7 0 15 2l16 4l17 4v-835q0 -143 29.5 -242.5t91.5 -159.5q61 -59 140 -89t175 -30q121 0 206 33t134 96q49 66 76.5 159t33.5 214v858q6 -4 12.5 -7t12.5 -5t12 -3t13 -1h2h4h4h4h15q7 0 16 2 q8 2 17 5t17 5v-819q0 -143 -33.5 -257t-101.5 -200q-68 -88 -182.5 -130t-277.5 -42h-10h-9h-9h-9q-170 0 -285 43t-174 131q-57 90 -87 190.5t-30 213.5v4zM532 1645q0 -2 0 -1v3v3v3q-2 23 6.5 41t22.5 30q16 12 32.5 18.5t35.5 8.5h2h4q20 0 38.5 -5t35.5 -17 q16 -12 24 -31t8 -41q0 -27 -8 -48.5t-24 -35.5q-14 -14 -33 -20.5t-37 -6.5q-18 -2 -35.5 4t-34.5 19q-14 12 -23 29.5t-14 41.5v5zM936 1661q4 20 13 36.5t24 28.5q16 12 31.5 18.5t33.5 8.5h2h4q18 0 37 -6t33 -18q16 -12 23.5 -30t7.5 -42q0 -27 -8.5 -47.5t-24.5 -34.5 q-14 -14 -32.5 -20.5t-37.5 -6.5q-20 -2 -38.5 4.5t-34.5 20.5t-24.5 35.5t-8.5 48.5v4z" />
<glyph unicode="&#xdd;" />
<glyph unicode="&#xde;" horiz-adv-x="1144" />
<glyph unicode="&#xdf;" horiz-adv-x="1144" d="M145 -16v1065q0 127 29 219t86 149q57 55 119.5 87t132.5 38h4q2 0 4 2h4h4h10h11q70 0 123 -15.5t90 -43.5q37 -29 61.5 -61.5t36.5 -67.5q4 -8 5 -17.5t3 -19.5q2 -8 3 -17.5t1 -17.5v-8v-8v-4v-2q-2 -2 -2 -5v-4q-4 -31 -14 -57.5t-27 -48.5q-14 -23 -32 -44l-39 -44 l-16 -16l-15 -15l-16 -16l-17 -17q-6 -6 -10 -11t-8 -9q-4 -6 -7 -11.5t-7 -9.5q-8 -10 -13 -20l-8 -21l-4 -20q-2 -10 -2 -21q0 -20 6 -40.5t18 -36.5q12 -18 29 -32.5t37 -25.5q4 -2 8 -5t8 -7q2 -2 4.5 -3t6.5 -1q2 -2 5 -3t5 -3q59 -37 111.5 -76t101.5 -82 q47 -43 71.5 -92t24.5 -107q0 -29 -8 -59.5t-25 -62.5q-14 -33 -40.5 -69t-61.5 -75q-20 -23 -43 -41t-47 -31q-12 -6 -24.5 -11t-24.5 -9q-14 -4 -26.5 -8t-25.5 -6q-12 -4 -24 -5t-25 -4q-12 -2 -24.5 -3t-24.5 -1q-35 0 -66.5 4.5t-60.5 12.5q-27 8 -48 17t-36 22l64 116 q16 -18 36.5 -31.5t41.5 -23.5q23 -8 44 -14t44 -10h4h6q2 -2 4 -3h4h9h12q25 -2 48 3.5t44 13.5q23 10 41 25.5t32 35.5q14 18 23.5 36t15.5 34t9.5 32.5t3.5 30.5q0 37 -14.5 69t-45.5 58q-31 29 -63 54l-68 49l-12 8l-12 8q-2 2 -5.5 4t-5.5 4q-4 2 -6 4.5t-6 4.5 q-8 4 -15 8t-14 10q-8 4 -14 9t-12 11q-39 23 -69 47.5t-52 49.5q-20 25 -30.5 52.5t-10.5 55.5q0 25 8 52.5t23 56.5q16 29 40.5 59.5t57.5 63.5q29 27 53.5 54.5t46.5 57.5q23 29 35 63t12 70v8v5v4v4q-2 2 -2 4v4v4v6q-2 2 -2 4v5v4v6q-2 2 -2 5v5q-8 25 -23.5 49.5 t-39.5 44.5q-25 23 -59.5 34t-82.5 11q-51 0 -90 -19.5t-61 -60.5q-23 -39 -38 -83t-24 -91q-6 -31 -9 -60.5t-3 -57.5v-51v-42v-5v-7v-4v-4v-995q-12 2 -23.5 5t-21.5 5q-8 2 -17 2h-18h-9h-9q-6 0 -11 -1t-10 -1l-19 -5q-12 -3 -24 -5z" />
<glyph unicode="&#xe0;" horiz-adv-x="1032" d="M96 225q0 45 14.5 86t43.5 76t79 62.5t121 46.5l258 53q23 2 40.5 11t27.5 24q10 16 15 34.5t5 38.5v8v7q-2 4 -2 8v8q-2 8 -3 16.5t-5 16.5q-10 33 -30.5 63.5t-49.5 57.5q-29 29 -64.5 43t-78.5 14h-3h-5h-4h-4q-25 0 -45.5 -4t-38.5 -12t-37 -18.5t-37 -24.5 q-10 -8 -21 -19l-20 -20l-22 -23q-11 -12 -21 -24l-31 4v112q4 0 10.5 3.5t12.5 5.5l12 8l12 8q29 16 61 30l68 27q37 12 77 19.5t85 7.5q90 0 157.5 -19.5t110.5 -58.5t64.5 -104.5t21.5 -155.5v-512q0 -20 3.5 -31.5t11.5 -17.5t18 -9t23 -3h12q6 0 14 2q8 0 15.5 2 l15.5 4v-43q-10 -12 -21.5 -19.5t-23.5 -11.5q-6 -2 -12 -2t-13 -2q-8 -2 -14 -3t-12 -1h-3q-1 0 -1 -2h-3h-3h-4h-4h-3q-31 0 -59.5 7t-52.5 21q-27 16 -41.5 39t-18.5 50q-6 -6 -11 -10.5t-9 -8.5l-11.5 -8t-9.5 -8q-37 -29 -71.5 -49.5t-69.5 -30.5q-35 -12 -68.5 -18.5 t-64.5 -6.5q-61 0 -111.5 17.5t-91.5 52.5q-39 37 -59.5 83t-20.5 99v4zM694 209v274q-113 -14 -194.5 -32.5t-130.5 -47.5q-49 -27 -75 -65.5t-26 -91.5v-16q0 -7 2 -13q0 -6 1 -13t3 -16v-3q0 -1 2 -3v-3v-3v-3q0 -1 3 -1q0 -2 1 -3l3 -3q10 -18 25.5 -34.5t39.5 -33.5 q25 -14 52.5 -22t60.5 -8q16 0 31.5 2t31.5 6t32.5 11t33.5 17q12 8 25.5 18.5l27.5 22.5l12 13l15 14l12 16l12 17v4zM580 1096l-322 211q-6 2 -12 5t-10 7t-7.5 8t-7.5 8q-2 4 -5 7.5t-5 7.5t-2 8v8q0 14 7 26.5t22 22.5q14 10 29.5 15.5t31.5 5.5q8 0 15.5 -1t15.5 -5 q6 -2 12 -7l12 -8l324 -319h-98z" />
<glyph unicode="&#xe1;" horiz-adv-x="1032" d="M96 225q0 45 14.5 86t43.5 76t79 62.5t121 46.5l258 53q23 2 40.5 11t27.5 24q10 16 15 34.5t5 38.5v8v7q-2 4 -2 8v8q-2 8 -3 16.5t-5 16.5q-10 33 -30.5 63.5t-49.5 57.5q-29 29 -64.5 43t-78.5 14h-3h-5h-4h-4q-25 0 -45.5 -4t-38.5 -12t-37 -18.5t-37 -24.5 q-10 -8 -21 -19l-20 -20l-22 -23q-11 -12 -21 -24l-31 4v112q4 0 10.5 3.5t12.5 5.5l12 8l12 8q29 16 61 30l68 27q37 12 77 19.5t85 7.5q90 0 157.5 -19.5t110.5 -58.5t64.5 -104.5t21.5 -155.5v-512q0 -20 3.5 -31.5t11.5 -17.5t18 -9t23 -3h12q6 0 14 2q8 0 15.5 2 l15.5 4v-43q-10 -12 -21.5 -19.5t-23.5 -11.5q-6 -2 -12 -2t-13 -2q-8 -2 -14 -3t-12 -1h-3q-1 0 -1 -2h-3h-3h-4h-4h-3q-31 0 -59.5 7t-52.5 21q-27 16 -41.5 39t-18.5 50q-6 -6 -11 -10.5t-9 -8.5l-11.5 -8t-9.5 -8q-37 -29 -71.5 -49.5t-69.5 -30.5q-35 -12 -68.5 -18.5 t-64.5 -6.5q-61 0 -111.5 17.5t-91.5 52.5q-39 37 -59.5 83t-20.5 99v4zM694 209v274q-113 -14 -194.5 -32.5t-130.5 -47.5q-49 -27 -75 -65.5t-26 -91.5v-16q0 -7 2 -13q0 -6 1 -13t3 -16v-3q0 -1 2 -3v-3v-3v-3q0 -1 3 -1q0 -2 1 -3l3 -3q10 -18 25.5 -34.5t39.5 -33.5 q25 -14 52.5 -22t60.5 -8q16 0 31.5 2t31.5 6t32.5 11t33.5 17q12 8 25.5 18.5l27.5 22.5l12 13l15 14l12 16l12 17v4zM307 1096l273 290q6 4 14 11l16 12q4 4 8.5 6t10.5 4l8 4l8 4q4 0 9 1.5l12 3.5h4q2 0 6 2h5h5q16 0 29.5 -4.5t25.5 -12.5q10 -8 16.5 -18t8.5 -23 q0 -8 -4 -19t-12 -24q-4 -6 -9.5 -12t-11.5 -10l-16 -13q-8 -6 -19 -12l-307 -190h-80z" />
<glyph unicode="&#xe2;" horiz-adv-x="1032" d="M96 225q0 45 14.5 86t43.5 76t79 62.5t121 46.5l258 53q23 2 40.5 11t27.5 24q10 16 15 34.5t5 38.5v8v7q-2 4 -2 8v8q-2 8 -3 16.5t-5 16.5q-10 33 -30.5 63.5t-49.5 57.5q-29 29 -64.5 43t-78.5 14h-3h-5h-4h-4q-25 0 -45.5 -4t-38.5 -12t-37 -18.5t-37 -24.5 q-10 -8 -21 -19l-20 -20l-22 -23q-11 -12 -21 -24l-31 4v112q4 0 10.5 3.5t12.5 5.5l12 8l12 8q29 16 61 30l68 27q37 12 77 19.5t85 7.5q90 0 157.5 -19.5t110.5 -58.5t64.5 -104.5t21.5 -155.5v-512q0 -20 3.5 -31.5t11.5 -17.5t18 -9t23 -3h12q6 0 14 2q8 0 15.5 2 l15.5 4v-43q-10 -12 -21.5 -19.5t-23.5 -11.5q-6 -2 -12 -2t-13 -2q-8 -2 -14 -3t-12 -1h-3q-1 0 -1 -2h-3h-3h-4h-4h-3q-31 0 -59.5 7t-52.5 21q-27 16 -41.5 39t-18.5 50q-6 -6 -11 -10.5t-9 -8.5l-11.5 -8t-9.5 -8q-37 -29 -71.5 -49.5t-69.5 -30.5q-35 -12 -68.5 -18.5 t-64.5 -6.5q-61 0 -111.5 17.5t-91.5 52.5q-39 37 -59.5 83t-20.5 99v4zM694 209v274q-113 -14 -194.5 -32.5t-130.5 -47.5q-49 -27 -75 -65.5t-26 -91.5v-16q0 -7 2 -13q0 -6 1 -13t3 -16v-3q0 -1 2 -3v-3v-3v-3q0 -1 3 -1q0 -2 1 -3l3 -3q10 -18 25.5 -34.5t39.5 -33.5 q25 -14 52.5 -22t60.5 -8q16 0 31.5 2t31.5 6t32.5 11t33.5 17q12 8 25.5 18.5l27.5 22.5l12 13l15 14l12 16l12 17v4zM209 1081l274 371h97l274 -371h-80l-242 226l-241 -226h-82z" />
<glyph unicode="&#xe3;" horiz-adv-x="1032" d="M96 225q0 45 14.5 86t43.5 76t79 62.5t121 46.5l258 53q23 2 40.5 11t27.5 24q10 16 15 34.5t5 38.5v8v7q-2 4 -2 8v8q-2 8 -3 16.5t-5 16.5q-10 33 -30.5 63.5t-49.5 57.5q-29 29 -64.5 43t-78.5 14h-3h-5h-4h-4q-25 0 -45.5 -4t-38.5 -12t-37 -18.5t-37 -24.5 q-10 -8 -21 -19l-20 -20l-22 -23q-11 -12 -21 -24l-31 4v112q4 0 10.5 3.5t12.5 5.5l12 8l12 8q29 16 61 30l68 27q37 12 77 19.5t85 7.5q90 0 157.5 -19.5t110.5 -58.5t64.5 -104.5t21.5 -155.5v-512q0 -20 3.5 -31.5t11.5 -17.5t18 -9t23 -3h12q6 0 14 2q8 0 15.5 2 l15.5 4v-43q-10 -12 -21.5 -19.5t-23.5 -11.5q-6 -2 -12 -2t-13 -2q-8 -2 -14 -3t-12 -1h-3q-1 0 -1 -2h-3h-3h-4h-4h-3q-31 0 -59.5 7t-52.5 21q-27 16 -41.5 39t-18.5 50q-6 -6 -11 -10.5t-9 -8.5l-11.5 -8t-9.5 -8q-37 -29 -71.5 -49.5t-69.5 -30.5q-35 -12 -68.5 -18.5 t-64.5 -6.5q-61 0 -111.5 17.5t-91.5 52.5q-39 37 -59.5 83t-20.5 99v4zM694 209v274q-113 -14 -194.5 -32.5t-130.5 -47.5q-49 -27 -75 -65.5t-26 -91.5v-16q0 -7 2 -13q0 -6 1 -13t3 -16v-3q0 -1 2 -3v-3v-3v-3q0 -1 3 -1q0 -2 1 -3l3 -3q10 -18 25.5 -34.5t39.5 -33.5 q25 -14 52.5 -22t60.5 -8q16 0 31.5 2t31.5 6t32.5 11t33.5 17q12 8 25.5 18.5l27.5 22.5l12 13l15 14l12 16l12 17v4zM178 1112q4 31 14.5 58.5t26.5 50.5t34.5 41t39.5 30q8 4 15 9.5t16 7.5q4 2 8 3t8 3q2 0 6 1t8 3h3q1 0 3 2h4h3h7h5h4h4q2 -2 4 -2h4h9h10q14 -2 29 -8 l30 -13q8 -2 15.5 -6t15.5 -6q6 -4 13 -7t15 -7q10 -4 18.5 -9.5t18.5 -9.5q8 -4 17.5 -8t17.5 -8q18 -8 35.5 -11t34.5 -3q16 0 32.5 6t30.5 18q16 12 28.5 34t25.5 54l63 -12q-2 -12 -6 -24l-8 -23q-2 -6 -5 -12l-6 -11q-4 -6 -6 -12t-6 -12q-12 -23 -28.5 -44.5 t-38.5 -39.5q-20 -18 -47 -27.5t-58 -9.5q-25 0 -47.5 3t-44.5 11q-20 8 -40 18l-38 17q-18 10 -34 18l-31 15q-14 8 -28.5 12t-27.5 4q-18 0 -31.5 -4t-23.5 -10q-8 -6 -17.5 -16.5t-17.5 -22.5q-2 -2 -3 -5t-1 -5l-3 -6l-3 -7q-2 -2 -3 -5t-3 -5l-3 -6l-3 -6z" />
<glyph unicode="&#xe4;" horiz-adv-x="1032" d="M96 225q0 45 14.5 86t43.5 76t79 62.5t121 46.5l258 53q23 2 40.5 11t27.5 24q10 16 15 34.5t5 38.5v8v7q-2 4 -2 8v8q-2 8 -3 16.5t-5 16.5q-10 33 -30.5 63.5t-49.5 57.5q-29 29 -64.5 43t-78.5 14h-3h-5h-4h-4q-25 0 -45.5 -4t-38.5 -12t-37 -18.5t-37 -24.5 q-10 -8 -21 -19l-20 -20l-22 -23q-11 -12 -21 -24l-31 4v112q4 0 10.5 3.5t12.5 5.5l12 8l12 8q29 16 61 30l68 27q37 12 77 19.5t85 7.5q90 0 157.5 -19.5t110.5 -58.5t64.5 -104.5t21.5 -155.5v-512q0 -20 3.5 -31.5t11.5 -17.5t18 -9t23 -3h12q6 0 14 2q8 0 15.5 2 l15.5 4v-43q-10 -12 -21.5 -19.5t-23.5 -11.5q-6 -2 -12 -2t-13 -2q-8 -2 -14 -3t-12 -1h-3q-1 0 -1 -2h-3h-3h-4h-4h-3q-31 0 -59.5 7t-52.5 21q-27 16 -41.5 39t-18.5 50q-6 -6 -11 -10.5t-9 -8.5l-11.5 -8t-9.5 -8q-37 -29 -71.5 -49.5t-69.5 -30.5q-35 -12 -68.5 -18.5 t-64.5 -6.5q-61 0 -111.5 17.5t-91.5 52.5q-39 37 -59.5 83t-20.5 99v4zM694 209v274q-113 -14 -194.5 -32.5t-130.5 -47.5q-49 -27 -75 -65.5t-26 -91.5v-16q0 -7 2 -13q0 -6 1 -13t3 -16v-3q0 -1 2 -3v-3v-3v-3q0 -1 3 -1q0 -2 1 -3l3 -3q10 -18 25.5 -34.5t39.5 -33.5 q25 -14 52.5 -22t60.5 -8q16 0 31.5 2t31.5 6t32.5 11t33.5 17q12 8 25.5 18.5l27.5 22.5l12 13l15 14l12 16l12 17v4zM225 1210q0 -2 0 -1v3v3v4q-2 23 6.5 40t22.5 29q16 12 32.5 18.5t35.5 8.5h2h4q20 0 38.5 -5t34.5 -18q16 -12 25.5 -30.5t9.5 -40.5q0 -27 -8 -48.5 t-25 -33.5q-14 -14 -32.5 -20.5t-36.5 -6.5h-3h-1h-2q-18 0 -33.5 6t-32.5 19q-14 12 -23.5 29.5t-13.5 39.5v4zM629 1225q4 20 13 36.5t24 28.5q16 12 31.5 18.5t33.5 8.5h2h4q18 0 37 -6t33 -19q16 -12 23.5 -29.5t7.5 -41.5q0 -27 -8.5 -47.5t-24.5 -32.5 q-14 -14 -32.5 -20.5t-37.5 -6.5q-20 -2 -38.5 4t-34.5 21q-16 14 -24.5 34.5t-8.5 47.5v4z" />
<glyph unicode="&#xe5;" horiz-adv-x="1032" d="M96 225q0 45 14.5 86t43.5 76t79 62.5t121 46.5l258 53q23 2 40.5 11t27.5 24q10 16 15 34.5t5 38.5v8v7q-2 4 -2 8v8q-2 8 -3 16.5t-5 16.5q-10 33 -30.5 63.5t-49.5 57.5q-29 29 -64.5 43t-78.5 14h-3h-5h-4h-4q-25 0 -45.5 -4t-38.5 -12t-37 -18.5t-37 -24.5 q-10 -8 -21 -19l-20 -20l-22 -23q-11 -12 -21 -24l-31 4v112q4 0 10.5 3.5t12.5 5.5l12 8l12 8q29 16 61 30l68 27q37 12 77 19.5t85 7.5q90 0 157.5 -19.5t110.5 -58.5t64.5 -104.5t21.5 -155.5v-512q0 -20 3.5 -31.5t11.5 -17.5t18 -9t23 -3h12q6 0 14 2q8 0 15.5 2 l15.5 4v-43q-10 -12 -21.5 -19.5t-23.5 -11.5q-6 -2 -12 -2t-13 -2q-8 -2 -14 -3t-12 -1h-3q-1 0 -1 -2h-3h-3h-4h-4h-3q-31 0 -59.5 7t-52.5 21q-27 16 -41.5 39t-18.5 50q-6 -6 -11 -10.5t-9 -8.5l-11.5 -8t-9.5 -8q-37 -29 -71.5 -49.5t-69.5 -30.5q-35 -12 -68.5 -18.5 t-64.5 -6.5q-61 0 -111.5 17.5t-91.5 52.5q-39 37 -59.5 83t-20.5 99v4zM694 209v274q-113 -14 -194.5 -32.5t-130.5 -47.5q-49 -27 -75 -65.5t-26 -91.5v-16q0 -7 2 -13q0 -6 1 -13t3 -16v-3q0 -1 2 -3v-3v-3v-3q0 -1 3 -1q0 -2 1 -3l3 -3q10 -18 25.5 -34.5t39.5 -33.5 q25 -14 52.5 -22t60.5 -8q16 0 31.5 2t31.5 6t32.5 11t33.5 17q12 8 25.5 18.5l27.5 22.5l12 13l15 14l12 16l12 17v4zM307 1290v10q0 6 2 15q0 8 3 16t5 17q10 31 29 58.5t45 53.5q29 25 63.5 38t77.5 13q41 -4 74 -16t56 -35q23 -20 40 -43.5t25 -48.5q4 -12 6 -22l4 -21 q2 -10 3 -19.5t1 -19.5v-4v-4q-2 -4 -2 -6v-4v-5v-6q-2 -2 -2 -4v-4q-6 -33 -22.5 -62.5t-44.5 -56.5q-27 -27 -62 -40t-76 -13q-43 0 -78.5 13.5t-66.5 39.5q-31 27 -49.5 57t-26.5 62q-2 4 -3 8.5t-1 10.5v9v9v4zM403 1290q4 -31 13.5 -52t25.5 -36q16 -14 36 -22.5 t40 -8.5h2h4q23 0 44.5 7.5t39.5 21.5t27.5 35.5t9.5 50.5q0 31 -9 54.5t-28 39.5q-18 16 -38.5 24.5t-43.5 8.5q-20 0 -40.5 -7t-39.5 -24q-18 -14 -28 -38.5t-15 -57.5v4z" />
<glyph unicode="&#xe6;" horiz-adv-x="1597" d="M49 242q0 70 24.5 120t73.5 76q49 29 103.5 47.5t111.5 28.5l26 4l28 4q6 0 12 1t14 3q6 0 12.5 1t12.5 3q33 4 62.5 9.5t56.5 11.5t45 16.5t31 24.5q2 8 3 16t3 17v8q0 4 2 8v8v8v3v4v4v7v5q-2 41 -18.5 79t-45.5 70q-27 35 -69.5 52.5t-100.5 17.5q-8 0 -17 -1t-20 -3 q-8 -2 -17 -3t-20 -3q-31 -8 -58.5 -21.5t-53.5 -31.5q-27 -18 -44.5 -39t-27.5 -43l-33 4v112q14 14 29.5 27.5t34.5 26.5q18 10 36.5 19l37.5 18l54 18t50 10q25 4 45.5 5t34.5 1q53 0 104.5 -11t98.5 -34q47 -20 77.5 -50t43.5 -66q16 29 36.5 50t44.5 38 q23 16 47.5 29.5t51.5 21.5q18 6 36.5 10t36.5 6q18 4 36 5t32 1q115 0 196 -33.5t130 -101.5t73.5 -142.5t26.5 -156.5v-11v-9q-2 -6 -2 -12v-9q0 -10 -1 -20.5t-3 -20.5l-709 4v-7v-5v-4v-2q-2 -2 -2 -4v-4v-3v-3q0 -76 24.5 -141.5t76.5 -121.5q49 -57 109.5 -84.5 t129.5 -27.5q47 0 88 6t74 18q35 12 62.5 26.5t48.5 29.5q4 4 8 7t8 7q4 2 8 6l6 6l6 6q2 2 5 7q2 2 4 5t4 5v-92q-14 -23 -38 -40.5t-52 -33.5q-31 -14 -62 -24.5t-63 -14.5q-8 -2 -16.5 -3t-14.5 -3q-8 -2 -16.5 -3t-16.5 -3q-14 -2 -29.5 -3t-29.5 -1q-76 0 -137.5 11 t-108.5 36q-45 25 -81 53.5t-62 58.5q-8 8 -14.5 15.5t-12.5 15.5l-11 15q-5 7 -9 16q-18 -59 -54.5 -104.5t-89.5 -75.5q-53 -27 -110.5 -42.5t-116.5 -15.5h-4h-4q-4 2 -6 2h-5h-9h-9q-47 8 -90 27.5t-84 54.5q-39 35 -59.5 77t-20.5 87v3v3v2q0 2 2 4v1v3v3v4v4zM662 500 q-6 -4 -12.5 -6t-10.5 -5q-6 -2 -12 -3t-13 -3q-6 -2 -12 -3t-14 -1q-6 -2 -13.5 -3t-13.5 -3q-4 0 -8 -1t-8 -1q-6 -2 -10.5 -3t-8.5 -1q-4 -2 -8 -3t-8 -1q-6 -2 -10 -2h-8q-49 -10 -92.5 -25.5t-84.5 -38.5q-39 -20 -60.5 -59t-21.5 -92v-8v-9q0 -6 1.5 -10t1.5 -8 q0 -8 2 -17.5l4 -19.5q4 -23 21.5 -41t43.5 -35q29 -14 60.5 -21t64.5 -7h3h3h4h8h5q37 4 71.5 20t65.5 43q31 29 49 75t21 109v183zM1370 580q0 63 -16.5 121.5t-46.5 109.5q-31 53 -80 78.5t-115 25.5t-115 -25.5t-82 -78.5q-33 -51 -52 -110.5t-25 -125.5z" />
<glyph unicode="&#xe7;" horiz-adv-x="1032" d="M63 516q4 106 34 187t85 137q55 55 116.5 92t127.5 55l44.5 11.5t41.5 7.5q23 4 43 5t41 1h20q10 0 23 -2q10 0 20.5 -1t20.5 -1q23 -2 44 -7l42 -8q10 -2 20.5 -6t22.5 -6l20 -8l21 -8q23 -8 44 -20.5t42 -29.5l-49 -141h-33q0 2 -3 10.5t-7 16.5q-2 4 -6 9l-9 11 q-4 4 -8 9.5t-8 9.5q-16 16 -38.5 32.5t-51.5 30.5t-60.5 21.5t-66.5 7.5q-84 -2 -147.5 -38t-106.5 -101q-43 -66 -64.5 -138.5t-21.5 -152.5v-3v-3v-4v-3q2 -80 26.5 -152.5t69.5 -137.5q47 -68 116 -102t161 -38q16 0 36.5 4.5t45.5 12.5t50 20.5l52 26.5q14 8 28 17 l27 20q6 4 12.5 9l14.5 11l12 13l13 12l16 -12l-16 -97q-23 -25 -51.5 -43t-63.5 -33q-33 -14 -69 -22t-70 -14h-9q-4 0 -8 -2h-8h-8h-8q-4 0 -7 -2h-8h-8h-8h-6q-4 2 -7 2h-8h-5h-7q-2 2 -5 2h-7l-49 -97q6 2 14 4l16 5q8 2 17 2h16h7h5h8q3 0 5 -2q29 -4 54.5 -13.5 t49.5 -25.5q25 -16 37 -41t14 -56v-1v-3v-2v-4q-2 0 -2 -1v-3v-4q-8 -49 -29.5 -82t-56.5 -49t-71.5 -25.5t-77.5 -11.5h-3h-1h-3h-1q-25 0 -49.5 1t-47.5 5q-23 2 -43 7l-36 10l16 81q20 -4 38.5 -9t35.5 -7q16 -4 30.5 -5t28.5 -1q31 0 53.5 6t36.5 16q12 10 19.5 22.5 t9.5 27.5v3v3v3q-2 15 -11.5 28.5t-21.5 25.5q-14 12 -30.5 17.5t-37.5 5.5h-3h-1h-3h-3h-4q-2 0 -4 -2h-5h-7q-2 0 -4 -1t-4 -4l-48 15l80 162q-121 33 -203.5 82t-127.5 112q-45 66 -67 149t-22 185v4z" />
<glyph unicode="&#xe8;" horiz-adv-x="1032" d="M63 451q0 131 34 230t104 165t152.5 99.5t178.5 33.5q86 0 154 -21.5t113 -62.5q47 -43 79.5 -89t51.5 -97l12 -42q6 -22 8 -44q4 -20 6 -40t2 -36v-10v-11q-2 -4 -2 -8v-8q0 -8 -1 -16.5t-3 -14.5l-694 4q0 -94 18.5 -167.5t55.5 -129.5q37 -55 107.5 -82.5t172.5 -27.5 q41 0 82 8t80 27q41 16 73 39.5t56 54.5l17 -109l-4 -6l-1 -2h-1l-3 -2q-2 -2 -5 -4t-7 -4q-2 -2 -5 -4t-7 -4l-67 -39t-70 -31q-37 -16 -87.5 -24.5t-113.5 -8.5q-127 6 -218 44t-147 110q-55 72 -84.5 153.5t-36.5 171.5v5zM791 565v7v12v6v6q-2 2 -3 5v5q-2 55 -17 105.5 t-44 95.5q-27 47 -75 69.5t-120 22.5q-53 0 -96 -19.5t-76 -56.5q-33 -39 -55 -80t-35 -88q-2 -12 -5 -24.5t-5 -24.5t-2 -23v-22zM612 1096l-321 211q-6 2 -12.5 5t-10.5 7t-7 8t-7 8q-2 4 -5 7.5t-5 7.5t-2 8v8q0 14 7 26.5t21 22.5t29.5 15.5t32.5 5.5q8 0 15 -1t15 -5 q6 -2 13 -7l12 -8l322 -319h-97z" />
<glyph unicode="&#xe9;" horiz-adv-x="1032" d="M63 467q0 131 34 230.5t104 164.5q70 66 152.5 99.5t178.5 33.5q86 0 154 -21.5t113 -62.5q47 -43 79.5 -89t51.5 -97l12 -42q6 -22 8 -44q4 -20 6 -39.5t2 -36.5v-10v-10q-2 -4 -2 -8v-9q0 -8 -1 -16t-3 -14l-694 4q0 -94 18.5 -168t55.5 -129t107.5 -83t172.5 -28 q41 0 82 8.5t80 26.5q41 16 73 39.5t56 54.5l17 -108l-4 -7l-1 -2h-1l-3 -2q-2 -2 -5 -4t-7 -4q-2 -2 -5 -4t-7 -4q-33 -20 -67 -38.5t-70 -35.5q-37 -12 -87.5 -20t-113.5 -8q-127 6 -218 44t-147 109q-55 72 -84.5 154t-36.5 172v4zM791 580v6v10v4v6q-2 2 -3 5v5 q-2 55 -17 107.5t-42 97.5q-27 47 -76 70.5t-121 23.5q-53 0 -96 -19t-78 -58q-33 -39 -55 -81t-33 -89q-2 -12 -5 -24.5t-5 -22.5q-2 -12 -2 -24v-22zM338 1096l274 290l17 13l16 12q10 6 19.5 10t17.5 6q4 2 8 3.5t8 1.5h4q2 0 7 2h4h4q16 0 29.5 -4.5t25.5 -12.5 t18.5 -18t6.5 -23q0 -8 -3 -19t-12 -24q-4 -6 -10 -12t-12 -10l-17 -13q-8 -6 -18 -12l-305 -190h-82z" />
<glyph unicode="&#xea;" horiz-adv-x="1032" d="M63 467q0 131 34 230.5t104 164.5q70 66 152.5 99.5t178.5 33.5q86 0 154 -21.5t113 -62.5q47 -43 79.5 -89t51.5 -97l12 -42q6 -22 8 -44q4 -20 6 -39.5t2 -36.5v-10v-10q-2 -4 -2 -8v-9q0 -8 -1 -16t-3 -14l-694 4q0 -94 18.5 -168t55.5 -129t107.5 -83t172.5 -28 q41 0 82 8.5t80 26.5q41 16 73 39.5t56 54.5l17 -108l-4 -7l-1 -2h-1l-3 -2q-2 -2 -5 -4t-7 -4q-2 -2 -5 -4t-7 -4q-33 -20 -67 -38.5t-70 -35.5q-37 -12 -87.5 -20t-113.5 -8q-127 6 -218 44t-147 109q-55 72 -84.5 154t-36.5 172v4zM791 580v6v10v4v6q-2 2 -3 5v5 q-2 55 -17 107.5t-42 97.5q-27 47 -76 70.5t-121 23.5q-53 0 -96 -19t-78 -58q-33 -39 -55 -81t-33 -89q-2 -12 -5 -24.5t-5 -22.5q-2 -12 -2 -24v-22zM209 1081l274 371h97l274 -371h-80l-242 226l-241 -226h-82z" />
<glyph unicode="&#xeb;" horiz-adv-x="1032" d="M63 467q0 131 34 230.5t104 164.5q70 66 152.5 99.5t178.5 33.5q86 0 154 -21.5t113 -62.5q47 -43 79.5 -89t51.5 -97l12 -42q6 -22 8 -44q4 -20 6 -39.5t2 -36.5v-10v-10q-2 -4 -2 -8v-9q0 -8 -1 -16t-3 -14l-694 4q0 -94 18.5 -168t55.5 -129t107.5 -83t172.5 -28 q41 0 82 8.5t80 26.5q41 16 73 39.5t56 54.5l17 -108l-4 -7l-1 -2h-1l-3 -2q-2 -2 -5 -4t-7 -4q-2 -2 -5 -4t-7 -4q-33 -20 -67 -38.5t-70 -35.5q-37 -12 -87.5 -20t-113.5 -8q-127 6 -218 44t-147 109q-55 72 -84.5 154t-36.5 172v4zM791 580v6v10v4v6q-2 2 -3 5v5 q-2 55 -17 107.5t-42 97.5q-27 47 -76 70.5t-121 23.5q-53 0 -96 -19t-78 -58q-33 -39 -55 -81t-33 -89q-2 -12 -5 -24.5t-5 -22.5q-2 -12 -2 -24v-22zM225 1210q0 -2 0 -1v3v3v4q-2 23 6.5 40t22.5 29q16 12 32.5 18.5t35.5 8.5h2h4q20 0 38.5 -5t34.5 -18 q16 -12 25.5 -30.5t9.5 -40.5q0 -27 -8 -48.5t-25 -33.5q-14 -14 -32.5 -20.5t-36.5 -6.5h-3h-1h-2q-18 0 -33.5 6t-32.5 19q-14 12 -23.5 29.5t-13.5 39.5v4zM629 1225q4 20 13 36.5t24 28.5q16 12 31.5 18.5t33.5 8.5h2h4q18 0 37 -6t33 -19q16 -12 23.5 -29.5t7.5 -41.5 q0 -27 -8.5 -47.5t-24.5 -32.5q-14 -14 -32.5 -20.5t-37.5 -6.5q-20 -2 -38.5 4t-34.5 21q-16 14 -24.5 34.5t-8.5 47.5v4z" />
<glyph unicode="&#xec;" d="M193 983q6 -4 12 -7t12 -5t13 -2h16q4 -2 7 -2h5h4h4h2h4h22q11 0 21 2q4 0 9.5 1t11.5 3q4 2 9 3t9 3v-979q-6 0 -14 1t-18 3q-8 2 -19.5 3t-21.5 1h-3h-2h-3h-3h-4h-4q-8 -2 -17 -3t-20 -3q-8 -2 -17 -2h-15v983zM403 1096l-323 211q-6 2 -12.5 5t-10.5 7t-7 8t-7 8 q-2 4 -5 7.5t-3 7.5q-2 4 -2 8v8q-2 14 4 26.5t20 20.5q12 10 27.5 15.5t32.5 7.5h2h4q8 0 15 -1t16 -5q6 -2 12 -7l12 -8l322 -319h-97z" />
<glyph unicode="&#xed;" d="M193 983q6 -4 12 -7t12 -5t13 -2h16q4 -2 7 -2h5h4h4h2h4h22q11 0 21 2q4 0 9.5 1t11.5 3q4 2 9 3t9 3v-979q-6 0 -14 1t-18 3q-8 2 -19.5 3t-21.5 1h-3h-2h-3h-3h-4h-4q-8 -2 -17 -3t-20 -3q-8 -2 -17 -2h-15v983zM209 1096l274 290l17 13l16 12q10 6 19.5 10t17.5 6 q4 2 8 3.5t8 1.5h4q2 0 7 2h4h4q16 0 29.5 -4.5t25.5 -12.5t18.5 -18t6.5 -23q0 -8 -3 -19t-12 -24q-4 -6 -10 -12t-12 -10l-17 -13q-8 -6 -18 -12l-305 -190h-82z" />
<glyph unicode="&#xee;" d="M193 983q6 -4 12 -7t12 -5t13 -2h16q4 -2 7 -2h5h4h4h2h4h22q11 0 21 2q4 0 9.5 1t11.5 3q4 2 9 3t9 3v-979q-6 0 -14 1t-18 3q-8 2 -19.5 3t-21.5 1h-3h-2h-3h-3h-4h-4q-8 -2 -17 -3t-20 -3q-8 -2 -17 -2h-15v983zM-33 1096l275 372h96l274 -372h-80l-241 227l-242 -227 h-82z" />
<glyph unicode="&#xef;" d="M193 983q6 -4 12 -7t12 -5t13 -2h16q4 -2 7 -2h5h4h4h2h4h22q11 0 21 2q4 0 9.5 1t11.5 3q4 2 9 3t9 3v-979q-6 0 -14 1t-18 3q-8 2 -19.5 3t-21.5 1h-3h-2h-3h-3h-4h-4q-8 -2 -17 -3t-20 -3q-8 -2 -17 -2h-15v983zM-33 1225q4 -2 4 -1v3v3v3q0 23 6.5 41t22.5 31 q12 12 28.5 18t34.5 8h3h4q20 0 38.5 -5t34.5 -17t25.5 -30.5t9.5 -41.5q0 -27 -8 -48.5t-25 -35.5q-14 -14 -32.5 -20.5t-36.5 -6.5h-3h-1h-2q-18 0 -34 6.5t-32 18.5q-12 12 -21.5 29.5t-11.5 40.5zM371 1241q4 20 13 36.5t24 29.5q16 12 31.5 18t33.5 8h2h4q18 0 37 -6 t33 -18q16 -12 23.5 -29.5t7.5 -42.5q0 -27 -8.5 -47.5t-24.5 -34.5q-14 -14 -32.5 -20.5t-37.5 -6.5q-20 -2 -38.5 4.5t-35.5 20.5q-16 14 -24 35.5t-8 48.5v4z" />
<glyph unicode="&#xf0;" horiz-adv-x="1144" />
<glyph unicode="&#xf1;" horiz-adv-x="1144" d="M162 0v999q6 -4 15 -7t18 -5q10 -2 19 -3t17 -1h5h4h4h4h12h12q4 0 10.5 1t12.5 1q12 2 23 5l20 5v-172q6 4 12 13.5t15 19.5l17 21l19 22q20 20 47 38.5t60 37.5q33 18 76 27.5t94 9.5h2h4q59 -2 113.5 -26.5t103.5 -72.5q49 -47 73.5 -126.5t24.5 -194.5v-592h-8 q-4 0 -8 2q-6 0 -10 1t-8 1t-9.5 1t-9.5 1q-6 2 -11 2h-9q-10 0 -22.5 -1t-24.5 -3t-25.5 -3t-30.5 -1v596q0 70 -18.5 124t-52.5 91q-37 37 -77 55.5t-83 18.5h-3h-3h-3h-3q-45 -2 -87 -24.5t-79 -63.5q-39 -39 -57.5 -98.5t-18.5 -137.5v-561q-12 0 -23.5 1t-21.5 3 t-20.5 3t-20.5 1t-21.5 -1t-21.5 -3q-6 0 -12.5 -1t-10.5 -1q-6 -2 -12 -2h-12zM242 1161q4 33 14 60.5t29 50.5q16 23 35.5 40t39.5 29l9 5l8 4q2 0 6 2l8 4q4 2 7 3t8 3q2 0 6 1t8 3h3q1 0 3 2h3h3h7h7q10 0 20.5 -1t20.5 -5q10 -2 21.5 -5t23.5 -7l9 -4q4 -2 8 -3l8 -4 l8 -4l8 -4q4 -2 11 -4l8 -4l8 -4q10 -4 18.5 -9t18.5 -10q8 -4 17.5 -8t17.5 -8q16 -8 33.5 -11t31.5 -3q16 0 32.5 6t31.5 18q16 12 28.5 34t24.5 54l66 -12q-2 -10 -7 -21l-8 -24q-4 -12 -10 -25l-12 -24q-14 -23 -30.5 -43.5t-39.5 -38.5q-20 -18 -47 -27.5t-57 -9.5 q-25 0 -47.5 3t-45.5 11q-20 8 -39 18l-36 17l-35 16l-33 15q-14 8 -27.5 12t-25.5 4q-20 0 -34.5 -4t-25.5 -10q-8 -8 -17 -18.5t-17 -24.5l-4.5 -9l-4.5 -9q-2 -2 -3 -5.5t-1 -5.5l-3 -6q-1 -2 -3 -4z" />
<glyph unicode="&#xf2;" horiz-adv-x="1144" d="M49 451q0 119 36 217t108 174q72 78 169 115.5t218 37.5q90 0 160.5 -22.5t121.5 -65.5q49 -43 86 -90t62 -100q16 -35 26.5 -69t16.5 -66q6 -33 9 -58.5t3 -44.5q0 -18 -1 -37.5t-5 -40.5q-2 -20 -7 -39.5t-12 -39.5q-20 -63 -59 -123t-96 -113q-57 -51 -138 -76.5 t-184 -25.5h-8h-8h-4h-2h-4h-5q-115 0 -203.5 32.5t-152.5 100.5q-63 68 -95 150.5t-32 178.5v5zM242 436q0 -16 2 -36.5t4 -45.5q4 -25 10 -50t18 -54q14 -37 37 -72t56 -65q31 -31 77 -47.5t103 -20.5q66 0 121 26.5t100 82.5q43 53 68.5 135t31.5 190q0 96 -18 175 t-55 141q-37 59 -95.5 89.5t-136.5 30.5q-76 0 -135 -31.5t-100 -97.5q-41 -63 -63.5 -133.5t-26.5 -148.5v-8v-9v-5v-7v-5v-5v-6v-6v-12q0 -5 2 -9v4zM662 1096l-324 211q-6 2 -12.5 5t-10.5 7t-7 8t-7 8q-2 4 -5 7.5t-3 7.5q-2 4 -2 8v8q-2 14 4 26.5t20 20.5 q12 10 27.5 15.5t32.5 7.5h2h4q8 0 15 -1t16 -5q6 -2 12 -7l12 -8l322 -319h-96z" />
<glyph unicode="&#xf3;" horiz-adv-x="1144" d="M49 451q0 119 36 217t108 174q72 78 169 115.5t218 37.5q90 0 160.5 -22.5t121.5 -65.5q49 -43 86 -90t62 -100q16 -35 26.5 -69t16.5 -66q6 -33 9 -58.5t3 -44.5q0 -18 -1 -37.5t-5 -40.5q-2 -20 -7 -39.5t-12 -39.5q-20 -63 -59 -123t-96 -113q-57 -51 -138 -76.5 t-184 -25.5h-8h-8h-4h-2h-4h-5q-115 0 -203.5 32.5t-152.5 100.5q-63 68 -95 150.5t-32 178.5v5zM242 436q0 -16 2 -36.5t4 -45.5q4 -25 10 -50t18 -54q14 -37 37 -72t56 -65q31 -31 77 -47.5t103 -20.5q66 0 121 26.5t100 82.5q43 53 68.5 135t31.5 190q0 96 -18 175 t-55 141q-37 59 -95.5 89.5t-136.5 30.5q-76 0 -135 -31.5t-100 -97.5q-41 -63 -63.5 -133.5t-26.5 -148.5v-8v-9v-5v-7v-5v-5v-6v-6v-12q0 -5 2 -9v4zM307 1081l273 289q6 4 14 10l16 13q4 4 8.5 6t10.5 4l8 4l8 4q4 0 9 1t12 3h4q2 0 6 2h5h5q16 0 29.5 -4t25.5 -12 q10 -8 16.5 -18.5t8.5 -22.5q0 -8 -4 -19.5t-12 -23.5q-4 -6 -9.5 -12.5t-11.5 -10.5l-16 -12q-8 -6 -19 -12l-307 -189h-80z" />
<glyph unicode="&#xf4;" horiz-adv-x="1144" d="M49 451q0 119 36 217t108 174q72 78 169 115.5t218 37.5q90 0 160.5 -22.5t121.5 -65.5q49 -43 86 -90t62 -100q16 -35 26.5 -69t16.5 -66q6 -33 9 -58.5t3 -44.5q0 -18 -1 -37.5t-5 -40.5q-2 -20 -7 -39.5t-12 -39.5q-20 -63 -59 -123t-96 -113q-57 -51 -138 -76.5 t-184 -25.5h-8h-8h-4h-2h-4h-5q-115 0 -203.5 32.5t-152.5 100.5q-63 68 -95 150.5t-32 178.5v5zM242 436q0 -16 2 -36.5t4 -45.5q4 -25 10 -50t18 -54q14 -37 37 -72t56 -65q31 -31 77 -47.5t103 -20.5q66 0 121 26.5t100 82.5q43 53 68.5 135t31.5 190q0 96 -18 175 t-55 141q-37 59 -95.5 89.5t-136.5 30.5q-76 0 -135 -31.5t-100 -97.5q-41 -63 -63.5 -133.5t-26.5 -148.5v-8v-9v-5v-7v-5v-5v-6v-6v-12q0 -5 2 -9v4zM242 1081l274 371h96l275 -371h-80l-242 226l-243 -226h-80z" />
<glyph unicode="&#xf5;" horiz-adv-x="1144" d="M49 451q0 119 36 217t108 174q72 78 169 115.5t218 37.5q90 0 160.5 -22.5t121.5 -65.5q49 -43 86 -90t62 -100q16 -35 26.5 -69t16.5 -66q6 -33 9 -58.5t3 -44.5q0 -18 -1 -37.5t-5 -40.5q-2 -20 -7 -39.5t-12 -39.5q-20 -63 -59 -123t-96 -113q-57 -51 -138 -76.5 t-184 -25.5h-8h-8h-4h-2h-4h-5q-115 0 -203.5 32.5t-152.5 100.5q-63 68 -95 150.5t-32 178.5v5zM242 436q0 -16 2 -36.5t4 -45.5q4 -25 10 -50t18 -54q14 -37 37 -72t56 -65q31 -31 77 -47.5t103 -20.5q66 0 121 26.5t100 82.5q43 53 68.5 135t31.5 190q0 96 -18 175 t-55 141q-37 59 -95.5 89.5t-136.5 30.5q-76 0 -135 -31.5t-100 -97.5q-41 -63 -63.5 -133.5t-26.5 -148.5v-8v-9v-5v-7v-5v-5v-6v-6v-12q0 -5 2 -9v4zM258 1112q4 33 14.5 60.5t28.5 50.5q16 23 35.5 41t40.5 30l8 4l8 5q2 0 6 2l9 4q4 2 7 3t7 3q2 0 6 1t8 3h3q1 0 3 2h3 h4h7h5h7h7q2 -2 6 -2h8q8 -2 16.5 -3t16.5 -5q10 -2 21.5 -7.5t23.5 -9.5q6 -2 11.5 -5t11.5 -5q4 -4 10 -6t12 -6q10 -4 18.5 -9.5t18.5 -9.5q8 -4 17.5 -8t17.5 -8q18 -8 35.5 -11t34.5 -3q16 0 32.5 6t30.5 18q16 12 28.5 34t24.5 54l66 -12q-2 -12 -6 -24l-8 -23 q-2 -6 -6 -12l-5 -11q-4 -6 -6 -12t-6 -12q-12 -23 -29.5 -44.5t-40.5 -39.5q-20 -18 -46.5 -27.5t-57.5 -9.5q-25 0 -47.5 3t-44.5 11q-20 8 -40 18l-36 17q-18 10 -34.5 17.5l-33.5 15.5q-14 8 -27 12t-26 4q-18 0 -32.5 -4t-24.5 -10q-8 -6 -17.5 -16.5t-17.5 -24.5 q-2 -4 -5 -9l-7 -12q-2 -2 -3 -5t-1 -5l-3 -6l-3 -6z" />
<glyph unicode="&#xf6;" horiz-adv-x="1144" d="M49 451q0 119 36 217t108 174q72 78 169 115.5t218 37.5q90 0 160.5 -22.5t121.5 -65.5q49 -43 86 -90t62 -100q16 -35 26.5 -69t16.5 -66q6 -33 9 -58.5t3 -44.5q0 -18 -1 -37.5t-5 -40.5q-2 -20 -7 -39.5t-12 -39.5q-20 -63 -59 -123t-96 -113q-57 -51 -138 -76.5 t-184 -25.5h-8h-8h-4h-2h-4h-5q-115 0 -203.5 32.5t-152.5 100.5q-63 68 -95 150.5t-32 178.5v5zM242 436q0 -16 2 -36.5t4 -45.5q4 -25 10 -50t18 -54q14 -37 37 -72t56 -65q31 -31 77 -47.5t103 -20.5q66 0 121 26.5t100 82.5q43 53 68.5 135t31.5 190q0 96 -18 175 t-55 141q-37 59 -95.5 89.5t-136.5 30.5q-76 0 -135 -31.5t-100 -97.5q-41 -63 -63.5 -133.5t-26.5 -148.5v-8v-9v-5v-7v-5v-5v-6v-6v-12q0 -5 2 -9v4zM274 1210q0 -2 0 -1v3v3v4q-2 23 6.5 40t22.5 29q16 12 32.5 18.5t35.5 8.5h2h4q20 0 38.5 -5t35.5 -18q16 -12 24 -30.5 t8 -40.5q0 -27 -8 -48.5t-24 -33.5q-14 -14 -33 -20.5t-37 -6.5q-18 -2 -35.5 4t-34.5 19q-14 12 -23 29.5t-14 41.5v4zM678 1225q4 20 13 36.5t24 28.5q16 12 31.5 18.5t33.5 8.5h2h4q18 0 37 -6t33 -19q16 -12 23.5 -29.5t7.5 -41.5q0 -27 -8.5 -47.5t-24.5 -32.5 q-14 -14 -32.5 -20.5t-37.5 -6.5q-20 -2 -38.5 4t-34.5 21q-16 14 -24.5 34.5t-8.5 47.5v4z" />
<glyph unicode="&#xf7;" />
<glyph unicode="&#xf8;" horiz-adv-x="1144" d="M193 129q-6 2 -10.5 6t-8.5 10l-8 13l-8 12q-23 29 -40.5 60.5t-29.5 64.5q-12 35 -18.5 76t-6.5 92q6 102 41 193.5t99 166.5q63 78 161.5 117t231.5 39q29 0 55.5 -2t50.5 -6l25 -4l25 -4l22 -9l25 -8q10 -4 20 -9l23 -11q6 -2 11 -6.5t11 -6.5q4 -4 10.5 -7t12.5 -7 l145 166l64 -66l-144 -145q29 -33 52.5 -73t42.5 -89q16 -49 25 -106.5t9 -122.5q0 -20 -2 -41t-6 -43q-4 -23 -10 -45.5t-16 -44.5q-23 -61 -63 -117.5t-99 -105.5q-57 -51 -137 -75t-183 -24q-49 0 -95 8.5t-91 24.5q-45 12 -79 31.5t-58 44.5l-146 -172l-63 63zM887 436 v5v8v4q0 2 2 4v4v4v4q0 2 2 4v4v4v8v9q0 31 -3 60.5t-7 55.5q-4 29 -10 51l-9 37q-2 8 -5 14.5t-7 10.5q-2 4 -4 7t-4 5h-2v-1l-2 -1l-500 -559q25 -39 52.5 -63.5t55.5 -40.5q29 -14 59 -22.5t60 -8.5q61 0 117.5 26.5t105.5 82.5q49 55 74 119.5t25 140.5v4v4v7v5v4z M307 258l500 549q-18 20 -41 39.5t-47 36.5q-25 16 -55.5 24t-67.5 8q-70 0 -125 -29.5t-96 -88.5q-41 -57 -66.5 -122t-36.5 -134l-4 -25q-2 -12 -2 -24q-2 -12 -2 -24v-22q-2 -27 0 -54t8 -52t14.5 -46.5t20.5 -39.5v4z" />
<glyph unicode="&#xf9;" horiz-adv-x="1144" d="M129 354v629q10 -6 19.5 -9t21.5 -5q10 -2 23 -2h24h12h13q4 0 10 1t12 1q12 2 24 5l19 5v-576q0 -66 14.5 -123t40.5 -106q29 -49 73 -74.5t104 -25.5h3h3h4q2 0 4 2h2h4h3h3q59 4 100.5 25.5t65.5 58.5q25 37 39 78t18 86v4q0 2 3 6v5v5v6v6v5v6v616q2 -4 4 -5t4 -1 q0 -2 2 -2h4q4 -2 8 -2h8l15.5 -4t15.5 -2h15h16h21q11 0 22 2q10 2 21 5l20 5v-979q-8 0 -17.5 1t-19.5 3t-21.5 3t-21.5 1h-13q-6 0 -10 -2q-6 0 -12 -1t-12 -1q-12 -2 -24.5 -3t-24.5 -1v145q-25 -51 -60 -83.5t-82 -49.5q-45 -12 -95 -20t-103 -8q-78 0 -133.5 16 t-90.5 51q-33 35 -53 73t-31 81q-2 10 -5 19t-3 20q-2 8 -3 18t-1 19q-2 18 -2 36v33v4zM629 1096l-322 211q-6 2 -12 5t-10 7t-7.5 8t-7.5 8q-2 4 -5 7.5t-5 7.5t-2 8v8q0 14 7 26.5t22 22.5q14 10 29.5 15.5t31.5 5.5q8 0 15.5 -1t15.5 -5q6 -2 12 -7l12 -8l322 -319h-96z " />
<glyph unicode="&#xfa;" horiz-adv-x="1144" d="M129 354v629q10 -6 19.5 -9t21.5 -5q10 -2 23 -2h24h12h13q4 0 10 1t12 1q12 2 24 5l19 5v-576q0 -66 14.5 -123t40.5 -106q29 -49 73 -74.5t104 -25.5h3h3h4q2 0 4 2h2h4h3h3q59 4 100.5 25.5t65.5 58.5q25 37 39 78t18 86v4q0 2 3 6v5v5v6v6v5v6v616q2 -4 4 -5t4 -1 q0 -2 2 -2h4q4 -2 8 -2h8l15.5 -4t15.5 -2h15h16h21q11 0 22 2q10 2 21 5l20 5v-979q-8 0 -17.5 1t-19.5 3t-21.5 3t-21.5 1h-13q-6 0 -10 -2q-6 0 -12 -1t-12 -1q-12 -2 -24.5 -3t-24.5 -1v145q-25 -51 -60 -83.5t-82 -49.5q-45 -12 -95 -20t-103 -8q-78 0 -133.5 16 t-90.5 51q-33 35 -53 73t-31 81q-2 10 -5 19t-3 20q-2 8 -3 18t-1 19q-2 18 -2 36v33v4zM274 1081l275 289l16 12l17 13q10 6 19 10t17 6q4 2 8.5 3t8.5 1h4q2 0 6 2h4h4q16 0 29.5 -4t26.5 -12q10 -8 16 -18.5t8 -22.5q0 -8 -4 -19.5t-12 -23.5q-4 -6 -9.5 -12.5 t-11.5 -10.5l-16 -12q-8 -6 -18 -12l-308 -189h-80z" />
<glyph unicode="&#xfb;" horiz-adv-x="1144" d="M129 354v629q10 -6 19.5 -9t21.5 -5q10 -2 23 -2h24h12h13q4 0 10 1t12 1q12 2 24 5l19 5v-576q0 -66 14.5 -123t40.5 -106q29 -49 73 -74.5t104 -25.5h3h3h4q2 0 4 2h2h4h3h3q59 4 100.5 25.5t65.5 58.5q25 37 39 78t18 86v4q0 2 3 6v5v5v6v6v5v6v616q2 -4 4 -5t4 -1 q0 -2 2 -2h4q4 -2 8 -2h8l15.5 -4t15.5 -2h15h16h21q11 0 22 2q10 2 21 5l20 5v-979q-8 0 -17.5 1t-19.5 3t-21.5 3t-21.5 1h-13q-6 0 -10 -2q-6 0 -12 -1t-12 -1q-12 -2 -24.5 -3t-24.5 -1v145q-25 -51 -60 -83.5t-82 -49.5q-45 -12 -95 -20t-103 -8q-78 0 -133.5 16 t-90.5 51q-33 35 -53 73t-31 81q-2 10 -5 19t-3 20q-2 8 -3 18t-1 19q-2 18 -2 36v33v4zM225 1081l275 371h96l274 -371h-79l-242 226l-242 -226h-82z" />
<glyph unicode="&#xfc;" horiz-adv-x="1144" d="M129 354v629q10 -6 19.5 -9t21.5 -5q10 -2 23 -2h24h12h13q4 0 10 1t12 1q12 2 24 5l19 5v-576q0 -66 14.5 -123t40.5 -106q29 -49 73 -74.5t104 -25.5h3h3h4q2 0 4 2h2h4h3h3q59 4 100.5 25.5t65.5 58.5q25 37 39 78t18 86v4q0 2 3 6v5v5v6v6v5v6v616q2 -4 4 -5t4 -1 q0 -2 2 -2h4q4 -2 8 -2h8l15.5 -4t15.5 -2h15h16h21q11 0 22 2q10 2 21 5l20 5v-979q-8 0 -17.5 1t-19.5 3t-21.5 3t-21.5 1h-13q-6 0 -10 -2q-6 0 -12 -1t-12 -1q-12 -2 -24.5 -3t-24.5 -1v145q-25 -51 -60 -83.5t-82 -49.5q-45 -12 -95 -20t-103 -8q-78 0 -133.5 16 t-90.5 51q-33 35 -53 73t-31 81q-2 10 -5 19t-3 20q-2 8 -3 18t-1 19q-2 18 -2 36v33v4zM242 1210q0 -2 0 -1v3v3v4q-2 23 6 40t22 29q16 12 32.5 18.5t35.5 8.5h2h4q20 0 38.5 -5t35.5 -18q16 -12 24.5 -30.5t8.5 -40.5q0 -27 -8.5 -48.5t-24.5 -33.5q-14 -14 -32.5 -20.5 t-37.5 -6.5q-18 -2 -35.5 4t-33.5 19q-14 12 -23.5 29.5t-13.5 41.5v4zM645 1225q4 20 13.5 36.5t23.5 28.5q16 12 31.5 18.5t34.5 8.5h2h4q18 0 36.5 -6t32.5 -19q16 -12 23.5 -29.5t7.5 -41.5q0 -27 -8 -47.5t-25 -32.5q-14 -14 -32.5 -20.5t-36.5 -6.5q-20 -2 -39 4 t-35 21q-16 14 -24.5 34.5t-8.5 47.5v4z" />
<glyph unicode="&#xfd;" />
<glyph unicode="&#xfe;" horiz-adv-x="1144" />
<glyph unicode="&#xff;" horiz-adv-x="1032" d="M33 983q14 -6 28.5 -9t28.5 -5q16 -2 30 -2h27h27q12 0 25 2q12 2 23 5l20 5q8 -27 24 -73l41 -111l52 -132l59 -141q2 -4 4 -9t4 -9q0 -4 2 -9.5t4 -9.5q4 -8 8 -17t9 -19l12 -30q6 -15 14 -32l12 -30l13 -29l24 -56l25 -51q12 23 24 49l27 58l27 60l28 65q4 10 9.5 21 t9.5 24q4 10 9 21l11 24l56 137q27 66 49 129q23 61 37 104t18 66q10 -2 19.5 -5t17.5 -5q4 0 8 -1t10 -1h9h8h19q9 0 18 2q10 2 19 5t17 5l-677 -1511q-6 2 -12.5 5t-14.5 5t-15 2h-16h-19q-11 0 -22 -2q-10 -2 -21.5 -5t-23.5 -5l273 548zM209 1241v2v3v3q-2 23 6 41.5 t23 30.5q16 12 32.5 18.5t34.5 8.5h2h4q20 0 39 -5.5t35 -17.5t25.5 -30.5t9.5 -41.5q0 -27 -8.5 -48t-24.5 -36q-14 -14 -32.5 -20t-37.5 -6h-3h-1h-2q-18 0 -33.5 6t-31.5 18q-14 12 -23.5 29.5t-13.5 40.5v4zM612 1257q4 20 13.5 38t25.5 30t33.5 18.5t38.5 6.5 q18 0 36.5 -6.5t33.5 -18.5q16 -12 23 -29.5t7 -42.5q0 -27 -8 -47t-24 -35q-14 -14 -33 -20t-39 -6q-20 -2 -38.5 4t-35.5 20q-16 14 -24.5 36t-8.5 48v4z" />
<glyph unicode="&#x152;" horiz-adv-x="2048" d="M33 694q10 207 70.5 354.5t168.5 231.5q109 84 243 126t292 42q20 0 45 -3t53 -7q29 -4 57.5 -10.5t59.5 -14.5q47 -14 92 -33.5t86 -44.5t67.5 -52.5t39.5 -61.5l-17 198h678q-2 -8 -3 -13t-3 -9t-2 -8v-9q-2 -6 -3 -10t-1 -8v-9v-10v-17q0 -9 2 -19q2 -8 5 -17.5 t5 -19.5q-39 10 -83 16t-93 8q-51 4 -101.5 5t-103.5 4h-29h-32h-29h-29v-496h242q12 -4 25 -4h26h26q13 0 28 2q12 0 25 1t28 3q6 0 12 1t14 3q6 2 12.5 3t12.5 3q-2 -8 -4 -14l-4 -12q0 -2 -1 -5.5t-1 -5.5q-2 -4 -2 -6v-6v-3v-3v-4v-4v-16q0 -7 2 -15q0 -4 1 -8t3 -8 q2 -6 3 -10.5t3 -8.5q-31 4 -58.5 7t-52.5 5h-25q-13 0 -26 3h-23h-24l-242 4v-613q23 -4 50 -4h53h56q28 0 54 2q43 0 86 3t82 5q41 4 75 9.5t61 13.5q-2 -8 -5 -14l-4 -13q0 -2 -1 -5t-1 -5q-2 -4 -2 -6v-6v-3v-3v-4v-5v-15q0 -7 2 -15t5 -16.5t6 -14.5h-711l16 178 q-53 -59 -113.5 -102t-125.5 -72q-66 -27 -132.5 -42t-134.5 -17h-4h-2h-4h-4h-5h-7q-139 0 -265 45t-239 139t-168 220t-55 284v7v5v8v9v4v4v2v4v4q0 2 2 4v2v4v4zM1307 741q-6 131 -37 234.5t-86 177.5q-57 72 -117.5 120t-126.5 70q-18 6 -35.5 10.5t-34.5 6.5 q-16 4 -31.5 5t-31.5 1q-137 0 -240.5 -51t-175.5 -154q-70 -102 -106.5 -216t-40.5 -236v-3v-5v-3v-5v-7q0 -119 31.5 -229.5t95.5 -208.5q63 -100 159.5 -150.5t227.5 -52.5h7h5h7h5q133 -2 229.5 46t155.5 145q59 96 94 201.5t44 221.5v10v11v9v9v10q0 5 2 11v9v9v4z" />
<glyph unicode="&#x153;" horiz-adv-x="1822" d="M63 467q0 94 31 182t94 168q61 80 159.5 121t232.5 41q59 0 107 -9t85 -26q37 -16 68.5 -34.5t56.5 -39.5q10 -8 19.5 -17t17.5 -19q10 -8 17 -16.5t16 -14.5q8 10 16 18l16 17l15 14q8 8 16 14l32 25q15 12 30 22q31 18 62.5 31.5t64.5 20.5q31 6 64.5 10t70.5 4 q102 0 179 -28.5t128 -86.5q49 -57 74.5 -132t25.5 -167v-21v-22q0 -10 -1 -21.5t-3 -21.5l-708 4q-2 -14 -4.5 -24t-2.5 -21q0 -4 -1 -9t-1 -9v-11v-10q-2 -72 21.5 -132t73.5 -109q49 -49 107 -74t128 -25q59 0 109.5 8.5t89.5 26.5q41 16 75.5 40t65.5 54l16 -92 q-31 -33 -70.5 -57.5t-86.5 -38.5q-47 -16 -101.5 -24.5t-113.5 -8.5q-72 0 -132.5 13.5t-109.5 35.5q-49 27 -85 57.5t-60 67.5q-37 -43 -77 -75.5t-87 -55.5q-45 -20 -101.5 -31.5t-121.5 -11.5q-111 0 -193 20.5t-135 61.5t-90 88t-58 99q-14 33 -22 64.5t-12 61.5 q-2 31 -4.5 55.5t-2.5 45.5v4zM242 467q0 -94 21.5 -169t66.5 -134t103.5 -89t131.5 -30q74 0 129.5 26.5t93.5 80.5q39 53 62.5 113.5t32.5 123.5v9q0 5 2 10v9v9v9q0 5 2 9v10v9v8v10q-2 4 -2 8v9v9v9q-2 4 -2 9v10q-8 72 -30 137t-58 125q-37 59 -90.5 88.5t-124.5 29.5 q-66 0 -123.5 -28.5t-106.5 -87.5q-49 -57 -75.5 -142.5t-32.5 -193.5v4zM1597 565v4q-2 2 -2 3v3v9v8q-2 2 -2 3v3v4v4q-6 55 -18 105.5t-33 95.5q-20 47 -70.5 69.5t-132.5 22.5q-68 0 -119 -25.5t-87 -76.5q-37 -51 -57.5 -110.5t-26.5 -125.5z" />
<glyph unicode="&#x178;" horiz-adv-x="1024" />
<glyph unicode="&#x2c6;" horiz-adv-x="677" d="M0 1145q4 33 14.5 60.5t28.5 49.5q16 23 35.5 40.5t40.5 29.5q8 4 15 9t16 7q6 4 13 5.5t15 3.5h3q1 0 3 2h3h3h8h7q10 0 20.5 -1t20.5 -5q10 -2 21.5 -5.5l23.5 -7.5l8 -4q4 -2 8 -2l8 -4l9 -4l8 -4q4 -2 10 -4l8 -4l8 -4q10 -4 18.5 -9.5t18.5 -9.5q8 -4 17.5 -8 t17.5 -8q16 -8 33.5 -11.5t32.5 -3.5q16 0 32.5 6.5t30.5 18.5q16 12 28.5 33.5t24.5 54.5l66 -12q-2 -10 -6 -22l-8 -23q-4 -12 -11 -25l-12 -24q-14 -23 -30.5 -43.5t-39.5 -38.5q-20 -18 -46.5 -27.5t-57.5 -9.5q-25 0 -47.5 3t-44.5 11q-20 8 -40 17l-36 18l-35 15 q-16 7 -33 16q-14 8 -27.5 12t-25.5 4q-18 0 -32.5 -4t-24.5 -10q-8 -6 -17.5 -16.5t-17.5 -22.5q-2 -6 -5 -11.5t-7 -9.5q-2 -2 -3 -5t-1 -5l-3 -6l-4 -6z" />
<glyph unicode="&#x2dc;" horiz-adv-x="677" d="M33 1081l274 371h96l275 -371h-82l-242 226l-241 -226h-80z" />
<glyph unicode="&#x2000;" horiz-adv-x="972" />
<glyph unicode="&#x2001;" horiz-adv-x="1947" />
<glyph unicode="&#x2002;" horiz-adv-x="972" />
<glyph unicode="&#x2003;" horiz-adv-x="1947" />
<glyph unicode="&#x2004;" horiz-adv-x="649" />
<glyph unicode="&#x2005;" horiz-adv-x="485" />
<glyph unicode="&#x2006;" horiz-adv-x="323" />
<glyph unicode="&#x2007;" horiz-adv-x="323" />
<glyph unicode="&#x2008;" horiz-adv-x="241" />
<glyph unicode="&#x2009;" horiz-adv-x="389" />
<glyph unicode="&#x200a;" horiz-adv-x="106" />
<glyph unicode="&#x2010;" horiz-adv-x="677" d="M80 549h516v-146h-516v146z" />
<glyph unicode="&#x2011;" horiz-adv-x="677" d="M80 549h516v-146h-516v146z" />
<glyph unicode="&#x2012;" horiz-adv-x="677" d="M80 549h516v-146h-516v146z" />
<glyph unicode="&#x2013;" horiz-adv-x="1032" d="M0 516h1049v-113h-1049v113z" />
<glyph unicode="&#x2014;" horiz-adv-x="2048" d="M-16 516h2048v-113h-2048v113z" />
<glyph unicode="&#x2018;" d="M162 999l258 420l31 -16l-144 -483q-6 -27 -15 -45.5t-20 -30.5q-10 -12 -21 -18.5t-24 -10.5h-3h-1q-2 -2 -3 -2h-1h-4h-4q-16 -2 -30.5 4t-26.5 19q-12 12 -18.5 28.5t-6.5 36.5q0 10 2 22l4 23q4 10 11 23l16 26v4z" />
<glyph unicode="&#x2019;" d="M96 854l162 500q6 14 14.5 27.5t18.5 23.5t22.5 16t24.5 9h1q1 0 3 2h1h3h4h4q14 0 26.5 -6.5t25.5 -16.5q12 -10 18 -24.5t6 -32.5q0 -8 -1 -18.5t-5 -20.5q-2 -10 -8 -22l-13 -21l-258 -432z" />
<glyph unicode="&#x201a;" />
<glyph unicode="&#x201c;" horiz-adv-x="903" d="M162 1032l258 420l31 -16l-144 -484q-6 -27 -15 -45t-20 -30q-10 -12 -21 -18.5t-24 -10.5h-3h-1q-2 -2 -3 -2h-1h-4h-4q-16 -2 -30.5 4t-26.5 18t-18.5 28.5t-6.5 37.5q0 10 2 21l4 24q4 10 11 22l16 27v4zM516 1032l258 420l33 -16l-145 -484q-6 -27 -15.5 -45 t-19.5 -30t-21.5 -18.5t-23.5 -10.5h-3q-3 -2 -5 -2h-5h-4q-16 -2 -30.5 4t-26.5 18t-18.5 28.5t-6.5 37.5q0 10 2 21l4 24q4 10 12 22l15 27v4z" />
<glyph unicode="&#x201d;" horiz-adv-x="903" d="M145 838l-49 16l162 500q6 20 15.5 35.5t19.5 25.5t22.5 18.5t24.5 10.5h4q2 0 4 2h4q16 0 31.5 -7t30.5 -22q12 -14 19 -31.5t7 -37.5q0 -8 -1 -15.5t-5 -15.5q-2 -8 -6 -15.5l-8 -15.5zM500 838l-49 16l161 500q6 20 15.5 35.5t19.5 25.5t22.5 18.5t24.5 10.5h1h3h1 q1 0 3 2h1h4q16 0 31.5 -7t29.5 -22q12 -14 19.5 -31.5t7.5 -37.5q0 -8 -1 -15.5t-6 -15.5q-2 -8 -6 -15.5l-8 -15.5z" />
<glyph unicode="&#x201e;" horiz-adv-x="903" d="M96 -322l162 500q6 14 14.5 28.5t20.5 22.5q12 10 24.5 16.5t24.5 8.5h1h3h3h3q16 0 28.5 -5t25.5 -16q12 -10 18 -25t6 -34q0 -8 -1 -18.5t-5 -20.5q-2 -10 -8 -21l-13 -22l-258 -430zM451 -322l161 500q6 14 14.5 28.5t20.5 22.5q12 10 24.5 16.5t24.5 8.5h4h3h4 q16 0 28.5 -5t24.5 -16q12 -10 18 -25t6 -34q0 -8 -1 -18.5t-5 -20.5q-2 -10 -8 -21l-12 -22l-258 -430z" />
<glyph unicode="&#x2022;" horiz-adv-x="1241" d="M145 532q0 27 10.5 49.5t30.5 36.5q23 16 45.5 23.5t49.5 7.5t51 -6t45 -22q23 -14 33 -38t10 -55q-2 -35 -14.5 -60.5t-32.5 -41.5q-20 -14 -42 -22.5t-44 -8.5h-3h-3q-27 0 -49.5 9.5t-45.5 27.5q-20 16 -30.5 41t-10.5 55v4z" />
<glyph unicode="&#x2026;" horiz-adv-x="2048" d="M225 80q4 37 13.5 64.5t27.5 43.5t39 25.5t43 11.5h4h3h3q23 -2 44.5 -12t41.5 -29q18 -18 28.5 -40.5t10.5 -51.5q-2 -33 -14 -56.5t-31 -35.5q-18 -16 -38.5 -23.5t-43.5 -7.5t-44 6.5t-42 20.5q-20 12 -30.5 32.5t-14.5 47.5v4zM920 80q4 37 13 64.5t28 43.5 q18 16 38.5 25.5t42.5 11.5h1h4h3h3q23 -2 44 -12t42 -29q18 -18 28.5 -40.5t10.5 -51.5q-2 -33 -14.5 -56.5t-30.5 -35.5q-18 -16 -39 -23.5t-43 -7.5q-23 0 -44.5 6.5t-41.5 20.5q-20 12 -30.5 32.5t-14.5 47.5v4zM1612 80q4 37 13 64.5t28 43.5q18 16 38.5 25.5 t43.5 11.5h1h3h3h3q23 -2 44 -12t42 -29q18 -18 28.5 -40.5t10.5 -51.5q-2 -33 -12.5 -55.5t-28.5 -36.5t-37.5 -21.5t-42.5 -9.5h-3h-3q-23 0 -44.5 6.5t-41.5 20.5q-20 12 -30.5 32.5t-14.5 47.5v4z" />
<glyph unicode="&#x202f;" horiz-adv-x="389" />
<glyph unicode="&#x2039;" horiz-adv-x="677" d="M162 467l258 371q0 -4 1 -6.5t3 -2.5h3h3q2 -2 4 -3t4 -1l3 -3q1 -1 3 -1q6 -4 13.5 -7t15.5 -7q8 -2 18.5 -3t24.5 -1l-242 -336l226 -322q-12 -10 -25 -17l-22 -13q-10 -8 -18.5 -17.5t-14.5 -21.5z" />
<glyph unicode="&#x203a;" horiz-adv-x="677" d="M387 451l-209 340q0 -2 1 -3h3q2 0 3 2l3 3l9.5 5t11.5 5q4 4 9 7t9 5q10 6 17.5 15.5t13.5 19.5l258 -399l-274 -371q-6 8 -13.5 16t-17.5 15q-4 4 -9 7t-9 5q-6 4 -11.5 7l-9.5 5q-2 0 -2 2h-3h-1q-2 0 -3 1t-1 3z" />
<glyph unicode="&#x205f;" horiz-adv-x="485" />
<glyph unicode="&#x2122;" horiz-adv-x="1951" d="M371 549v805q-27 -4 -56.5 -6t-60.5 -7q-33 -2 -64.5 -7t-64.5 -11h-4h-2q-2 -2 -4 -2h-4h-5h-2q-2 -2 -4 -2h-4v100h645v-96q-23 2 -50 7t-60 9t-65 7l-66 4h-4h-4h-5h-4v-801q-2 -2 -6 -1t-6 3q-4 0 -7 1t-7 1q-6 2 -13.5 3t-15.5 1t-15 -1t-16 -3q-8 -2 -14 -3t-12 -5 v4zM870 549l129 870h33q6 -18 20.5 -51t37.5 -80l49 -98l55 -105q2 -4 4 -9t4 -9q2 -2 3 -5t3 -5q0 -4 1 -6t3 -4l45 -86l43 -78l39 -67q16 -28 31 -46l340 649h31l98 -870q-2 -2 -6 -1t-6 3q-4 0 -7 1t-8 1q-6 2 -13 3t-15 1t-15.5 -1t-15.5 -3t-14 -3t-13 -5l-65 633 l-35 -68l-33 -63l-32 -62l-33 -61l-37 -71l-35 -71l-36 -73l-34 -74q-4 -8 -8 -17.5l-8 -19.5q-4 -8 -8 -17.5l-8 -19.5l-15 4l-323 629l-49 -645q-2 -2 -5.5 -1t-7.5 3h-3q-1 0 -1 2q-2 0 -3 1t-3 1h-5h-7h-3q-1 0 -1 2h-3h-3h-3h-4q-2 -2 -3 -2h-3h-5h-7q-4 -2 -7 -3 t-7 -1q-2 -2 -5.5 -3t-7.5 -3v4z" />
<glyph unicode="&#xe000;" horiz-adv-x="985" d="M0 985h985v-985h-985v985z" />
<glyph unicode="&#xfb01;" horiz-adv-x="1130" d="M743 0v999q2 -4 4 -5t4 -1q0 -2 2 -2h5q4 -2 8 -2h8q8 -2 15 -4t16 -2h15h15h22q11 0 21 2t22 5l19 5v-995q-8 0 -17 1t-20 3q-10 2 -21 3t-22 1h-12q-6 0 -10 -2q-6 0 -12.5 -1t-12.5 -1q-12 -2 -24.5 -3t-24.5 -1zM727 1354q0 27 8 47t25 35q16 14 34.5 21t38.5 7 q23 0 43.5 -7t38.5 -21t27.5 -36t9.5 -50q-2 -29 -13.5 -50.5t-27.5 -35.5t-34.5 -21.5t-39.5 -7.5q-20 0 -39.5 7t-35.5 22q-18 16 -26.5 37.5t-8.5 48.5v4zM178 0v887h-145q2 -2 3 1t3 7t3 8t3 10v5v4v6q0 2 -2 6q0 2 -1 5t-1 5q-2 6 -3 11.5t-5 7.5l145 4 q23 160 59.5 270.5t92.5 171.5q55 61 114.5 92t122.5 33h8h9q2 -2 6 -2h8q8 0 15.5 -1t15.5 -3q-6 -25 -10.5 -46.5t-4.5 -39.5q-2 -20 -2 -39v-37l-16 -12q-12 2 -24.5 7t-24.5 11q-14 4 -29.5 7t-34.5 3q-51 0 -83.5 -16t-49.5 -49q-16 -33 -24.5 -70t-8.5 -78v-4v-2v-4 v-4v-4v-2v-4v-4q0 -14 1 -28.5t4 -29.5l4 -28l4 -27q0 -8 1 -17.5t3 -17.5q0 -8 1 -16t3 -14l227 4l-3 -6q-1 -2 -3 -3q-2 -2 -3 -4t-1 -4q-2 -4 -2 -9v-9v-12q0 -6 2 -13q2 -6 5 -12t5 -12l-227 4v-887h-8q-4 0 -8 2q-6 0 -10.5 1t-8.5 1q-8 2 -17.5 3t-19.5 1t-21.5 -1 t-21.5 -3t-21.5 -3t-23.5 -1z" />
<glyph unicode="&#xfb02;" horiz-adv-x="1130" d="M758 0v1581q12 -6 23 -9t22 -5q10 -2 21 -2h22h21q11 0 22 2q10 2 22 5t25 5v-1577h-10q-5 0 -9 2q-6 0 -11 1t-9 1q-10 2 -21.5 3t-21.5 1h-13q-6 0 -10 -2q-6 0 -12 -1t-12 -1q-12 -2 -24.5 -3t-24.5 -1zM178 0v887h-145q2 -2 3 1t3 7t3 8t3 10v5v4v6q0 2 -2 6 q0 2 -1 5t-1 5q-2 6 -3 11.5t-5 7.5l145 4q23 160 59.5 270.5t92.5 171.5q55 61 114.5 92t122.5 33h8h9q2 -2 6 -2h8q8 0 15.5 -1t15.5 -3q-6 -25 -10.5 -46.5t-4.5 -39.5q-2 -20 -2 -39v-37l-16 -12q-12 2 -24.5 7t-24.5 11q-14 4 -29.5 7t-34.5 3q-51 0 -83.5 -16 t-49.5 -49q-16 -33 -24.5 -70t-8.5 -78v-4v-2v-4v-4v-4v-2v-4v-4q0 -14 1 -28.5t4 -29.5l4 -28l4 -27q0 -8 1 -17.5t3 -17.5q0 -8 1 -16t3 -14l227 4l-3 -6q-1 -2 -3 -3q-2 -2 -3 -4t-1 -4q-2 -4 -2 -9v-9v-12q0 -6 2 -13q2 -6 5 -12t5 -12l-227 4v-887h-8q-4 0 -8 2 q-6 0 -10.5 1t-8.5 1q-8 2 -17.5 3t-19.5 1t-21.5 -1t-21.5 -3t-21.5 -3t-23.5 -1z" />
<glyph unicode="&#xfb03;" horiz-adv-x="1695" d="M1308 0v999q2 -4 4 -5t4 -1q0 -2 2 -2h5q4 -2 8 -2h8q8 -2 15 -4t16 -2h15h15h22q11 0 21 2t22 5l19 5v-995q-8 0 -17 1t-20 3q-10 2 -21 3t-22 1h-12q-6 0 -10 -2q-6 0 -12.5 -1t-12.5 -1q-12 -2 -24.5 -3t-24.5 -1zM1292 1354q0 27 8 47t25 35q16 14 34.5 21t38.5 7 q23 0 43.5 -7t38.5 -21t27.5 -36t9.5 -50q-2 -29 -13.5 -50.5t-27.5 -35.5t-34.5 -21.5t-39.5 -7.5q-20 0 -39.5 7t-35.5 22q-18 16 -26.5 37.5t-8.5 48.5v4zM743 0v887h-145q2 -2 3 1t3 7t3 8t3 10v5v4v6q0 2 -2 6q0 2 -1 5t-1 5q-2 6 -3 11.5t-5 7.5l145 4 q23 160 59.5 270.5t92.5 171.5q55 61 114.5 92t122.5 33h8h9q2 -2 6 -2h8q8 0 15.5 -1t15.5 -3q-6 -25 -10.5 -46.5t-4.5 -39.5q-2 -20 -2 -39v-37l-16 -12q-12 2 -24.5 7t-24.5 11q-14 4 -29.5 7t-34.5 3q-51 0 -83.5 -16t-49.5 -49q-16 -33 -24.5 -70t-8.5 -78v-4v-2v-4 v-4v-4v-2v-4v-4q0 -14 1 -28.5t4 -29.5l4 -28l4 -27q0 -8 1 -17.5t3 -17.5q0 -8 1 -16t3 -14l227 4l-3 -6q-1 -2 -3 -3q-2 -2 -3 -4t-1 -4q-2 -4 -2 -9v-9v-12q0 -6 2 -13q2 -6 5 -12t5 -12l-227 4v-887h-8q-4 0 -8 2q-6 0 -10.5 1t-8.5 1q-8 2 -17.5 3t-19.5 1t-21.5 -1 t-21.5 -3t-21.5 -3t-23.5 -1zM178 0v887h-145q2 -2 3 1t3 7t3 8t3 10v5v4v6q0 2 -2 6q0 2 -1 5t-1 5q-2 6 -3 11.5t-5 7.5l145 4q23 160 59.5 270.5t92.5 171.5q55 61 114.5 92t122.5 33h8h9q2 -2 6 -2h8q8 0 15.5 -1t15.5 -3q-6 -25 -10.5 -46.5t-4.5 -39.5q-2 -20 -2 -39 v-37l-16 -12q-12 2 -24.5 7t-24.5 11q-14 4 -29.5 7t-34.5 3q-51 0 -83.5 -16t-49.5 -49q-16 -33 -24.5 -70t-8.5 -78v-4v-2v-4v-4v-4v-2v-4v-4q0 -14 1 -28.5t4 -29.5l4 -28l4 -27q0 -8 1 -17.5t3 -17.5q0 -8 1 -16t3 -14l227 4l-3 -6q-1 -2 -3 -3q-2 -2 -3 -4t-1 -4 q-2 -4 -2 -9v-9v-12q0 -6 2 -13q2 -6 5 -12t5 -12l-227 4v-887h-8q-4 0 -8 2q-6 0 -10.5 1t-8.5 1q-8 2 -17.5 3t-19.5 1t-21.5 -1t-21.5 -3t-21.5 -3t-23.5 -1z" />
<glyph unicode="&#xfb04;" horiz-adv-x="1695" d="M1323 0v1581q12 -6 23 -9t22 -5q10 -2 21 -2h22h21q11 0 22 2q10 2 22 5t25 5v-1577h-10q-5 0 -9 2q-6 0 -11 1t-9 1q-10 2 -21.5 3t-21.5 1h-13q-6 0 -10 -2q-6 0 -12 -1t-12 -1q-12 -2 -24.5 -3t-24.5 -1zM743 0v887h-145q2 -2 3 1t3 7t3 8t3 10v5v4v6q0 2 -2 6 q0 2 -1 5t-1 5q-2 6 -3 11.5t-5 7.5l145 4q23 160 59.5 270.5t92.5 171.5q55 61 114.5 92t122.5 33h8h9q2 -2 6 -2h8q8 0 15.5 -1t15.5 -3q-6 -25 -10.5 -46.5t-4.5 -39.5q-2 -20 -2 -39v-37l-16 -12q-12 2 -24.5 7t-24.5 11q-14 4 -29.5 7t-34.5 3q-51 0 -83.5 -16 t-49.5 -49q-16 -33 -24.5 -70t-8.5 -78v-4v-2v-4v-4v-4v-2v-4v-4q0 -14 1 -28.5t4 -29.5l4 -28l4 -27q0 -8 1 -17.5t3 -17.5q0 -8 1 -16t3 -14l227 4l-3 -6q-1 -2 -3 -3q-2 -2 -3 -4t-1 -4q-2 -4 -2 -9v-9v-12q0 -6 2 -13q2 -6 5 -12t5 -12l-227 4v-887h-8q-4 0 -8 2 q-6 0 -10.5 1t-8.5 1q-8 2 -17.5 3t-19.5 1t-21.5 -1t-21.5 -3t-21.5 -3t-23.5 -1zM178 0v887h-145q2 -2 3 1t3 7t3 8t3 10v5v4v6q0 2 -2 6q0 2 -1 5t-1 5q-2 6 -3 11.5t-5 7.5l145 4q23 160 59.5 270.5t92.5 171.5q55 61 114.5 92t122.5 33h8h9q2 -2 6 -2h8q8 0 15.5 -1 t15.5 -3q-6 -25 -10.5 -46.5t-4.5 -39.5q-2 -20 -2 -39v-37l-16 -12q-12 2 -24.5 7t-24.5 11q-14 4 -29.5 7t-34.5 3q-51 0 -83.5 -16t-49.5 -49q-16 -33 -24.5 -70t-8.5 -78v-4v-2v-4v-4v-4v-2v-4v-4q0 -14 1 -28.5t4 -29.5l4 -28l4 -27q0 -8 1 -17.5t3 -17.5q0 -8 1 -16 t3 -14l227 4l-3 -6q-1 -2 -3 -3q-2 -2 -3 -4t-1 -4q-2 -4 -2 -9v-9v-12q0 -6 2 -13q2 -6 5 -12t5 -12l-227 4v-887h-8q-4 0 -8 2q-6 0 -10.5 1t-8.5 1q-8 2 -17.5 3t-19.5 1t-21.5 -1t-21.5 -3t-21.5 -3t-23.5 -1z" />
</font>
</defs>
</svg>
